SplineFontDB: 1.0
FontName: Garuda
FullName: Garuda
FamilyName: Garuda
Weight: Book
Copyright: Generated by NECTEC for Public Domain\n\nModified by TLWG
Version: 2.0 : Dec 10, 2003
ItalicAngle: 0
UnderlinePosition: -27
UnderlineWidth: 10
Ascent: 840
Descent: 160
NeedsXUIDChange: 1
FSType: 0
PfmFamily: 33
TTFWeight: 400
TTFWidth: 5
Panose: 2 11 6 4 2 2 2 2 2 4
LineGap: 0
VLineGap: 0
OS2WinAscent: 0
OS2WinAOffset: 1
OS2WinDescent: 0
OS2WinDOffset: 1
HheadAscent: 0
HheadAOffset: 1
HheadDescent: 0
HheadDOffset: 1
ScriptLang: 3
 1 latn 1 dflt 
 1 thai 4 KUY  PAL  THA  dflt 
 1 thai 1 PAL  
ContextSub: glyph 0 2 ' RQD' 0 0 0 1
 String: 15 uni0E0D uni0E10
 BString: 0 
 FString: 0 
 1
  SeqLookup: 0 'nds0'
EndFPST
ChainSub: coverage 0 1 'ccmp' 0 0 0 1
 2 0 0
  Coverage: 19 uni0E4B uni0E4B.low
  Coverage: 7 uni0E4D
 2
  SeqLookup: 0 'amni'
  SeqLookup: 1 'G006'
EndFPST
ChainSub: coverage 0 1 'ccmp' 0 0 0 1
 2 0 0
  Coverage: 19 uni0E4A uni0E4A.low
  Coverage: 7 uni0E4D
 2
  SeqLookup: 0 'amni'
  SeqLookup: 1 'G005'
EndFPST
ChainSub: coverage 0 1 'ccmp' 0 0 0 1
 2 0 0
  Coverage: 19 uni0E49 uni0E49.low
  Coverage: 7 uni0E4D
 2
  SeqLookup: 0 'amni'
  SeqLookup: 1 'G004'
EndFPST
ChainSub: coverage 0 1 'ccmp' 0 0 0 1
 2 0 0
  Coverage: 19 uni0E48 uni0E48.low
  Coverage: 7 uni0E4D
 2
  SeqLookup: 0 'amni'
  SeqLookup: 1 'G003'
EndFPST
ChainSub: coverage 0 1 'ccmp' 0 0 0 1
 1 0 1
  Coverage: 15 uni0E0D uni0E10
  FCoverage: 23 uni0E38 uni0E39 uni0E3A
 1
  SeqLookup: 0 'ndsc'
EndFPST
ChainSub: coverage 0 1 'ccmp' 0 0 0 1
 1 2 0
  Coverage: 39 uni0E48 uni0E49 uni0E4A uni0E4B uni0E4C
  BCoverage: 23 uni0E38 uni0E39 uni0E3A

StartChar: .notdef
Encoding: 0 -1 0
OldEncoding: 0
Width: 766
VWidth: 2048
Flags: W
HStem: 0 95<192 671> 1193 95<95 575>
VStem: 95 97<0 1193> 575 96<95 1288>
Fore
95 0 m 1
 95 1288 l 1
 671 1288 l 1
 671 0 l 1
 95 0 l 1
192 95 m 1
 575 95 l 1
 575 1193 l 1
 192 1193 l 1
 192 95 l 1
EndSplineSet
EndChar
StartChar: exclam
Encoding: 33 33 2
OldEncoding: 33
Width: 277
VWidth: 2048
Flags: W
HStem: 0 100<90 192>
VStem: 86 109<557 716>
Fore
113 178 m 1
 86 558 l 1
 86 716 l 1
 195 716 l 1
 195 558 l 1
 170 178 l 1
 113 178 l 1
90 0 m 1
 90 100 l 1
 192 100 l 1
 192 0 l 1
 90 0 l 1
EndSplineSet
EndChar
StartChar: quotedbl
Encoding: 34 34 3
OldEncoding: 34
Width: 354
VWidth: 2048
Flags: W
VStem: 46 100<598 716> 208 100<598 716>
Fore
71 463 m 1
 46 599 l 1
 46 716 l 1
 146 716 l 1
 146 599 l 1
 124 463 l 1
 71 463 l 1
231 463 m 1
 208 599 l 1
 208 716 l 1
 308 716 l 1
 308 599 l 1
 285 463 l 1
 231 463 l 1
EndSplineSet
EndChar
StartChar: numbersign
Encoding: 35 35 4
OldEncoding: 35
Width: 556
VWidth: 2048
Flags: W
HStem: -12 21G<51 124 277 351> 196 72<11 94 181 319 408 544> 446 72<11 144 231 371 460 544> 446 282<201 371 428 544>
Fore
51 -12 m 1xd0
 94 196 l 1
 11 196 l 1
 11 268 l 1
 107 268 l 1
 144 446 l 1
 11 446 l 1
 11 518 l 1
 159 518 l 1xe0
 201 728 l 1
 274 728 l 1xd0
 231 518 l 1
 385 518 l 1xe0
 428 728 l 1
 501 728 l 1xd0
 460 518 l 1
 544 518 l 1
 544 446 l 1xe0
 445 446 l 1
 408 268 l 1
 544 268 l 1
 544 196 l 1
 394 196 l 1
 351 -12 l 1
 277 -12 l 1
 319 196 l 1
 166 196 l 1
 124 -12 l 1
 51 -12 l 1xd0
181 268 m 1
 334 268 l 1
 371 446 l 1xe0
 218 446 l 1xd0
 181 268 l 1
EndSplineSet
EndChar
StartChar: dollar
Encoding: 36 36 5
OldEncoding: 36
Width: 556
VWidth: 2048
Flags: W
VStem: 51 87<536 554> 250 50<-103 -14 60 326 423 667 739 782> 418 92<184 206>
Fore
250 -103 m 1
 250 -15 l 1
 115 2 44 74 35 199 c 1
 124 216 l 1
 136 121 178 69 250 60 c 1
 250 339 l 1
 116 368 51 435 51 541 c 0
 51 599 69 647 106 682 c 0
 141 714 189 734 250 740 c 1
 250 782 l 1
 300 782 l 1
 300 740 l 1
 414 730 477 670 492 564 c 1
 402 550 l 1
 391 616 357 655 300 667 c 1
 300 412 l 1
 440 383 510 314 510 204 c 0
 510 141 490 90 452 51 c 0
 412 11 363 -11 300 -14 c 1
 300 -103 l 1
 250 -103 l 1
250 667 m 1
 204 661 172 639 152 602 c 0
 143 586 138 567 138 547 c 0
 138 487 175 446 250 423 c 1
 250 667 l 1
300 60 m 1
 337 64 365 78 386 104 c 0
 408 130 418 161 418 198 c 0
 418 259 380 302 300 326 c 1
 300 60 l 1
EndSplineSet
EndChar
StartChar: percent
Encoding: 37 37 6
OldEncoding: 37
Width: 889
VWidth: 2048
Flags: W
HStem: -26 60<665 683> 291 62<665 683> 349 62<201 219> 668 60<201 219>
VStem: 58 77<517 551> 288 77<517 567> 521 77<149 183> 751 77<149 183>
Fore
58 544 m 0xbf
 58 618 81 671 127 704 c 0
 150 720 176 728 208 728 c 0
 268 728 313 702 342 648 c 0
 357 621 365 584 365 540 c 0
 365 486 353 443 326 408 c 0
 299 369 261 349 210 349 c 0
 158 349 118 369 92 411 c 0
 69 445 58 489 58 544 c 0xbf
212 668 m 0
 159 668 135 624 135 535 c 0
 135 452 159 411 212 411 c 0
 262 411 288 454 288 543 c 0
 288 625 262 668 212 668 c 0
212 -26 m 1
 604 728 l 1
 674 728 l 1
 285 -26 l 1
 212 -26 l 1
521 169 m 0
 521 244 546 297 593 330 c 0
 615 345 641 353 671 353 c 0xdf
 723 353 763 333 791 294 c 0
 815 261 828 216 828 162 c 0
 828 109 815 66 791 32 c 0
 763 -6 723 -26 673 -26 c 0
 615 -26 572 0 544 55 c 0
 529 84 521 121 521 169 c 0
674 291 m 0
 624 291 598 248 598 159 c 0
 598 77 624 34 674 34 c 0
 725 34 751 78 751 166 c 0
 751 250 727 291 674 291 c 0
EndSplineSet
EndChar
StartChar: ampersand
Encoding: 38 38 7
OldEncoding: 38
Width: 666
VWidth: 2048
Flags: W
HStem: -12 76<256 284> 656 72<294 316>
VStem: 43 95<190 208> 133 91<567 578> 388 90<567 579>
Fore
475 84 m 1xd8
 417 20 349 -12 270 -12 c 0
 184 -12 118 21 75 90 c 0
 54 123 43 159 43 198 c 0xe8
 43 287 100 357 213 412 c 1
 159 474 133 526 133 569 c 0
 133 616 152 655 187 685 c 0
 222 714 262 728 311 728 c 0
 376 728 425 704 455 655 c 0
 471 632 478 605 478 575 c 0
 478 507 432 449 342 402 c 1
 471 238 l 1
 486 267 497 299 504 337 c 1
 596 317 l 1
 581 254 559 204 533 162 c 1
 566 120 602 83 644 54 c 1
 586 -17 l 1
 550 6 513 40 475 84 c 1xd8
296 458 m 1
 357 494 388 532 388 573 c 0
 388 598 380 618 365 633 c 0
 349 648 330 656 307 656 c 0
 282 656 264 648 247 635 c 0
 231 619 224 599 224 576 c 0xd8
 224 553 235 529 258 503 c 2
 296 458 l 1
420 155 m 1
 259 354 l 1
 178 305 138 256 138 202 c 0xe8
 138 166 150 133 176 106 c 0
 202 78 235 64 271 64 c 0
 333 64 382 95 420 155 c 1
EndSplineSet
EndChar
StartChar: quotesingle
Encoding: 39 39 8
OldEncoding: 39
Width: 190
VWidth: 2048
Flags: W
VStem: 44 100<595 716>
Fore
66 463 m 1
 44 596 l 1
 44 716 l 1
 144 716 l 1
 144 596 l 1
 121 463 l 1
 66 463 l 1
EndSplineSet
EndChar
StartChar: parenleft
Encoding: 40 40 9
OldEncoding: 40
Width: 332
VWidth: 2048
Flags: W
VStem: 61 91<259 287>
Fore
235 -210 m 1
 118 -64 61 92 61 259 c 0
 61 418 118 575 235 728 c 1
 297 728 l 1
 199 569 152 412 152 259 c 0
 152 103 199 -54 297 -210 c 1
 235 -210 l 1
EndSplineSet
EndChar
StartChar: parenright
Encoding: 41 41 10
OldEncoding: 41
Width: 332
VWidth: 2048
Flags: W
VStem: 207 90<259 287>
Fore
124 -210 m 1
 61 -210 l 1
 158 -54 207 103 207 259 c 0
 207 371 187 472 147 564 c 0
 129 605 100 661 61 728 c 1
 124 728 l 1
 239 575 297 418 297 259 c 0
 297 94 239 -64 124 -210 c 1
EndSplineSet
EndChar
StartChar: asterisk
Encoding: 42 42 11
OldEncoding: 42
Width: 387
VWidth: 2048
Flags: W
Fore
32 584 m 1
 54 655 l 1
 106 636 144 621 167 607 c 1
 161 665 158 707 158 728 c 1
 227 728 l 1
 227 696 222 656 216 607 c 1
 250 624 288 639 331 655 c 1
 354 584 l 1
 313 572 273 563 233 558 c 1
 253 540 281 509 317 464 c 1
 258 423 l 1
 239 449 216 484 192 529 c 1
 167 483 146 448 127 423 c 1
 69 464 l 1
 107 512 135 543 152 558 c 1
 109 566 69 575 32 584 c 1
EndSplineSet
EndChar
StartChar: plus
Encoding: 43 43 12
OldEncoding: 43
Width: 583
VWidth: 2048
Flags: W
HStem: 313 81<55 251 334 529>
VStem: 251 83<116 313 394 589>
Fore
251 116 m 1
 251 313 l 1
 55 313 l 1
 55 394 l 1
 251 394 l 1
 251 589 l 1
 334 589 l 1
 334 394 l 1
 529 394 l 1
 529 313 l 1
 334 313 l 1
 334 116 l 1
 251 116 l 1
EndSplineSet
EndChar
StartChar: comma
Encoding: 44 44 13
OldEncoding: 44
Width: 277
VWidth: 2048
Flags: W
HStem: -20 20G<89 138>
VStem: 89 101<-1 100>
Fore
89 0 m 1
 89 100 l 1
 190 100 l 1
 190 0 l 2
 190 -71 162 -118 107 -141 c 1
 83 -104 l 1
 118 -89 136 -54 138 0 c 1
 89 0 l 1
EndSplineSet
EndChar
StartChar: hyphen
Encoding: 45 45 14
OldEncoding: 45
Width: 332
VWidth: 2048
Flags: W
HStem: 215 88<32 302>
Fore
32 215 m 1
 32 303 l 1
 302 303 l 1
 302 215 l 1
 32 215 l 1
EndSplineSet
EndChar
StartChar: period
Encoding: 46 46 15
OldEncoding: 46
Width: 277
VWidth: 2048
Flags: W
HStem: 0 100<90 192>
Fore
90 0 m 1
 90 100 l 1
 192 100 l 1
 192 0 l 1
 90 0 l 1
EndSplineSet
EndChar
StartChar: slash
Encoding: 47 47 16
OldEncoding: 47
Width: 277
VWidth: 2048
Flags: W
HStem: -12 21G<0 71>
Fore
0 -12 m 1
 207 728 l 1
 277 728 l 1
 71 -12 l 1
 0 -12 l 1
EndSplineSet
EndChar
StartChar: zero
Encoding: 48 48 17
OldEncoding: 48
Width: 556
VWidth: 2048
Flags: W
HStem: -12 72<276 282> 647 72<264 282>
VStem: 41 91<353 389> 418 91<353 389>
Fore
41 353 m 0
 41 598 120 719 276 719 c 0
 431 719 509 598 509 353 c 0
 509 110 431 -12 276 -12 c 0
 120 -12 41 110 41 353 c 0
132 353 m 0
 132 158 179 60 276 60 c 0
 371 60 418 158 418 353 c 0
 418 549 371 647 274 647 c 0
 179 647 132 549 132 353 c 0
EndSplineSet
EndChar
StartChar: one
Encoding: 49 49 18
OldEncoding: 49
Width: 556
VWidth: 2048
Flags: W
HStem: 0 21G<285 372>
VStem: 285 87<0 719>
Fore
372 0 m 1
 285 0 l 1
 285 561 l 1
 238 515 179 480 109 454 c 1
 109 540 l 1
 212 587 281 647 316 719 c 1
 372 719 l 1
 372 0 l 1
EndSplineSet
EndChar
StartChar: two
Encoding: 50 50 19
OldEncoding: 50
Width: 556
VWidth: 2048
Flags: W
HStem: 0 84<150 501> 647 72<267 290>
VStem: 411 90<510 529>
Fore
501 84 m 1
 501 0 l 1
 28 0 l 1
 28 75 89 164 212 265 c 0
 258 303 290 330 307 348 c 0
 342 382 369 414 386 445 c 0
 402 472 411 498 411 523 c 0
 411 561 397 590 371 613 c 0
 345 636 313 647 276 647 c 0
 231 647 198 633 173 609 c 0
 147 582 135 547 135 503 c 1
 44 512 l 1
 57 650 135 719 277 719 c 0
 340 719 394 702 435 668 c 0
 478 632 501 582 501 520 c 0
 501 466 477 409 428 351 c 0
 403 322 356 279 288 222 c 0
 242 184 218 162 215 159 c 0
 185 133 164 107 150 84 c 1
 501 84 l 1
EndSplineSet
EndChar
StartChar: three
Encoding: 51 51 20
OldEncoding: 51
Width: 556
VWidth: 2048
Flags: W
HStem: -12 72<270 282> 349 66<247 277> 647 72<249.241 282>
VStem: 385 92<517 549> 417 93<190 229>
Fore
41 190 m 1xe8
 130 201 l 1
 149 107 196 60 270 60 c 0
 313 60 348 74 376 103 c 0
 403 132 417 167 417 210 c 0xe8
 417 250 405 284 379 310 c 0
 353 336 319 349 277 349 c 0
 261 349 241 345 216 339 c 1
 225 415 l 1
 247 415 l 2
 258 415 273 417 291 422 c 0
 354 437 385 475 385 535 c 0
 385 569 374 596 353 616 c 0
 331 636 302 647 268 647 c 0
 195 647 152 604 138 518 c 1
 51 533 l 1
 74 658 146 719 267 719 c 0
 325 719 374 704 414 671 c 0
 455 636 477 590 477 533 c 0xf0
 477 466 443 418 377 388 c 1
 466 368 510 308 510 212 c 0
 510 144 487 90 441 49 c 0
 394 8 337 -12 270 -12 c 0
 184 -12 121 18 78 83 c 0
 58 112 46 149 41 190 c 1xe8
EndSplineSet
EndChar
StartChar: four
Encoding: 52 52 21
OldEncoding: 52
Width: 556
VWidth: 2048
Flags: W
HStem: 0 21G<323 412> 172 81<100 323 412 509>
VStem: 323 89<0 172 253 716>
Fore
323 0 m 1
 323 172 l 1
 12 172 l 1
 12 253 l 1
 340 716 l 1
 412 716 l 1
 412 253 l 1
 509 253 l 1
 509 172 l 1
 412 172 l 1
 412 0 l 1
 323 0 l 1
323 253 m 1
 323 575 l 1
 100 253 l 1
 323 253 l 1
EndSplineSet
EndChar
StartChar: five
Encoding: 53 53 22
OldEncoding: 53
Width: 556
VWidth: 2048
Flags: W
HStem: -12 72<271 282> 397 78<270 293> 622 85<127 483>
VStem: 423 94<227 244>
Fore
41 189 m 1
 133 195 l 1
 147 106 193 60 271 60 c 0
 326 60 369 86 400 136 c 0
 415 164 423 196 423 235 c 0
 423 284 409 322 383 353 c 0
 356 383 319 397 270 397 c 0
 213 397 170 374 139 328 c 1
 57 339 l 1
 127 707 l 1
 483 707 l 1
 483 622 l 1
 196 622 l 1
 159 429 l 1
 202 460 247 475 293 475 c 0
 382 475 446 438 487 363 c 0
 507 328 517 288 517 242 c 0
 517 141 477 66 395 20 c 0
 360 -2 319 -12 271 -12 c 0
 208 -12 155 6 115 40 c 0
 72 75 48 126 41 189 c 1
EndSplineSet
EndChar
StartChar: six
Encoding: 54 54 23
OldEncoding: 54
Width: 556
VWidth: 2048
Flags: W
HStem: -12 72<276 301> 386 78<276 301> 647 72<276 301>
VStem: 37 89<336 373> 420 90<211 245>
Fore
498 541 m 1
 411 535 l 1
 394 609 354 647 288 647 c 0
 227 647 182 613 155 547 c 0
 135 500 126 440 126 369 c 1
 167 434 225 464 299 464 c 0
 363 464 414 441 454 394 c 0
 492 351 510 297 510 233 c 0
 510 162 490 104 452 60 c 0
 411 12 356 -12 287 -12 c 0
 121 -12 37 104 37 336 c 0
 37 592 123 719 294 719 c 0
 371 719 428 691 464 638 c 0
 481 612 492 579 498 541 c 1
138 231 m 0
 138 185 150 146 176 113 c 0
 204 78 239 60 285 60 c 0
 328 60 363 78 388 113 c 0
 409 144 420 182 420 227 c 0
 420 293 399 340 354 368 c 0
 334 380 310 386 282 386 c 0
 225 386 184 362 158 314 c 0
 146 290 138 264 138 231 c 0
EndSplineSet
EndChar
StartChar: seven
Encoding: 55 55 24
OldEncoding: 55
Width: 556
VWidth: 2048
Flags: W
HStem: 0 21G<147 238> 622 85<48 399>
Fore
48 622 m 1
 48 707 l 1
 510 707 l 1
 510 639 l 1
 435 558 372 458 322 343 c 0
 273 227 245 112 238 0 c 1
 147 0 l 1
 150 106 175 216 222 331 c 0
 268 443 326 541 399 622 c 1
 48 622 l 1
EndSplineSet
EndChar
StartChar: eight
Encoding: 56 56 25
OldEncoding: 56
Width: 556
VWidth: 2048
Flags: W
HStem: -12 72<263 297> 351 71<263 281> 647 72<276 280>
VStem: 40 90<207 213> 69 90<530 549> 392 91<515 549> 423 89<195 213>
Fore
176 388 m 1xf2
 106 415 69 463 69 535 c 0
 69 602 100 655 159 691 c 0
 192 710 230 719 276 719 c 0
 356 719 415 691 454 633 c 0
 474 605 483 572 483 532 c 0xec
 483 463 448 415 379 388 c 1
 468 359 512 297 512 205 c 0
 512 139 489 86 443 46 c 0
 399 8 343 -12 276 -12 c 0
 208 -12 153 8 109 46 c 0
 63 87 40 141 40 207 c 0
 40 303 86 365 176 388 c 1xf2
159 538 m 0
 159 503 170 475 192 454 c 0
 215 432 242 422 277 422 c 0
 310 422 337 432 360 452 c 0
 382 474 392 500 392 533 c 0
 392 566 382 593 359 615 c 0
 337 636 310 647 276 647 c 0
 244 647 216 636 193 616 c 0
 170 596 159 569 159 538 c 0
130 207 m 0xf2
 130 162 144 127 172 101 c 0
 199 74 235 60 277 60 c 0
 320 60 356 74 382 100 c 0
 409 127 423 161 423 204 c 0
 423 247 409 282 380 310 c 0
 353 337 317 351 274 351 c 0
 221 351 181 328 153 285 c 0
 138 264 130 238 130 207 c 0xf2
EndSplineSet
EndChar
StartChar: nine
Encoding: 57 57 26
OldEncoding: 57
Width: 556
VWidth: 2048
Flags: W
HStem: -12 72<248 276> 242 78<254 276> 647 72<259 282>
VStem: 41 91<467 484> 425 87<290 372>
Fore
55 166 m 1
 139 173 l 1
 153 98 192 60 258 60 c 0
 330 60 380 103 408 190 c 0
 418 224 425 258 425 290 c 2
 425 337 l 1
 385 274 328 242 254 242 c 0
 190 242 138 267 97 313 c 0
 60 357 41 412 41 478 c 0
 41 575 78 645 150 690 c 0
 184 710 222 719 267 719 c 0
 362 719 432 674 478 586 c 0
 501 540 512 469 512 372 c 0
 512 116 428 -12 256 -12 c 0
 184 -12 129 14 92 64 c 0
 72 90 60 124 55 166 c 1
415 481 m 0
 415 527 403 564 380 595 c 0
 356 630 320 647 277 647 c 0
 233 647 198 628 169 593 c 0
 144 559 132 521 132 475 c 0
 132 431 144 395 170 366 c 0
 198 336 233 320 276 320 c 0
 320 320 356 337 380 369 c 0
 403 399 415 437 415 481 c 0
EndSplineSet
EndChar
StartChar: colon
Encoding: 58 58 27
OldEncoding: 58
Width: 277
VWidth: 2048
Flags: W
HStem: 0 100<90 192> 418 100<90 192>
VStem: 90 102<0 100 418 518>
Fore
90 418 m 1
 90 518 l 1
 192 518 l 1
 192 418 l 1
 90 418 l 1
90 0 m 1
 90 100 l 1
 192 100 l 1
 192 0 l 1
 90 0 l 1
EndSplineSet
EndChar
StartChar: semicolon
Encoding: 59 59 28
OldEncoding: 59
Width: 277
VWidth: 2048
Flags: W
HStem: -20 20G<89 138> 418 100<89 190>
VStem: 89 101<-1 100 418 518>
Fore
89 418 m 1
 89 518 l 1
 190 518 l 1
 190 418 l 1
 89 418 l 1
89 0 m 1
 89 100 l 1
 190 100 l 1
 190 0 l 2
 190 -71 162 -118 107 -141 c 1
 83 -104 l 1
 118 -89 136 -54 138 0 c 1
 89 0 l 1
EndSplineSet
EndChar
StartChar: less
Encoding: 60 60 29
OldEncoding: 60
Width: 583
VWidth: 2048
Flags: W
Fore
55 313 m 1
 55 395 l 1
 529 596 l 1
 529 509 l 1
 153 354 l 1
 529 198 l 1
 529 110 l 1
 55 313 l 1
EndSplineSet
EndChar
StartChar: equal
Encoding: 61 61 30
OldEncoding: 61
Width: 583
VWidth: 2048
Flags: W
HStem: 204 83<55 529> 422 81<55 529>
Fore
529 422 m 1
 55 422 l 1
 55 503 l 1
 529 503 l 1
 529 422 l 1
529 204 m 1
 55 204 l 1
 55 287 l 1
 529 287 l 1
 529 204 l 1
EndSplineSet
EndChar
StartChar: greater
Encoding: 62 62 31
OldEncoding: 62
Width: 583
VWidth: 2048
Flags: W
Fore
529 313 m 1
 55 110 l 1
 55 198 l 1
 431 354 l 1
 55 509 l 1
 55 596 l 1
 529 395 l 1
 529 313 l 1
EndSplineSet
EndChar
StartChar: question
Encoding: 63 63 32
OldEncoding: 63
Width: 556
VWidth: 2048
Flags: W
HStem: 0 100<225 325> 656 72<267 285>
VStem: 225 100<0 100> 230 86<176 198.848> 415 91<519 545>
Fore
230 176 m 1xd8
 230 207 l 1
 228 242 236 276 253 308 c 0
 259 323 268 337 279 349 c 1
 313 377 353 418 402 475 c 1
 411 490 415 509 415 527 c 0
 415 575 394 612 349 639 c 0
 328 650 303 656 277 656 c 0
 198 656 150 609 135 510 c 1
 44 521 l 1
 61 659 138 728 276 728 c 0
 368 728 434 697 477 635 c 0
 497 605 506 572 506 533 c 0
 506 490 487 451 451 414 c 0
 414 377 382 342 353 308 c 0
 330 279 317 236 316 176 c 1
 230 176 l 1xd8
225 0 m 1xe8
 225 100 l 1
 325 100 l 1
 325 0 l 1
 225 0 l 1xe8
EndSplineSet
EndChar
StartChar: at
Encoding: 64 64 33
OldEncoding: 64
Width: 1014
VWidth: 2048
Flags: W
HStem: -210 72<517 586> -2 73<417 435> 457 73<485 502> 658 72<517 567>
VStem: 54 73<205 255> 241 90<205 238> 883 73<333 373>
Fore
567 80 m 1
 521 26 471 -2 417 -2 c 0
 362 -2 317 21 285 69 c 0
 254 110 241 161 241 218 c 0
 241 270 253 320 279 371 c 0
 305 425 339 464 382 492 c 0
 420 517 458 530 494 530 c 0
 556 530 605 500 641 440 c 1
 658 515 l 1
 745 515 l 1
 674 189 l 2
 665 144 661 118 661 112 c 0
 661 90 671 80 694 80 c 0
 730 80 769 104 814 155 c 0
 860 205 883 271 883 349 c 0
 883 445 848 521 779 578 c 0
 713 632 632 658 535 658 c 0
 448 658 372 636 307 593 c 0
 242 550 193 490 159 412 c 0
 138 357 127 299 127 238 c 0
 127 72 193 -38 326 -95 c 0
 392 -124 466 -138 547 -138 c 0
 708 -138 823 -89 892 9 c 1
 979 9 l 1
 946 -64 884 -121 797 -159 c 0
 722 -193 639 -210 549 -210 c 0
 346 -210 204 -146 120 -15 c 0
 75 51 54 132 54 228 c 0
 54 372 101 495 193 595 c 0
 277 685 391 730 538 730 c 0
 656 730 754 696 832 628 c 0
 915 558 956 464 956 348 c 0
 956 264 927 187 872 115 c 0
 814 37 743 -2 662 -2 c 0
 601 -2 569 25 567 80 c 1
331 212 m 0
 331 175 339 144 356 118 c 0
 376 86 402 71 435 71 c 0
 489 71 532 100 569 158 c 0
 598 208 613 261 613 317 c 0
 613 356 604 388 586 414 c 0
 566 441 536 457 500 457 c 0
 449 457 406 428 374 369 c 0
 345 319 331 267 331 212 c 0
EndSplineSet
EndChar
StartChar: A
Encoding: 65 65 34
OldEncoding: 65
Width: 666
VWidth: 2048
Flags: W
HStem: 0 21G<-2 100 561 670> 218 76<205 478>
Fore
-2 0 m 1
 274 716 l 1
 376 716 l 1
 670 0 l 1
 561 0 l 1
 478 218 l 1
 178 218 l 1
 100 0 l 1
 -2 0 l 1
205 294 m 1
 448 294 l 1
 374 492 l 2
 349 558 333 607 322 641 c 1
 314 596 300 550 284 504 c 2
 205 294 l 1
EndSplineSet
EndChar
StartChar: B
Encoding: 66 66 35
OldEncoding: 66
Width: 666
VWidth: 2048
Flags: W
HStem: 0 84<169 363> 331 84<169 348> 632 84<74 348>
VStem: 74 95<0 331 0 632> 486 93<519 535> 515 100<207 225>
Fore
74 0 m 1xf4
 74 716 l 1
 342 716 l 2
 408 716 463 702 504 676 c 0
 555 644 579 596 579 533 c 0xf8
 579 464 546 414 478 382 c 1
 569 354 615 297 615 207 c 0
 615 69 526 0 346 0 c 2
 74 0 l 1xf4
169 415 m 1
 323 415 l 2
 394 415 441 429 464 455 c 0
 480 472 486 494 486 521 c 0
 486 579 461 613 412 624 c 0
 388 628 354 632 311 632 c 2
 169 632 l 1
 169 415 l 1
169 84 m 1
 346 84 l 2
 397 84 435 92 461 106 c 0
 498 126 515 159 515 207 c 0xf4
 515 258 497 291 458 311 c 0
 431 323 389 331 334 331 c 2
 169 331 l 1
 169 84 l 1
EndSplineSet
EndChar
StartChar: C
Encoding: 67 67 36
OldEncoding: 67
Width: 721
VWidth: 2048
Flags: W
HStem: -12 81<354 404> 647 81<370 404>
VStem: 51 96<363 389>
Fore
589 251 m 1
 684 227 l 1
 642 67 543 -12 386 -12 c 0
 276 -12 192 23 132 95 c 0
 78 161 51 251 51 363 c 0
 51 472 78 559 136 625 c 0
 196 694 281 728 388 728 c 0
 536 728 630 659 671 520 c 1
 578 498 l 1
 546 598 481 647 386 647 c 0
 305 647 244 619 202 564 c 0
 166 515 147 449 147 363 c 0
 147 279 164 210 198 159 c 0
 238 100 297 69 379 69 c 0
 492 69 563 130 589 251 c 1
EndSplineSet
EndChar
StartChar: D
Encoding: 68 68 37
OldEncoding: 68
Width: 721
VWidth: 2048
Flags: W
HStem: 0 84<172 350> 632 84<77 350>
VStem: 77 95<0 632> 572 98<335 385>
Fore
77 0 m 1
 77 716 l 1
 323 716 l 2
 428 716 504 696 555 658 c 0
 632 596 670 498 670 362 c 0
 670 121 558 0 336 0 c 2
 77 0 l 1
172 84 m 1
 325 84 l 2
 382 84 426 92 458 107 c 0
 498 126 527 158 546 205 c 0
 563 248 572 300 572 363 c 0
 572 451 553 518 518 563 c 0
 483 609 418 632 322 632 c 2
 172 632 l 1
 172 84 l 1
EndSplineSet
EndChar
StartChar: E
Encoding: 69 69 38
OldEncoding: 69
Width: 666
VWidth: 2048
Flags: W
HStem: 0 84<173 613> 328 84<173 570> 632 84<80 598>
VStem: 80 93<0 328 0 632>
Fore
80 0 m 1
 80 716 l 1
 598 716 l 1
 598 632 l 1
 173 632 l 1
 173 412 l 1
 570 412 l 1
 570 328 l 1
 173 328 l 1
 173 84 l 1
 613 84 l 1
 613 0 l 1
 80 0 l 1
EndSplineSet
EndChar
StartChar: F
Encoding: 70 70 39
OldEncoding: 70
Width: 610
VWidth: 2048
Flags: W
HStem: 0 21G<83 176> 325 86<176 512> 632 84<83 566>
VStem: 83 93<0 325 0 632>
Fore
83 0 m 1
 83 716 l 1
 566 716 l 1
 566 632 l 1
 176 632 l 1
 176 411 l 1
 512 411 l 1
 512 325 l 1
 176 325 l 1
 176 0 l 1
 83 0 l 1
EndSplineSet
EndChar
StartChar: G
Encoding: 71 71 40
OldEncoding: 71
Width: 777
VWidth: 2048
Flags: W
HStem: -12 86<389 439> 281 84<412 622> 647 81<412 423>
VStem: 54 98<339 389> 622 94<146 365>
Fore
412 281 m 1
 412 365 l 1
 716 365 l 1
 716 100 l 1
 622 25 523 -12 418 -12 c 0
 303 -12 215 20 153 86 c 0
 86 155 54 245 54 354 c 0
 54 468 84 558 147 625 c 0
 212 694 299 728 412 728 c 0
 573 728 671 658 705 515 c 1
 619 492 l 1
 590 596 521 647 412 647 c 0
 326 647 261 621 215 567 c 0
 172 518 152 449 152 360 c 0
 152 273 173 204 216 153 c 0
 262 100 328 74 414 74 c 0
 497 74 567 98 622 147 c 1
 622 281 l 1
 412 281 l 1
EndSplineSet
EndChar
StartChar: H
Encoding: 72 72 41
OldEncoding: 72
Width: 721
VWidth: 2048
Flags: W
HStem: 337 85<175 547>
VStem: 80 95<0 337 0 716> 547 95<0 716>
Fore
80 0 m 1
 80 716 l 1
 175 716 l 1
 175 422 l 1
 547 422 l 1
 547 716 l 1
 642 716 l 1
 642 0 l 1
 547 0 l 1
 547 337 l 1
 175 337 l 1
 175 0 l 1
 80 0 l 1
EndSplineSet
EndChar
StartChar: I
Encoding: 73 73 42
OldEncoding: 73
Width: 277
VWidth: 2048
Flags: W
HStem: 0 21G<94 189>
VStem: 94 95<0 716>
Fore
94 0 m 1
 94 716 l 1
 189 716 l 1
 189 0 l 1
 94 0 l 1
EndSplineSet
EndChar
StartChar: J
Encoding: 74 74 43
OldEncoding: 74
Width: 499
VWidth: 2048
Flags: W
HStem: -12 84<219 237>
VStem: 325 95<195 716>
Fore
28 204 m 1
 112 215 l 1
 116 120 152 72 219 72 c 0
 274 72 307 95 319 141 c 0
 323 161 325 189 325 224 c 2
 325 716 l 1
 420 716 l 1
 420 228 l 2
 420 67 354 -12 219 -12 c 0
 87 -12 25 60 28 204 c 1
EndSplineSet
EndChar
StartChar: K
Encoding: 75 75 44
OldEncoding: 75
Width: 666
VWidth: 2048
Flags: W
HStem: 0 21G<74 169 541 665>
VStem: 74 95<0 248 0 716>
Fore
74 0 m 1
 74 716 l 1
 169 716 l 1
 169 360 l 1
 524 716 l 1
 651 716 l 1
 351 426 l 1
 665 0 l 1
 541 0 l 1
 285 362 l 1
 169 248 l 1
 169 0 l 1
 74 0 l 1
EndSplineSet
EndChar
StartChar: L
Encoding: 76 76 45
OldEncoding: 76
Width: 556
VWidth: 2048
Flags: W
HStem: 0 84<168 521>
VStem: 74 95<0 716>
Fore
74 0 m 1
 74 716 l 1
 169 716 l 1
 169 84 l 1
 521 84 l 1
 521 0 l 1
 74 0 l 1
EndSplineSet
EndChar
StartChar: M
Encoding: 77 77 46
OldEncoding: 77
Width: 832
VWidth: 2048
Flags: W
HStem: 0 21G<74 166 372 458 667 757>
VStem: 74 92<0 610> 667 90<0 716>
Fore
74 0 m 1
 74 716 l 1
 218 716 l 1
 420 103 l 1
 458 218 l 1
 630 716 l 1
 757 716 l 1
 757 0 l 1
 667 0 l 1
 667 599 l 1
 458 0 l 1
 372 0 l 1
 166 610 l 1
 166 0 l 1
 74 0 l 1
EndSplineSet
EndChar
StartChar: N
Encoding: 78 78 47
OldEncoding: 78
Width: 721
VWidth: 2048
Flags: W
HStem: 0 21G<77 167 543 641>
VStem: 77 90<0 563> 549 92<155 716>
Fore
77 0 m 1
 77 716 l 1
 173 716 l 1
 549 155 l 1
 549 716 l 1
 641 716 l 1
 641 0 l 1
 543 0 l 1
 167 563 l 1
 167 0 l 1
 77 0 l 1
EndSplineSet
EndChar
StartChar: O
Encoding: 79 79 48
OldEncoding: 79
Width: 777
VWidth: 2048
Flags: W
HStem: -12 81<391 402> 647 83<368 402>
VStem: 49 97<323 373> 636 98<357 389>
Fore
49 349 m 0
 49 500 100 609 202 677 c 0
 253 711 317 730 391 730 c 0
 492 730 573 694 638 627 c 0
 702 559 734 469 734 357 c 0
 734 204 679 95 569 34 c 0
 513 3 455 -12 391 -12 c 0
 326 -12 267 3 215 34 c 0
 159 66 118 110 90 167 c 0
 63 224 49 284 49 349 c 0
146 348 m 0
 146 233 185 152 264 103 c 0
 299 80 342 69 391 69 c 0
 471 69 533 98 576 156 c 0
 616 207 636 274 636 357 c 0
 636 478 598 563 521 613 c 0
 484 636 441 647 392 647 c 0
 313 647 251 621 208 569 c 0
 167 517 146 441 146 348 c 0
EndSplineSet
EndChar
StartChar: P
Encoding: 80 80 49
OldEncoding: 80
Width: 666
VWidth: 2048
Flags: W
HStem: 0 21G<77 172> 291 85<172 382> 632 84<77 382>
VStem: 77 95<0 291 0 632> 526 98<495 513>
Fore
77 0 m 1
 77 716 l 1
 348 716 l 2
 435 716 498 704 538 681 c 0
 595 645 624 587 624 509 c 0
 624 363 535 291 356 291 c 2
 172 291 l 1
 172 0 l 1
 77 0 l 1
172 376 m 1
 357 376 l 2
 469 376 526 418 526 506 c 0
 526 547 515 578 492 599 c 0
 471 621 425 632 356 632 c 2
 172 632 l 1
 172 376 l 1
EndSplineSet
EndChar
StartChar: Q
Encoding: 81 81 50
OldEncoding: 81
Width: 777
VWidth: 2048
Flags: W
HStem: -12 81<362 396> 647 83<386 412>
VStem: 43 98<359 378> 630 98<359 378>
Fore
619 77 m 1
 664 46 705 25 742 11 c 1
 714 -55 l 1
 662 -37 612 -8 559 32 c 1
 507 3 448 -12 383 -12 c 0
 279 -12 195 25 132 95 c 0
 72 164 43 251 43 359 c 0
 43 468 72 556 132 624 c 0
 193 694 279 730 386 730 c 0
 521 730 618 676 679 572 c 0
 713 517 728 446 728 359 c 0
 728 241 691 146 619 77 c 1
412 198 m 1
 466 182 510 159 546 129 c 1
 602 181 630 256 630 359 c 0
 630 441 610 509 572 561 c 0
 527 618 466 647 386 647 c 0
 284 647 212 602 170 513 c 0
 150 471 141 418 141 359 c 0
 141 276 161 207 199 156 c 0
 244 98 305 69 386 69 c 0
 420 69 452 75 481 89 c 1
 452 107 422 121 388 129 c 1
 412 198 l 1
EndSplineSet
EndChar
StartChar: R
Encoding: 82 82 51
OldEncoding: 82
Width: 721
VWidth: 2048
Flags: W
HStem: 0 21G<78 173 590 710> 319 81<173 303> 638 78<78 415>
VStem: 78 95<0 319 0 638> 553 98<521 529>
Fore
78 0 m 1
 78 716 l 1
 395 716 l 2
 458 716 504 711 535 700 c 0
 576 685 610 655 633 609 c 0
 645 584 651 555 651 521 c 0
 651 409 584 343 449 325 c 1
 498 305 543 261 586 195 c 2
 710 0 l 1
 590 0 l 1
 497 149 l 2
 475 182 458 207 448 224 c 0
 426 251 405 274 386 288 c 0
 362 308 326 319 284 319 c 2
 173 319 l 1
 173 0 l 1
 78 0 l 1
173 400 m 1
 377 400 l 2
 495 400 553 440 553 521 c 0
 553 598 503 638 400 638 c 2
 173 638 l 1
 173 400 l 1
EndSplineSet
EndChar
StartChar: S
Encoding: 83 83 52
OldEncoding: 83
Width: 666
VWidth: 2048
Flags: W
HStem: -12 84<321 365> 645 83<299 353>
VStem: 72 92<530 549> 524 91<179 204>
Fore
44 230 m 1
 135 238 l 1
 149 127 219 72 346 72 c 0
 392 72 431 81 463 98 c 0
 504 120 524 152 524 195 c 0
 524 242 497 276 441 296 c 0
 415 305 371 317 305 331 c 0
 204 356 136 389 103 432 c 0
 83 460 72 494 72 532 c 0
 72 613 112 670 192 704 c 0
 230 720 274 728 323 728 c 0
 400 728 461 711 509 679 c 0
 561 642 590 587 593 513 c 1
 503 507 l 1
 494 599 435 645 328 645 c 0
 219 645 164 609 164 538 c 0
 164 495 189 466 236 449 c 0
 258 441 290 432 334 423 c 0
 392 409 434 399 455 391 c 0
 501 376 538 356 563 331 c 0
 598 297 615 254 615 202 c 0
 615 133 587 80 532 40 c 0
 483 5 422 -12 351 -12 c 0
 264 -12 193 6 141 43 c 0
 80 84 49 147 44 230 c 1
EndSplineSet
EndChar
StartChar: T
Encoding: 84 84 53
OldEncoding: 84
Width: 610
VWidth: 2048
Flags: W
HStem: 0 21G<259 354> 632 84<23 259 23 592>
VStem: 259 95<0 632>
Fore
259 0 m 1
 259 632 l 1
 23 632 l 1
 23 716 l 1
 592 716 l 1
 592 632 l 1
 354 632 l 1
 354 0 l 1
 259 0 l 1
EndSplineSet
EndChar
StartChar: U
Encoding: 85 85 54
OldEncoding: 85
Width: 721
VWidth: 2048
Flags: W
HStem: -12 86<333 383>
VStem: 78 95<275 716> 547 95<275 716>
Fore
547 716 m 1
 642 716 l 1
 642 302 l 2
 642 185 618 103 569 55 c 0
 521 11 454 -12 362 -12 c 0
 258 -12 184 15 139 67 c 0
 98 116 78 195 78 302 c 2
 78 716 l 1
 173 716 l 1
 173 303 l 2
 173 213 190 152 221 120 c 0
 251 89 296 74 354 74 c 0
 440 74 497 100 524 155 c 0
 540 184 547 235 547 303 c 2
 547 716 l 1
EndSplineSet
EndChar
StartChar: V
Encoding: 86 86 55
OldEncoding: 86
Width: 666
VWidth: 2048
Flags: W
HStem: 0 21G<282 380>
Fore
282 0 m 1
 5 716 l 1
 107 716 l 1
 293 196 l 1
 307 158 319 118 331 78 c 1
 339 110 353 150 369 196 c 2
 563 716 l 1
 659 716 l 1
 380 0 l 1
 282 0 l 1
EndSplineSet
EndChar
StartChar: W
Encoding: 87 87 56
OldEncoding: 87
Width: 944
VWidth: 2048
Flags: W
HStem: 0 21G<202 299 645 736>
Fore
202 0 m 1
 12 716 l 1
 109 716 l 1
 219 247 l 1
 230 196 241 147 248 100 c 1
 281 233 l 1
 417 716 l 1
 532 716 l 1
 635 354 l 2
 661 259 679 175 690 100 c 1
 699 147 711 199 725 256 c 2
 838 716 l 1
 933 716 l 1
 736 0 l 1
 645 0 l 1
 472 630 l 1
 469 613 461 586 451 546 c 1
 299 0 l 1
 202 0 l 1
EndSplineSet
EndChar
StartChar: X
Encoding: 88 88 57
OldEncoding: 88
Width: 666
VWidth: 2048
Flags: W
HStem: 0 21G<5 118 544 661>
Fore
5 0 m 1
 282 374 l 1
 37 716 l 1
 150 716 l 1
 281 533 l 2
 307 495 326 466 337 445 c 1
 349 464 368 492 394 526 c 2
 538 716 l 5
 641 716 l 1
 389 379 l 1
 661 0 l 1
 544 0 l 1
 363 256 l 2
 356 267 345 284 333 303 c 1
 320 282 308 265 297 250 c 2
 118 0 l 1
 5 0 l 1
EndSplineSet
EndChar
StartChar: Y
Encoding: 89 89 58
OldEncoding: 89
Width: 666
VWidth: 2048
Flags: W
HStem: 0 21G<279 374>
VStem: 279 95<0 303>
Fore
279 0 m 1
 279 303 l 1
 3 716 l 1
 118 716 l 1
 259 500 l 2
 284 463 308 423 333 380 c 1
 362 429 388 472 411 506 c 2
 549 716 l 1
 659 716 l 1
 374 303 l 1
 374 0 l 1
 279 0 l 1
EndSplineSet
EndChar
StartChar: Z
Encoding: 90 90 59
OldEncoding: 90
Width: 610
VWidth: 2048
Flags: W
HStem: 0 84<129 586> 632 84<61 461>
Fore
20 0 m 1
 20 89 l 1
 386 546 l 2
 415 581 440 610 461 632 c 1
 61 632 l 1
 61 716 l 1
 575 716 l 1
 575 632 l 1
 129 84 l 1
 586 84 l 1
 586 0 l 1
 20 0 l 1
EndSplineSet
EndChar
StartChar: bracketleft
Encoding: 91 91 60
OldEncoding: 91
Width: 277
VWidth: 2048
Flags: W
HStem: -199 73<156 262> 644 72<67 262>
VStem: 67 89<-199 644>
Fore
67 -199 m 1
 67 716 l 1
 262 716 l 1
 262 644 l 1
 156 644 l 1
 156 -126 l 1
 262 -126 l 1
 262 -199 l 1
 67 -199 l 1
EndSplineSet
EndChar
StartChar: backslash
Encoding: 92 92 61
OldEncoding: 92
Width: 277
VWidth: 2048
Flags: W
HStem: -12 21G<207 277>
Fore
207 -12 m 1
 0 728 l 1
 71 728 l 1
 277 -12 l 1
 207 -12 l 1
EndSplineSet
EndChar
StartChar: bracketright
Encoding: 93 93 62
OldEncoding: 93
Width: 277
VWidth: 2048
Flags: W
HStem: -199 73<18 213> 644 72<18 126>
VStem: 126 87<-126 716>
Fore
213 -199 m 1
 18 -199 l 1
 18 -126 l 1
 126 -126 l 1
 126 644 l 1
 18 644 l 1
 18 716 l 1
 213 716 l 1
 213 -199 l 1
EndSplineSet
EndChar
StartChar: asciicircum
Encoding: 94 94 63
OldEncoding: 94
Width: 469
VWidth: 2048
Flags: W
Fore
116 337 m 1
 26 337 l 1
 199 728 l 1
 270 728 l 1
 443 337 l 1
 354 337 l 1
 235 628 l 1
 116 337 l 1
EndSplineSet
EndChar
StartChar: underscore
Encoding: 95 95 64
OldEncoding: 95
Width: 556
VWidth: 2048
Flags: W
HStem: -199 64<-15 569>
Fore
-15 -199 m 1
 -15 -135 l 1
 569 -135 l 1
 569 -199 l 1
 -15 -199 l 1
EndSplineSet
EndChar
StartChar: grave
Encoding: 96 96 65
OldEncoding: 96
Width: 332
VWidth: 2048
Flags: W
HStem: 582 138<43 227>
Fore
227 582 m 1
 156 582 l 1
 43 720 l 1
 161 720 l 1
 227 582 l 1
EndSplineSet
EndChar
StartChar: a
Encoding: 97 97 66
OldEncoding: 97
Width: 556
VWidth: 2048
Flags: W
HStem: -12 69<213 235> 458 72<254 292>
VStem: 35 95<131 149> 397 89<211 361>
Fore
405 64 m 1
 345 14 281 -12 213 -12 c 0
 162 -12 121 0 90 25 c 0
 54 51 35 87 35 136 c 0
 35 192 61 235 110 264 c 0
 136 281 179 291 241 299 c 0
 313 308 365 319 397 330 c 1
 397 353 l 2
 397 423 356 458 273 458 c 0
 233 458 202 451 182 437 c 0
 162 423 147 397 136 359 c 1
 52 371 l 1
 74 477 152 530 285 530 c 0
 360 530 414 515 448 483 c 0
 474 457 486 408 486 334 c 2
 486 106 l 2
 486 69 495 34 513 0 c 1
 422 0 l 1
 414 18 408 40 405 64 c 1
397 261 m 1
 366 248 319 238 254 227 c 0
 172 216 130 185 130 139 c 0
 130 84 166 57 235 57 c 0
 284 57 323 69 351 95 c 0
 382 124 397 169 397 228 c 2
 397 261 l 1
EndSplineSet
EndChar
StartChar: b
Encoding: 98 98 67
OldEncoding: 98
Width: 556
VWidth: 2048
Flags: W
HStem: -12 73<271 298> 458 72<282 305>
VStem: 64 83<0 64 0 277> 426 89<243 277>
Fore
147 0 m 1
 64 0 l 1
 64 716 l 1
 153 716 l 1
 153 461 l 1
 190 507 238 530 296 530 c 0
 385 530 449 489 487 408 c 0
 506 368 515 320 515 267 c 0
 515 192 498 127 461 75 c 0
 422 17 363 -12 291 -12 c 0
 230 -12 181 14 147 64 c 1
 147 0 l 1
146 264 m 0
 146 173 169 113 212 83 c 0
 233 67 258 61 284 61 c 0
 333 61 369 83 394 127 c 0
 415 164 426 208 426 259 c 0
 426 342 405 402 362 435 c 0
 340 451 317 458 288 458 c 0
 241 458 204 437 178 394 c 0
 156 359 146 314 146 264 c 0
EndSplineSet
EndChar
StartChar: c
Encoding: 99 99 68
OldEncoding: 99
Width: 499
VWidth: 2048
Flags: W
HStem: -12 73<261 282> 458 72<261 295>
VStem: 38 91<227 277>
Fore
405 190 m 1
 490 179 l 1
 481 121 458 74 420 40 c 0
 382 5 334 -12 276 -12 c 0
 198 -12 138 14 97 66 c 0
 58 113 38 178 38 258 c 0
 38 377 77 458 152 500 c 0
 189 520 230 530 276 530 c 0
 392 530 461 477 483 366 c 1
 397 353 l 1
 382 423 342 458 279 458 c 0
 179 458 129 392 129 259 c 0
 129 127 178 61 274 61 c 0
 349 61 392 104 405 190 c 1
EndSplineSet
EndChar
StartChar: d
Encoding: 100 100 69
OldEncoding: 100
Width: 556
VWidth: 2048
Flags: W
HStem: -12 73<252 275> 458 72<252 275>
VStem: 34 90<259 277> 397 87<460 716>
Fore
403 0 m 1
 403 64 l 1
 369 14 322 -12 258 -12 c 0
 185 -12 130 17 89 72 c 0
 52 123 34 184 34 259 c 0
 34 372 69 452 138 498 c 0
 170 520 208 530 254 530 c 0
 314 530 362 507 397 460 c 1
 397 716 l 1
 484 716 l 1
 484 0 l 1
 403 0 l 1
124 259 m 0
 124 178 146 120 190 86 c 0
 212 69 236 61 265 61 c 0
 314 61 349 81 374 124 c 0
 394 158 405 201 405 251 c 0
 405 308 394 353 376 389 c 0
 351 435 313 458 262 458 c 0
 170 458 124 392 124 259 c 0
EndSplineSet
EndChar
StartChar: e
Encoding: 101 101 70
OldEncoding: 101
Width: 556
VWidth: 2048
Flags: W
HStem: -12 73<276 294> 238 72<132 513> 458 72<261.792 294>
Fore
422 167 m 1
 512 156 l 1
 481 44 406 -12 284 -12 c 0
 179 -12 107 29 66 112 c 0
 46 150 37 199 37 256 c 0
 37 336 57 400 97 451 c 0
 139 504 201 530 279 530 c 0
 345 530 399 510 438 472 c 0
 460 451 478 425 490 397 c 0
 503 368 510 334 513 296 c 0
 513 290 513 271 513 238 c 1
 127 238 l 1
 130 187 144 146 169 113 c 0
 198 78 236 61 285 61 c 0
 351 61 395 97 422 167 c 1
132 310 m 1
 422 310 l 1
 414 408 366 458 281 458 c 0
 238 458 202 443 175 415 c 0
 150 388 135 353 132 310 c 1
EndSplineSet
EndChar
StartChar: f
Encoding: 102 102 71
OldEncoding: 102
Width: 277
VWidth: 2048
Flags: W
HStem: 0 21G<87 175> 451 67<9 87 175 276> 648 80<229 250>
VStem: 87 88<0 451 518 577>
Fore
87 0 m 1
 87 451 l 1
 9 451 l 1
 9 518 l 1
 87 518 l 1
 87 575 l 2
 87 630 98 668 123 693 c 0
 146 716 182 728 230 728 c 0
 256 728 284 725 313 720 c 1
 299 642 l 1
 282 647 264 648 248 648 c 0
 219 648 199 642 190 630 c 0
 179 618 175 596 175 567 c 2
 175 518 l 1
 276 518 l 1
 276 451 l 1
 175 451 l 1
 175 0 l 1
 87 0 l 1
EndSplineSet
EndChar
StartChar: g
Encoding: 103 103 72
OldEncoding: 103
Width: 556
VWidth: 2048
Flags: W
HStem: -210 72<239 273> 0 72<252 273> 458 72<252 273>
VStem: 32 91<237 287> 408 81<253 518>
Fore
51 -43 m 1
 135 -55 l 1
 143 -110 182 -138 254 -138 c 0
 308 -138 346 -123 371 -94 c 0
 391 -67 400 -14 400 67 c 1
 362 23 314 0 256 0 c 0
 185 0 129 28 87 81 c 0
 51 129 32 190 32 262 c 0
 32 339 51 400 86 449 c 0
 127 503 184 530 256 530 c 0
 319 530 369 506 409 457 c 1
 409 518 l 1
 489 518 l 1
 489 71 l 2
 489 -37 471 -110 431 -150 c 0
 392 -190 334 -210 256 -210 c 0
 195 -210 147 -198 110 -173 c 0
 69 -144 49 -101 51 -43 c 1
123 268 m 0
 123 138 170 72 265 72 c 0
 314 72 353 94 377 135 c 0
 397 169 408 213 408 265 c 0
 408 317 397 362 376 395 c 0
 349 437 313 458 264 458 c 0
 216 458 179 437 155 397 c 0
 133 362 123 319 123 268 c 0
EndSplineSet
EndChar
StartChar: h
Encoding: 104 104 73
OldEncoding: 104
Width: 556
VWidth: 2048
Flags: W
HStem: 0 21G<66 155 400 489> 455 75<289 310>
VStem: 66 89<0 305 0 716> 400 89<0 337>
Fore
66 0 m 1
 66 716 l 1
 155 716 l 1
 155 460 l 1
 195 507 247 530 310 530 c 0
 400 530 455 498 475 434 c 0
 484 405 489 369 489 328 c 2
 489 0 l 1
 400 0 l 1
 400 328 l 2
 400 412 363 455 291 455 c 0
 224 455 182 428 166 372 c 0
 158 348 155 319 155 284 c 2
 155 0 l 1
 66 0 l 1
EndSplineSet
EndChar
StartChar: i
Encoding: 105 105 74
OldEncoding: 105
Width: 222
VWidth: 2048
Flags: W
HStem: 0 21G<66 155>
VStem: 66 89<0 518 615 716>
Fore
66 615 m 1
 66 716 l 1
 155 716 l 1
 155 615 l 1
 66 615 l 1
66 0 m 1
 66 518 l 1
 155 518 l 1
 155 0 l 1
 66 0 l 1
EndSplineSet
EndChar
StartChar: j
Encoding: 106 106 75
OldEncoding: 106
Width: 222
VWidth: 2048
Flags: W
HStem: -210 77<1 25>
VStem: 64 89<-51 518 615 716>
Fore
64 615 m 1
 64 716 l 1
 153 716 l 1
 153 615 l 1
 64 615 l 1
-46 -201 m 1
 -29 -127 l 1
 -12 -130 2 -133 12 -133 c 0
 41 -133 58 -118 63 -87 c 0
 64 -74 64 -54 64 -26 c 2
 64 518 l 1
 153 518 l 1
 153 -29 l 2
 153 -112 136 -166 101 -190 c 0
 81 -204 55 -210 23 -210 c 0
 0 -210 -23 -207 -46 -201 c 1
EndSplineSet
EndChar
StartChar: k
Encoding: 107 107 76
OldEncoding: 107
Width: 499
VWidth: 2048
Flags: W
HStem: 0 21G<66 155 388 497>
VStem: 66 89<0 205 0 716>
Fore
66 0 m 1
 66 716 l 1
 155 716 l 1
 155 308 l 1
 362 518 l 1
 477 518 l 1
 277 326 l 1
 497 0 l 1
 388 0 l 1
 216 265 l 1
 155 205 l 1
 155 0 l 1
 66 0 l 1
EndSplineSet
EndChar
StartChar: l
Encoding: 108 108 77
OldEncoding: 108
Width: 222
VWidth: 2048
Flags: W
HStem: 0 21G<64 152>
VStem: 64 88<0 716>
Fore
64 0 m 1
 64 716 l 1
 152 716 l 1
 152 0 l 1
 64 0 l 1
EndSplineSet
EndChar
StartChar: m
Encoding: 109 109 78
OldEncoding: 109
Width: 832
VWidth: 2048
Flags: W
HStem: 0 21G<66 155 374 463 682 769> 454 76<280 302 588 609>
VStem: 66 78<0 518> 66 89<0 304> 374 89<0 328> 682 87<0 356>
Fore
66 0 m 1xec
 66 518 l 1
 144 518 l 1
 144 446 l 1xec
 181 503 233 530 302 530 c 0
 379 530 426 500 448 440 c 1
 489 500 543 530 609 530 c 0
 716 530 769 472 769 356 c 2
 769 0 l 1
 682 0 l 1
 682 326 l 2
 682 412 651 454 589 454 c 0
 504 454 463 403 463 302 c 2
 463 0 l 1
 374 0 l 1
 374 337 l 2
 374 415 343 454 282 454 c 0
 225 454 187 429 169 379 c 0
 159 353 155 316 155 270 c 2
 155 0 l 1xdc
 66 0 l 1xec
EndSplineSet
EndChar
StartChar: n
Encoding: 110 110 79
OldEncoding: 110
Width: 556
VWidth: 2048
Flags: W
HStem: 0 21G<66 155 400 487> 454 76<289 311>
VStem: 66 80<0 518> 66 89<0 305> 400 87<0 342>
Fore
66 0 m 1xe8
 66 518 l 1
 146 518 l 1
 146 446 l 1xe8
 182 503 238 530 311 530 c 0
 428 530 487 468 487 342 c 2
 487 0 l 1
 400 0 l 1
 400 316 l 2
 400 408 363 454 291 454 c 0
 201 454 155 397 155 284 c 2
 155 0 l 1xd8
 66 0 l 1xe8
EndSplineSet
EndChar
StartChar: o
Encoding: 111 111 80
OldEncoding: 111
Width: 556
VWidth: 2048
Flags: W
HStem: -12 73<256.696 289> 458 72<256.546 289>
VStem: 32 92<259 277> 429 91<243 277>
Fore
32 259 m 0
 32 340 54 405 94 452 c 0
 136 504 198 530 276 530 c 0
 369 530 440 492 484 415 c 0
 507 376 520 326 520 267 c 0
 520 184 500 118 460 69 c 0
 417 15 356 -12 276 -12 c 0
 175 -12 103 31 63 113 c 0
 43 155 32 202 32 259 c 0
124 259 m 0
 124 175 147 116 195 84 c 0
 218 69 244 61 276 61 c 0
 330 61 369 81 395 124 c 0
 418 159 429 205 429 262 c 0
 429 317 417 362 394 397 c 0
 368 437 328 458 276 458 c 0
 224 458 184 437 158 395 c 0
 135 362 124 316 124 259 c 0
EndSplineSet
EndChar
StartChar: p
Encoding: 112 112 81
OldEncoding: 112
Width: 556
VWidth: 2048
Flags: W
HStem: -12 73<273 298> 461 69<283 298>
VStem: 66 80<-199 282 -199 518> 66 89<-199 54> 426 91<264 282>
Fore
66 -199 m 1xe8
 66 518 l 1
 146 518 l 1
 146 451 l 1xe8
 184 504 235 530 296 530 c 0
 369 530 425 503 464 449 c 0
 500 400 517 339 517 264 c 0
 517 189 498 126 461 74 c 0
 420 17 363 -12 290 -12 c 0
 235 -12 189 11 155 54 c 1
 155 -199 l 1xd8
 66 -199 l 1xe8
146 256 m 0
 146 175 167 116 210 84 c 0
 230 69 254 61 285 61 c 0
 334 61 372 83 397 129 c 0
 417 164 426 210 426 264 c 0
 426 316 417 359 397 395 c 0
 372 440 336 461 288 461 c 0
 241 461 204 438 178 392 c 0
 156 354 146 310 146 256 c 0
EndSplineSet
EndChar
StartChar: q
Encoding: 113 113 82
OldEncoding: 113
Width: 556
VWidth: 2048
Flags: W
HStem: -12 73<252 276> 461 69<252 276>
VStem: 35 91<248 282> 397 87<-199 518> 406 78<232 518>
Fore
397 -199 m 1xf0
 397 55 l 1xf0
 365 11 319 -12 261 -12 c 0
 193 -12 138 15 97 67 c 0
 55 121 35 187 35 264 c 0
 35 339 52 400 87 449 c 0
 126 503 181 530 254 530 c 0
 319 530 369 504 406 449 c 1
 406 518 l 1xe8
 484 518 l 1
 484 -199 l 1
 397 -199 l 1xf0
126 261 m 0
 126 178 147 120 192 86 c 0
 213 69 239 61 268 61 c 0
 316 61 351 81 376 124 c 0
 395 159 406 202 406 253 c 0xe8
 406 307 395 353 376 389 c 0
 349 437 313 461 262 461 c 0
 213 461 178 438 155 394 c 0
 135 359 126 314 126 261 c 0
EndSplineSet
EndChar
StartChar: r
Encoding: 114 114 83
OldEncoding: 114
Width: 332
VWidth: 2048
Flags: W
HStem: 0 21G<64 153> 440 90<251 258>
VStem: 64 80<0 518> 64 89<0 289>
Fore
64 0 m 1xe0
 64 518 l 1
 144 518 l 1
 144 440 l 1xe0
 178 500 215 530 256 530 c 0
 287 530 316 521 346 503 c 1
 317 420 l 1
 296 434 274 440 253 440 c 0
 207 440 178 414 164 360 c 0
 156 331 153 302 153 271 c 2
 153 0 l 1xd0
 64 0 l 1xe0
EndSplineSet
EndChar
StartChar: s
Encoding: 115 115 84
OldEncoding: 115
Width: 499
VWidth: 2048
Flags: W
HStem: -12 73<253 272> 458 72<222 259>
VStem: 46 84<380 393> 371 90<141 153>
Fore
31 155 m 1
 118 169 l 1
 127 97 173 61 253 61 c 0
 331 61 371 87 371 143 c 0
 371 167 357 185 330 199 c 0
 320 202 296 210 256 221 c 0
 210 231 184 238 176 241 c 0
 146 250 121 261 103 274 c 0
 64 300 46 337 46 382 c 0
 46 437 72 480 127 509 c 0
 155 523 192 530 236 530 c 0
 320 530 377 510 409 469 c 0
 426 448 437 420 443 385 c 1
 356 374 l 1
 348 429 310 458 242 458 c 0
 167 458 130 435 130 391 c 0
 130 366 143 349 167 340 c 0
 181 334 208 326 253 314 c 0
 284 307 316 297 346 288 c 1
 383 276 411 261 429 241 c 0
 451 216 461 187 461 153 c 0
 461 98 440 57 395 28 c 0
 356 2 308 -12 253 -12 c 0
 124 -12 51 43 31 155 c 1
EndSplineSet
EndChar
StartChar: t
Encoding: 116 116 85
OldEncoding: 116
Width: 277
VWidth: 2048
Flags: W
HStem: -6 81<204 227> 451 67<18 83 170 258>
VStem: 83 87<137 451 518 700>
Fore
258 78 m 1
 271 0 l 1
 245 -5 224 -6 204 -6 c 0
 149 -6 113 9 95 43 c 0
 87 60 83 95 83 152 c 2
 83 451 l 1
 18 451 l 1
 18 518 l 1
 83 518 l 1
 83 647 l 1
 170 700 l 1
 170 518 l 1
 258 518 l 1
 258 451 l 1
 170 451 l 1
 170 147 l 2
 170 110 176 87 190 81 c 0
 198 78 207 75 219 75 c 0
 230 75 242 77 258 78 c 1
EndSplineSet
EndChar
StartChar: u
Encoding: 117 117 86
OldEncoding: 117
Width: 556
VWidth: 2048
Flags: W
HStem: -12 76<241 261>
VStem: 64 88<195 517> 406 78<0 518>
Fore
406 0 m 1
 406 77 l 1
 366 17 311 -12 241 -12 c 0
 178 -12 130 6 101 41 c 0
 77 74 64 124 64 198 c 2
 64 518 l 1
 152 518 l 1
 152 231 l 2
 152 164 159 120 175 100 c 0
 193 77 221 64 259 64 c 0
 328 64 371 92 386 149 c 0
 394 173 397 204 397 241 c 2
 397 518 l 1
 484 518 l 1
 484 0 l 1
 406 0 l 1
EndSplineSet
EndChar
StartChar: v
Encoding: 118 118 87
OldEncoding: 118
Width: 499
VWidth: 2048
Flags: W
HStem: 0 21G<210 291>
Fore
210 0 m 1
 12 518 l 1
 106 518 l 1
 218 208 l 2
 228 175 241 139 250 103 c 1
 258 130 268 164 284 202 c 2
 399 518 l 1
 489 518 l 1
 291 0 l 1
 210 0 l 1
EndSplineSet
EndChar
StartChar: w
Encoding: 119 119 88
OldEncoding: 119
Width: 721
VWidth: 2048
Flags: W
HStem: 0 21G<161 254 461 552>
Fore
161 0 m 1
 3 518 l 1
 94 518 l 1
 207 107 l 1
 212 130 221 166 235 215 c 2
 317 518 l 1
 408 518 l 1
 510 120 l 1
 630 518 l 1
 714 518 l 1
 552 0 l 1
 461 0 l 1
 359 399 l 1
 254 0 l 1
 161 0 l 1
EndSplineSet
EndChar
StartChar: x
Encoding: 120 120 89
OldEncoding: 120
Width: 499
VWidth: 2048
Flags: W
HStem: 0 21G<8 113 385 494>
Fore
8 0 m 1
 196 270 l 1
 21 518 l 1
 132 518 l 1
 212 397 l 2
 224 377 236 357 247 339 c 1
 256 353 268 371 287 395 c 2
 374 518 l 1
 478 518 l 1
 300 274 l 1
 494 0 l 1
 385 0 l 1
 250 205 l 1
 113 0 l 1
 8 0 l 1
EndSplineSet
EndChar
StartChar: y
Encoding: 121 121 90
OldEncoding: 121
Width: 499
VWidth: 2048
Flags: W
HStem: -210 84<102 120>
Fore
63 -199 m 1
 52 -118 l 1
 72 -123 87 -126 103 -126 c 0
 143 -126 169 -110 182 -83 c 0
 187 -71 198 -44 212 -5 c 1
 213 0 l 1
 17 518 l 1
 110 518 l 1
 219 219 l 2
 235 175 247 135 256 98 c 1
 267 138 277 176 293 216 c 2
 403 518 l 1
 492 518 l 1
 294 -9 l 2
 276 -60 262 -92 256 -106 c 0
 238 -143 218 -170 196 -185 c 0
 173 -202 149 -210 120 -210 c 0
 103 -210 83 -207 63 -199 c 1
EndSplineSet
EndChar
StartChar: z
Encoding: 122 122 91
OldEncoding: 122
Width: 499
VWidth: 2048
Flags: W
HStem: 0 75<195 478> 448 70<38 293>
Fore
20 0 m 1
 20 71 l 1
 349 451 l 1
 313 449 279 448 251 448 c 2
 38 448 l 1
 38 518 l 1
 463 518 l 1
 463 461 l 1
 127 71 l 1
 167 74 204 75 239 75 c 2
 478 75 l 1
 478 0 l 1
 20 0 l 1
EndSplineSet
EndChar
StartChar: braceleft
Encoding: 123 123 92
OldEncoding: 123
Width: 334
VWidth: 2048
Flags: W
HStem: -210 77<282 311> 651 77<282 311>
VStem: 129 83<445 559>
Fore
28 299 m 1
 78 300 109 323 121 371 c 0
 127 395 129 446 129 521 c 0
 129 587 135 635 149 662 c 0
 164 696 190 717 222 723 c 0
 236 727 256 728 284 728 c 2
 311 728 l 1
 311 651 l 1
 296 651 l 2
 259 651 236 644 224 628 c 0
 216 616 212 590 212 552 c 0
 212 480 212 440 212 432 c 0
 207 385 198 346 179 319 c 0
 162 294 139 274 109 259 c 1
 178 231 212 159 212 38 c 0
 212 -44 215 -94 222 -107 c 0
 233 -126 256 -133 296 -133 c 2
 311 -133 l 1
 311 -210 l 1
 284 -210 l 2
 236 -210 202 -202 179 -184 c 0
 155 -164 139 -136 135 -103 c 1
 130 58 l 1
 127 164 94 218 28 219 c 1
 28 299 l 1
EndSplineSet
EndChar
StartChar: bar
Encoding: 124 124 93
OldEncoding: 124
Width: 259
VWidth: 2048
Flags: W
VStem: 92 77<-210 728>
Fore
92 -210 m 1
 92 728 l 1
 169 728 l 1
 169 -210 l 1
 92 -210 l 1
EndSplineSet
EndChar
StartChar: braceright
Encoding: 125 125 94
OldEncoding: 125
Width: 334
VWidth: 2048
Flags: W
VStem: 120 84<515 593>
Fore
307 299 m 1
 307 219 l 1
 261 218 231 198 216 156 c 0
 208 133 204 94 204 35 c 0
 204 -55 199 -113 187 -139 c 0
 170 -175 146 -198 110 -205 c 0
 95 -208 75 -210 51 -210 c 2
 23 -210 l 1
 23 -133 l 1
 38 -133 l 2
 75 -133 98 -126 109 -110 c 0
 118 -98 123 -72 123 -32 c 0
 123 43 123 83 123 87 c 0
 126 136 136 173 155 201 c 0
 170 227 195 245 224 259 c 1
 167 287 135 330 127 391 c 0
 124 423 121 490 120 593 c 1
 116 618 109 633 95 642 c 0
 84 648 64 651 38 651 c 2
 23 651 l 1
 23 728 l 1
 51 728 l 2
 106 728 146 716 169 688 c 0
 192 662 204 605 204 515 c 0
 204 412 216 348 239 323 c 0
 254 308 277 300 307 299 c 1
EndSplineSet
EndChar
StartChar: asciitilde
Encoding: 126 126 95
OldEncoding: 126
Width: 583
VWidth: 2048
Flags: W
Fore
43 273 m 1
 43 372 l 1
 77 411 123 431 178 431 c 0
 213 431 265 417 331 388 c 0
 368 372 395 365 415 365 c 0
 460 365 501 388 543 432 c 1
 543 328 l 1
 503 291 458 273 408 273 c 0
 372 273 326 287 267 313 c 0
 228 330 196 339 170 339 c 0
 130 339 89 316 43 273 c 1
EndSplineSet
EndChar
StartChar: uni0E10.descless
Encoding: 128 63232 96
OldEncoding: 63232
Width: 530
Flags: W
HStem: -3 61<314 329> 299 50<176 185> 506 69<426 468> 521 54<468 486>
VStem: 208 69<89 164> 359 69<93 322>
Fore
486 521 m 1xdc
 486 521 l 0xdc
 484 521 454 506 426 506 c 0
 359 506 320 530 253 530 c 0
 179 532 150 497 150 497 c 2
 152 497 284 489 371 429 c 0
 405 405 428 368 428 320 c 2
 428 95 l 2
 428 37 380 -3 314 -3 c 0
 254 -3 208 35 208 89 c 2
 208 164 l 1
 208 164 170 149 132 166 c 0
 94 181 71 219 78 271 c 0
 86 319 126 349 176 349 c 0
 250 349 277 299 277 247 c 2
 277 107 l 2
 277 84 288 60 320 58 c 0
 354 58 359 86 359 109 c 2
 359 313 l 2
 359 371 308 408 236 426 c 0
 146 451 52 457 40 455 c 1
 80 530 120 575 213 587 c 0
 291 598 331 567 406 561 c 0
 438 558 466 575 468 575 c 1xec
 486 521 l 1xdc
176 207 m 0
 238 207 238 299 176 299 c 0
 113 299 113 207 176 207 c 0
EndSplineSet
EndChar
StartChar: uni0E34.left
Encoding: 129 63233 97
OldEncoding: 63233
Width: 0
Flags: W
HStem: 699 55<-465 -438> 825 55<-449 -415>
Fore
-208 653 m 0
 -208 653 l 0
 -293 688 -342 700 -445 699 c 0
 -524 699 -579 688 -656 659 c 1
 -655 783 -567 878 -434 880 c 0
 -303 881 -208 777 -208 653 c 0
-273 727 m 1
 -300 789 -359 825 -429 825 c 0
 -500 825 -549 792 -578 734 c 1
 -543 743 -510 753 -438 754 c 0
 -366 756 -313 739 -273 727 c 1
EndSplineSet
EndChar
StartChar: uni0E35.left
Encoding: 130 63234 98
OldEncoding: 63234
Width: 0
Flags: W
HStem: 699 54<-432 -387.958> 823 55<-438 -404>
VStem: -281 69<820 946>
Fore
-196 651 m 0
 -196 651 l 0
 -282 687 -331 699 -432 699 c 0
 -513 697 -569 687 -645 658 c 1
 -647 783 -547 878 -423 878 c 0
 -311 878 -282 820 -281 820 c 1
 -281 946 l 1
 -212 946 l 5
 -212 751 l 2
 -212 750 -204 728 -201 705 c 0
 -198 684 -196 656 -196 651 c 0
-262 725 m 1
 -290 788 -346 823 -418 823 c 0
 -489 823 -538 791 -567 733 c 1
 -532 743 -500 751 -426 753 c 0
 -354 754 -302 739 -262 725 c 1
EndSplineSet
EndChar
StartChar: uni0E36.left
Encoding: 131 63235 99
OldEncoding: 63235
Width: 0
Flags: W
HStem: 693 53<-448 -440> 819 52<-432 -385>
Fore
-210 846 m 0
 -210 846 l 0
 -218 825 -235 808 -256 799 c 1
 -241 777 -231 768 -222 734 c 0
 -210 687 -212 667 -212 645 c 1
 -296 681 -345 693 -448 693 c 0
 -527 691 -582 681 -659 651 c 1
 -661 733 -624 802 -564 838 c 0
 -475 894 -391 871 -385 871 c 1
 -386 883 -394 901 -376 932 c 0
 -348 979 -277 978 -247 960 c 0
 -205 935 -193 887 -210 846 c 0
-294 837 m 0
 -294 837 l 0
 -235 837 -235 929 -294 929 c 0
 -356 929 -356 837 -294 837 c 0
-276 719 m 1
 -303 783 -362 819 -432 819 c 0
 -503 819 -552 785 -581 727 c 1
 -546 737 -513 745 -441 746 c 0
 -369 748 -316 733 -276 719 c 1
EndSplineSet
EndChar
StartChar: uni0E37.left
Encoding: 132 63236 100
OldEncoding: 63236
Width: 0
Flags: W
HStem: 700 54<-450 -422> 825 46<-414 -334>
VStem: -400 66<884 952> -281 66<835 952>
Fore
-192 653 m 0
 -192 653 l 0
 -277 688 -326 700 -428 700 c 0
 -509 699 -564 688 -641 659 c 1
 -642 693 -638 776 -573 832 c 0
 -513 884 -431 889 -400 884 c 1
 -400 952 l 1
 -334 952 l 1
 -334 871 l 1
 -333 871 -316 864 -305 858 c 0
 -294 851 -281 835 -281 835 c 1
 -281 952 l 1
 -215 952 l 1
 -215 751 l 2
 -215 748 -202 722 -199 704 c 0
 -195 682 -192 659 -192 653 c 0
-258 727 m 1
 -285 789 -342 825 -414 825 c 0
 -484 825 -533 792 -563 734 c 1
 -527 743 -495 753 -422 754 c 0
 -349 756 -297 740 -258 727 c 1
EndSplineSet
EndChar
StartChar: ellipsis
Encoding: 133 8230 101
OldEncoding: 8230
Width: 570
VWidth: 2048
Flags: W
HStem: 0 21G<96.5 132.5 283.5 319.5 472 508>
VStem: 55 117<58 65> 242 117<58 65> 431 116<58 65>
Fore
489 0 m 0
 455 0 435 20 431 58 c 1
 431 98 449 118 489 118 c 0
 527 118 547 98 547 58 c 0
 547 20 527 0 489 0 c 0
300 0 m 0
 267 0 247 20 242 58 c 1
 242 98 262 118 300 118 c 0
 339 118 359 98 359 58 c 0
 359 20 339 0 300 0 c 0
113 0 m 0
 80 0 60 20 55 58 c 1
 55 98 75 118 113 118 c 0
 152 118 172 98 172 58 c 0
 172 20 152 0 113 0 c 0
EndSplineSet
EndChar
StartChar: uni0E48.low_left
Encoding: 134 63237 102
OldEncoding: 63237
Width: 0
Flags: W
VStem: -316 69<665 887>
Fore
-247 665 m 1
 -316 665 l 1
 -316 887 l 1
 -247 887 l 1
 -247 665 l 1
EndSplineSet
EndChar
StartChar: uni0E49.low_left
Encoding: 135 63238 103
OldEncoding: 63238
Width: 0
Flags: W
Fore
-184 796 m 1
 -184 796 l 0
 -212 757 -241 727 -310 696 c 0
 -380 664 -441 664 -494 671 c 1
 -480 679 -468 693 -458 707 c 0
 -451 717 -440 733 -440 740 c 1
 -475 736 -497 746 -517 766 c 0
 -550 802 -536 889 -466 900 c 0
 -395 910 -369 863 -365 823 c 0
 -359 768 -395 717 -399 717 c 0
 -354 727 -326 740 -290 768 c 0
 -239 803 -215 832 -184 891 c 1
 -184 796 l 1
-451 777 m 0
 -395 777 -395 861 -451 861 c 0
 -507 861 -507 777 -451 777 c 0
EndSplineSet
EndChar
StartChar: uni0E4A.low_left
Encoding: 136 63239 104
OldEncoding: 63239
Width: 0
Flags: W
HStem: 696 21G<-526 -486> 757 31<-515 -498>
Fore
-176 834 m 1
 -176 834 l 0
 -181 796 -196 766 -219 737 c 0
 -264 684 -319 664 -388 668 c 1
 -376 676 -348 711 -342 757 c 0
 -339 791 -348 832 -382 837 c 0
 -414 842 -437 819 -441 811 c 1
 -446 819 -480 842 -507 834 c 0
 -535 826 -549 802 -547 773 c 1
 -533 783 -524 788 -500 788 c 0
 -464 788 -441 757 -443 725 c 0
 -445 690 -472 662 -513 664 c 0
 -573 667 -607 733 -592 806 c 0
 -582 846 -556 880 -512 884 c 0
 -483 886 -457 872 -443 846 c 1
 -428 871 -402 884 -372 884 c 0
 -330 884 -296 848 -291 803 c 0
 -285 751 -311 713 -314 708 c 1
 -282 725 -261 746 -245 777 c 0
 -227 811 -224 863 -224 877 c 1
 -176 834 l 1
-506 696 m 0
 -466 696 -466 757 -506 757 c 0
 -546 757 -546 696 -506 696 c 0
EndSplineSet
EndChar
StartChar: uni0E4B.low_left
Encoding: 137 63240 105
OldEncoding: 63240
Width: 0
Flags: W
HStem: 753 66<-448 -365 -294 -213>
VStem: -365 71<667 753 819 909>
Fore
-213 753 m 1
 -294 753 l 1
 -294 667 l 1
 -365 667 l 1
 -365 753 l 1
 -448 753 l 1
 -448 819 l 1
 -365 819 l 1
 -365 909 l 1
 -294 909 l 1
 -294 819 l 1
 -213 819 l 1
 -213 753 l 1
EndSplineSet
EndChar
StartChar: uni0E4C.low_left
Encoding: 138 63241 106
OldEncoding: 63241
Width: 0
Flags: W
HStem: 707 21G<-395 -340.5> 789 37<-377 -360> 952 20G<-208 -139 -139 -139>
Fore
-139 972 m 1
 -139 972 l 0
 -143 960 -141 917 -192 889 c 0
 -253 855 -330 877 -382 851 c 0
 -409 837 -411 812 -412 809 c 1
 -399 820 -389 826 -362 826 c 0
 -320 826 -285 794 -285 750 c 0
 -285 699 -322 670 -366 668 c 0
 -441 665 -486 743 -468 812 c 0
 -446 891 -385 912 -284 912 c 0
 -204 912 -213 969 -208 972 c 1
 -139 972 l 1
-368 707 m 0
 -313 707 -314 789 -369 789 c 0
 -423 789 -422 707 -368 707 c 0
EndSplineSet
EndChar
StartChar: uni0E48.low
Encoding: 139 63242 107
OldEncoding: 63242
Width: 0
Flags: HW
VStem: -189 69<665 887>
AnchorPoint: "AboveBase" -113 659 mark 0
Fore
-120 665 m 1
 -189 665 l 1
 -189 887 l 1
 -120 887 l 1
 -120 665 l 1
EndSplineSet
Substitution: 0 65534 'amni' uni0E4D
EndChar
StartChar: uni0E49.low
Encoding: 140 63243 108
OldEncoding: 63243
Width: 0
Flags: HW
AnchorPoint: "AboveBase" -113 659 mark 0
Fore
3 820 m 0
 3 820 l 0
 0 806 -60 734 -139 707 c 0
 -218 679 -307 679 -365 705 c 1
 -349 714 -356 710 -320 742 c 0
 -308 753 -284 791 -284 799 c 1
 -316 794 -343 805 -365 828 c 0
 -402 866 -392 961 -310 973 c 0
 -231 986 -204 932 -199 889 c 0
 -193 829 -233 769 -251 742 c 1
 -162 750 -113 785 -94 802 c 0
 -75 817 -29 851 3 926 c 1
 3 881 3 842 3 820 c 0
-291 840 m 0
 -231 840 -231 932 -291 932 c 0
 -353 932 -353 840 -291 840 c 0
EndSplineSet
Substitution: 0 65534 'amni' uni0E4D
EndChar
StartChar: uni0E4A.low
Encoding: 141 63244 109
OldEncoding: 63244
Width: 0
Flags: HW
HStem: 673 20G<-328 -288> 753 32<-316 -298>
AnchorPoint: "AboveBase" -113 659 mark 0
Fore
25 831 m 1
 25 831 l 0
 18 792 3 765 -20 736 c 0
 -64 682 -120 661 -189 665 c 1
 -176 673 -147 708 -143 754 c 0
 -139 788 -149 829 -182 834 c 0
 -213 838 -238 817 -242 809 c 1
 -245 817 -281 838 -308 831 c 0
 -336 823 -349 799 -348 771 c 1
 -334 780 -323 785 -300 785 c 0
 -265 785 -242 754 -244 722 c 0
 -245 687 -273 659 -314 661 c 0
 -374 665 -408 731 -392 803 c 0
 -383 845 -357 877 -313 881 c 0
 -284 884 -258 869 -244 845 c 1
 -228 868 -202 881 -172 881 c 0
 -129 881 -97 846 -90 800 c 0
 -86 748 -112 710 -115 705 c 1
 -83 722 -61 743 -46 776 c 0
 -28 809 -25 860 -25 874 c 1
 25 831 l 1
-307 753 m 0
 -346 753 -348 693 -308 693 c 0
 -268 693 -267 753 -307 753 c 0
EndSplineSet
Substitution: 0 65534 'amni' uni0E4D
EndChar
StartChar: uni0E4B.low
Encoding: 142 63245 110
OldEncoding: 63245
Width: 0
Flags: HW
HStem: 746 60<-259 -179>
VStem: -179 63<668 748 807 892>
AnchorPoint: "AboveBase" -113 659 mark 0
Fore
-35 808 m 1
 -37 746 l 1
 -116 748 l 1
 -116 727 -116 664 -116 668 c 1
 -179 668 l 1
 -179 748 l 1
 -261 746 l 1
 -259 806 l 1
 -178 808 l 1
 -178 892 l 1
 -116 892 l 1
 -115 808 l 1
 -35 808 l 1
EndSplineSet
Substitution: 0 65534 'amni' uni0E4D
EndChar
StartChar: uni0E4C.low
Encoding: 143 63246 111
OldEncoding: 63246
Width: 0
Flags: HW
HStem: 667 43<-196.748 -187> 802 41<-194 -179>
AnchorPoint: "AboveBase" -113 659 mark 0
Fore
64 1006 m 1
 64 1006 l 0
 61 992 63 946 8 914 c 0
 -58 875 -143 901 -204 871 c 0
 -233 855 -236 829 -238 825 c 1
 -221 837 -213 843 -181 843 c 0
 -136 843 -97 809 -97 757 c 0
 -97 704 -138 670 -185 667 c 0
 -270 664 -322 751 -299 828 c 0
 -274 915 -207 938 -95 940 c 0
 -6 941 -15 1002 -11 1006 c 1
 64 1006 l 1
-187 710 m 0
 -127 708 -129 802 -189 802 c 0
 -250 802 -248 711 -187 710 c 0
EndSplineSet
EndChar
StartChar: uni0E0D.descless
Encoding: 144 63247 112
OldEncoding: 63247
Width: 800
Flags: W
HStem: 0 66<353 615>
VStem: 83 69<101 324> 395 69<66 450> 627 69<93 590>
Fore
696 110 m 1
 696 110 l 0
 696 86 699 64 687 43 c 0
 671 17 645 0 615 0 c 2
 353 0 l 1
 353 66 l 1
 395 66 l 1
 395 445 l 2
 395 503 353 530 261 532 c 0
 175 535 129 501 129 501 c 2
 132 501 173 483 198 466 c 0
 227 448 254 423 254 423 c 1
 250 423 208 415 182 386 c 0
 162 366 152 339 152 308 c 2
 152 184 l 1
 152 184 190 199 228 182 c 0
 267 167 290 129 282 77 c 0
 274 29 235 -2 184 -2 c 0
 110 -2 83 49 83 101 c 2
 83 322 l 2
 83 340 89 365 104 389 c 0
 116 412 141 426 141 426 c 1
 141 426 115 451 81 463 c 0
 51 475 34 483 6 487 c 1
 26 513 116 587 258 593 c 0
 399 599 464 527 464 448 c 2
 464 66 l 1
 590 66 l 2
 602 66 612 69 619 80 c 0
 628 90 627 101 627 113 c 2
 627 590 l 1
 696 590 l 1
 696 110 l 1
189 48 m 0
 250 48 250 139 189 139 c 0
 126 139 126 48 189 48 c 0
EndSplineSet
EndChar
StartChar: quoteleft
Encoding: 145 8216 113
OldEncoding: 8216
Width: 268
Flags: W
Fore
169 679 m 1
 155 676 135 664 115 641 c 0
 100 621 97 592 97 589 c 1
 121 595 146 589 164 572 c 0
 196 543 189 472 146 454 c 0
 94 434 55 457 43 483 c 0
 17 530 34 618 75 665 c 0
 100 693 130 711 169 719 c 1
 169 679 l 1
EndSplineSet
EndChar
StartChar: quoteright
Encoding: 146 8217 114
OldEncoding: 8217
Width: 278
Flags: W
Fore
204 691 m 0
 228 644 210 556 169 509 c 0
 143 481 113 463 75 455 c 1
 75 495 l 1
 89 498 109 510 129 533 c 0
 144 553 147 582 147 586 c 1
 123 579 98 586 80 602 c 0
 48 632 54 702 98 720 c 0
 150 742 190 717 204 691 c 0
EndSplineSet
EndChar
StartChar: quotedblleft
Encoding: 147 8220 115
OldEncoding: 8220
Width: 484
Flags: W
Fore
415 676 m 1
 415 676 l 0
 403 673 382 661 363 638 c 0
 346 618 343 589 343 586 c 1
 369 592 392 586 412 570 c 1
 445 541 437 469 394 452 c 0
 340 431 300 454 288 480 c 0
 262 529 282 615 323 662 c 0
 348 691 377 708 415 716 c 1
 415 676 l 1
185 679 m 1
 173 676 152 664 133 641 c 0
 116 621 113 592 113 589 c 1
 138 595 162 589 181 572 c 0
 215 543 207 472 164 454 c 0
 110 434 74 457 60 483 c 0
 35 530 52 618 94 665 c 0
 118 693 147 711 185 719 c 1
 185 679 l 1
EndSplineSet
EndChar
StartChar: quotedblright
Encoding: 148 8221 116
OldEncoding: 8221
Width: 531
Flags: W
Fore
441 688 m 0
 441 688 l 0
 466 641 451 553 409 506 c 0
 383 478 354 460 316 452 c 1
 316 492 l 1
 330 495 349 507 369 530 c 0
 385 550 388 579 388 582 c 1
 363 576 339 582 320 599 c 0
 287 628 294 700 337 717 c 0
 391 739 428 714 441 688 c 0
215 691 m 0
 239 644 221 556 178 509 c 0
 153 481 124 463 86 455 c 1
 86 495 l 1
 98 498 120 510 138 533 c 0
 155 553 158 582 158 586 c 1
 133 579 109 586 90 602 c 0
 57 632 64 702 107 720 c 0
 161 742 201 717 215 691 c 0
EndSplineSet
EndChar
StartChar: bullet
Encoding: 149 8226 117
OldEncoding: 8226
Width: 528
Flags: W
Fore
271 98 m 0
 49 98 49 434 271 434 c 0
 494 434 494 98 271 98 c 0
EndSplineSet
EndChar
StartChar: endash
Encoding: 150 8211 118
OldEncoding: 8211
Width: 548
Flags: W
HStem: 258 68<41 523>
Fore
523 258 m 1
 41 258 l 1
 41 326 l 1
 523 326 l 1
 523 258 l 1
EndSplineSet
EndChar
StartChar: emdash
Encoding: 151 8212 119
OldEncoding: 8212
Width: 709
Flags: W
HStem: 258 68<41 682>
Fore
682 258 m 1
 41 258 l 1
 41 326 l 1
 682 326 l 1
 682 258 l 1
EndSplineSet
EndChar
StartChar: uni0E31.left
Encoding: 152 63248 120
OldEncoding: 63248
Width: 0
Flags: W
Fore
-20 794 m 1
 -20 794 l 0
 -52 765 -116 727 -184 710 c 0
 -287 685 -428 679 -471 777 c 0
 -490 823 -471 907 -392 917 c 0
 -320 924 -276 866 -285 809 c 0
 -291 771 -300 768 -310 757 c 1
 -268 756 -228 756 -167 782 c 0
 -87 817 -28 889 -20 901 c 1
 -20 794 l 1
-377 871 m 0
 -443 871 -445 774 -379 774 c 0
 -314 774 -313 871 -377 871 c 0
EndSplineSet
EndChar
StartChar: uni0E4D.left
Encoding: 153 63249 121
OldEncoding: 63249
Width: 0
Flags: W
HStem: 653 47<-331 -320> 811 47<-331 -320>
Fore
-331 653 m 0
 -331 653 l 0
 -466 653 -466 858 -331 858 c 4
 -195 858 -195 653 -331 653 c 0
-331 700 m 0
 -256 700 -256 811 -331 811 c 0
 -405 811 -405 700 -331 700 c 0
EndSplineSet
EndChar
StartChar: uni0E47.left
Encoding: 154 63250 122
OldEncoding: 63250
Width: 0
Flags: W
HStem: 708 21G<-298.5 -280.5> 950 20G<-195 -195>
Fore
-195 970 m 1
 -195 970 l 0
 -195 969 -196 872 -310 860 c 0
 -351 857 -391 868 -431 871 c 0
 -469 875 -501 871 -524 840 c 0
 -540 819 -540 796 -532 774 c 1
 -530 765 l 1
 -517 785 -501 799 -474 803 c 0
 -420 814 -371 777 -353 760 c 1
 -322 834 -212 812 -221 727 c 0
 -225 687 -258 659 -308 667 c 0
 -376 677 -406 762 -471 742 c 0
 -498 733 -507 700 -507 667 c 2
 -507 659 l 1
 -559 679 -593 714 -599 773 c 0
 -607 846 -567 903 -515 917 c 0
 -472 929 -441 927 -415 924 c 0
 -388 921 -365 915 -334 915 c 0
 -273 917 -268 970 -268 970 c 1
 -268 976 l 1
 -195 976 l 1
 -195 970 l 1
-262 736 m 0
 -262 750 -271 763 -290 763 c 0
 -307 763 -316 750 -316 736 c 0
 -316 720 -307 708 -290 708 c 0
 -271 708 -262 720 -262 736 c 0
EndSplineSet
EndChar
StartChar: uni0E48.left
Encoding: 155 63251 123
OldEncoding: 63251
Width: 0
Flags: W
VStem: -284 69<998 1173>
Fore
-215 998 m 1
 -284 998 l 1
 -284 1173 l 1
 -215 1173 l 1
 -215 998 l 1
EndSplineSet
EndChar
StartChar: uni0E49.left
Encoding: 156 63252 124
OldEncoding: 63252
Width: 0
Flags: W
Fore
-86 1113 m 1
 -86 1113 l 0
 -112 1076 -138 1045 -205 1016 c 0
 -274 986 -336 986 -386 993 c 1
 -372 1002 -362 1013 -353 1025 c 0
 -345 1038 -337 1055 -336 1061 c 1
 -365 1056 -388 1067 -408 1087 c 0
 -440 1120 -429 1203 -357 1212 c 0
 -288 1220 -265 1179 -261 1140 c 0
 -256 1088 -290 1041 -293 1039 c 0
 -250 1048 -218 1065 -185 1090 c 0
 -136 1125 -100 1174 -86 1205 c 1
 -86 1113 l 1
-340 1097 m 0
 -287 1097 -296 1179 -342 1176 c 0
 -391 1171 -394 1097 -340 1097 c 0
EndSplineSet
EndChar
StartChar: uni0E4A.left
Encoding: 157 63253 125
OldEncoding: 63253
Width: 0
Flags: W
HStem: 1071 30<-343 -325>
Fore
-14 1145 m 1
 -14 1145 l 0
 -20 1108 -34 1081 -57 1053 c 0
 -100 1001 -153 981 -221 986 c 1
 -208 992 -181 1027 -176 1071 c 0
 -172 1104 -182 1143 -215 1148 c 0
 -245 1153 -268 1131 -271 1124 c 1
 -276 1131 -310 1153 -336 1145 c 0
 -363 1139 -377 1114 -376 1087 c 1
 -362 1096 -353 1101 -330 1101 c 0
 -294 1101 -271 1071 -273 1039 c 0
 -274 1006 -302 978 -342 981 c 0
 -400 984 -434 1048 -418 1117 c 0
 -409 1159 -383 1189 -340 1194 c 0
 -313 1197 -288 1182 -273 1159 c 1
 -259 1182 -233 1194 -205 1194 c 0
 -162 1194 -130 1160 -126 1116 c 0
 -121 1065 -146 1029 -149 1024 c 1
 -118 1039 -97 1061 -81 1091 c 0
 -64 1124 -61 1174 -61 1186 c 1
 -14 1145 l 1
-334 1071 m 0
 -372 1071 -374 1013 -336 1013 c 0
 -297 1013 -296 1071 -334 1071 c 0
EndSplineSet
EndChar
StartChar: uni0E4B.left
Encoding: 158 63254 126
OldEncoding: 63254
Width: 0
Flags: W
HStem: 1053 63<-362 -281 -213 -133>
VStem: -281 68<978 1053 1116 1196>
Fore
-133 1053 m 1
 -213 1053 l 1
 -213 978 l 1
 -281 978 l 1
 -281 1053 l 1
 -362 1053 l 1
 -362 1116 l 1
 -281 1116 l 1
 -281 1196 l 1
 -213 1196 l 1
 -213 1116 l 1
 -133 1116 l 1
 -133 1053 l 1
EndSplineSet
EndChar
StartChar: uni0E4C.left
Encoding: 159 63255 127
OldEncoding: 63255
Width: 0
Flags: W
HStem: 920 35<-309 -303> 1030 34<-309 -298>
Fore
-101 1194 m 1
 -101 1194 l 0
 -103 1185 -103 1143 -147 1119 c 0
 -201 1090 -271 1108 -319 1085 c 0
 -340 1074 -345 1052 -346 1048 c 1
 -333 1058 -326 1064 -300 1064 c 0
 -262 1064 -231 1035 -231 993 c 0
 -231 949 -264 921 -303 920 c 0
 -371 920 -411 990 -395 1052 c 0
 -377 1119 -322 1142 -230 1142 c 0
 -158 1142 -166 1193 -162 1194 c 2
 -101 1194 l 1
-305 955 m 0
 -256 955 -258 1030 -307 1030 c 0
 -356 1030 -354 955 -305 955 c 0
EndSplineSet
EndChar
StartChar: uni0E01
Encoding: 161 3585 129
OldEncoding: 3585
Width: 626
Flags: W
HStem: 0 21G<100 169 451 520> 532 61<269 312>
VStem: 100 69<0 325> 451 69<0 433>
Fore
520 0 m 1
 451 0 l 1
 451 418 l 2
 451 501 385 533 294 532 c 0
 208 532 158 498 158 498 c 2
 161 498 190 483 215 466 c 0
 239 451 271 423 271 423 c 1
 267 423 225 415 199 386 c 0
 179 366 169 339 169 308 c 2
 169 0 l 1
 100 0 l 1
 100 322 l 2
 100 340 106 365 121 389 c 0
 133 412 158 426 158 426 c 1
 158 426 132 451 98 463 c 0
 67 475 51 483 23 487 c 1
 43 512 155 593 291 593 c 4
 429 593 520 530 520 422 c 2
 520 0 l 1
EndSplineSet
EndChar
StartChar: uni0E02
Encoding: 162 3586 130
OldEncoding: 3586
Width: 648
Flags: W
HStem: 0 66<182 425>
VStem: 256 70<66 305> 461 69<111 590>
Fore
530 118 m 1
 530 118 l 0
 530 98 530 69 515 46 c 0
 495 15 463 0 425 0 c 2
 182 0 l 1
 182 66 l 1
 256 66 l 1
 256 284 l 2
 256 305 256 319 262 340 c 0
 276 383 311 415 299 475 c 0
 290 527 224 543 179 533 c 1
 207 521 222 507 230 468 c 0
 238 428 219 360 141 354 c 0
 74 348 34 392 31 452 c 0
 28 527 89 587 172 592 c 0
 284 598 340 556 363 497 c 0
 380 451 368 405 346 366 c 0
 334 343 326 313 326 297 c 2
 326 66 l 1
 409 66 l 2
 426 66 441 71 451 83 c 0
 458 92 461 106 461 120 c 2
 461 590 l 1
 530 590 l 1
 530 118 l 1
132 500 m 0
 71 500 69 406 132 406 c 0
 193 406 195 500 132 500 c 0
EndSplineSet
EndChar
StartChar: uni0E03
Encoding: 163 3587 131
OldEncoding: 3587
Width: 677
Flags: W
HStem: -6 66<239 460>
VStem: 310 69<60 411> 497 70<105 584>
Fore
567 112 m 1
 567 112 l 0
 567 94 566 63 550 40 c 0
 532 11 498 -6 460 -6 c 2
 239 -6 l 1
 239 60 l 1
 310 60 l 1
 310 418 l 2
 310 422 353 452 351 472 c 0
 349 497 310 523 308 523 c 2
 235 486 l 1
 167 523 l 1
 150 515 136 506 127 490 c 0
 115 471 106 452 106 437 c 1
 133 451 162 448 189 440 c 0
 239 425 259 353 233 303 c 0
 201 244 106 244 64 302 c 0
 32 349 32 431 63 492 c 0
 84 538 110 566 155 587 c 1
 235 541 l 1
 316 587 l 1
 340 573 360 558 379 536 c 1
 403 512 418 489 418 487 c 2
 418 454 l 2
 418 452 406 438 402 432 c 0
 394 423 388 417 379 411 c 1
 379 60 l 1
 446 60 l 2
 461 60 478 64 487 77 c 0
 494 86 497 100 497 113 c 2
 497 584 l 1
 567 584 l 5
 567 112 l 1
152 303 m 0
 216 303 216 400 152 400 c 0
 89 400 89 303 152 303 c 0
EndSplineSet
EndChar
StartChar: uni0E04
Encoding: 164 3588 132
OldEncoding: 3588
Width: 613
Flags: W
HStem: 0 21G<123 192 432 501> 371 49<217 235>
VStem: 123 69<0 235> 432 69<0 401>
Fore
501 0 m 1
 432 0 l 1
 432 394 l 2
 432 478 374 533 264 532 c 0
 139 532 97 449 90 382 c 0
 86 310 123 256 126 253 c 1
 126 317 l 2
 126 353 150 420 224 420 c 0
 276 420 314 389 322 342 c 0
 330 291 307 253 268 236 c 0
 230 219 192 235 192 235 c 1
 192 0 l 1
 123 0 l 1
 123 98 l 2
 123 115 120 130 112 146 c 0
 89 198 23 288 26 383 c 0
 31 497 112 589 270 593 c 0
 414 598 501 513 501 397 c 2
 501 0 l 1
225 277 m 0
 287 277 287 371 225 371 c 0
 164 371 164 277 225 277 c 0
EndSplineSet
EndChar
StartChar: uni0E05
Encoding: 165 3589 133
OldEncoding: 3589
Width: 591
Flags: W
HStem: 0 21G<101 173 406 475> 231 45<242 252>
VStem: 406 69<0 433>
Fore
475 0 m 1
 406 0 l 1
 406 409 l 2
 406 446 405 463 389 489 c 0
 374 512 365 521 343 530 c 1
 264 472 l 1
 181 535 l 1
 133 509 83 475 71 379 c 0
 63 313 120 204 123 199 c 1
 121 202 109 366 190 411 c 0
 259 448 328 412 342 356 c 0
 357 294 331 233 244 231 c 0
 207 231 184 248 184 248 c 1
 176 201 175 192 172 120 c 0
 169 74 172 44 173 0 c 1
 101 0 l 1
 98 20 100 46 81 107 c 0
 57 187 2 264 11 385 c 0
 18 497 95 556 195 593 c 1
 262 541 l 1
 337 593 l 1
 371 586 405 569 434 535 c 0
 461 504 475 466 475 414 c 2
 475 0 l 1
250 276 m 0
 317 276 317 377 250 377 c 0
 181 377 181 276 250 276 c 0
EndSplineSet
EndChar
StartChar: uni0E06
Encoding: 166 3590 134
OldEncoding: 3590
Width: 770
Flags: W
HStem: -3 21G<223 295>
VStem: 288 71<81 156 250 415> 589 69<108 590>
Fore
658 136 m 1
 658 136 l 0
 658 89 658 41 619 17 c 0
 576 -12 527 -5 484 35 c 2
 359 156 l 1
 359 83 l 2
 359 37 319 -3 271 -3 c 0
 175 -3 138 103 178 187 c 0
 198 230 241 251 288 251 c 1
 288 425 l 2
 288 428 333 457 331 478 c 0
 330 503 290 529 288 529 c 2
 215 492 l 1
 147 529 l 1
 130 521 116 512 107 495 c 0
 95 477 86 457 86 443 c 1
 113 455 143 454 169 446 c 0
 219 431 239 359 213 310 c 0
 181 250 86 250 44 308 c 0
 12 356 12 437 43 498 c 0
 64 544 90 570 135 593 c 1
 215 547 l 1
 296 593 l 1
 320 579 340 564 359 543 c 1
 383 518 399 494 399 492 c 2
 399 460 l 2
 399 458 386 445 382 438 c 0
 374 429 366 422 359 415 c 1
 359 238 l 1
 490 118 l 2
 513 98 533 67 561 67 c 0
 586 69 589 100 589 124 c 2
 589 590 l 1
 658 590 l 1
 658 136 l 1
132 310 m 0
 132 310 l 0
 196 310 196 406 132 406 c 0
 69 406 69 310 132 310 c 0
288 95 m 2
 288 189 l 1
 267 189 245 187 233 164 c 0
 213 126 224 49 262 55 c 0
 281 58 288 63 288 95 c 2
EndSplineSet
EndChar
StartChar: uni0E07
Encoding: 167 3591 135
OldEncoding: 3591
Width: 496
Flags: W
HStem: 543 50<285 294>
VStem: 317 69<105 408>
Fore
386 120 m 1
 386 120 l 0
 386 75 382 34 345 12 c 0
 297 -17 245 -11 207 32 c 0
 170 74 162 164 110 207 c 0
 86 227 66 227 37 228 c 1
 37 291 l 1
 41 291 98 294 143 264 c 0
 224 208 224 57 284 58 c 0
 314 60 317 89 317 110 c 2
 317 408 l 1
 317 408 279 392 241 409 c 0
 202 425 179 463 187 515 c 0
 195 563 235 593 285 593 c 0
 359 593 386 543 386 490 c 2
 386 120 l 1
285 451 m 0
 346 451 346 543 285 543 c 0
 222 543 222 451 285 451 c 0
EndSplineSet
EndChar
StartChar: uni0E08
Encoding: 168 3592 136
OldEncoding: 3592
Width: 551
Flags: W
HStem: -3 61<331 340> 356 50<192 194> 530 63<219 236>
VStem: 225 69<89 219> 376 69<93 434>
Fore
445 95 m 1
 445 95 l 0
 445 37 397 -3 331 -3 c 0
 270 -3 225 35 225 89 c 2
 225 219 l 1
 225 219 187 205 149 221 c 0
 110 238 87 276 95 328 c 0
 103 376 143 406 192 406 c 0
 267 406 294 356 294 302 c 2
 294 107 l 2
 294 84 305 60 337 58 c 0
 371 58 376 86 376 109 c 2
 376 418 l 2
 376 494 316 533 228 530 c 0
 155 529 97 497 71 432 c 1
 12 460 l 1
 54 550 129 592 236 593 c 0
 363 593 445 529 445 426 c 2
 445 95 l 1
192 262 m 0
 254 262 254 356 192 356 c 0
 130 356 130 262 192 262 c 0
EndSplineSet
EndChar
StartChar: uni0E09
Encoding: 169 3593 137
OldEncoding: 3593
Width: 596
Flags: W
HStem: -3 60<497 502> 340 51<120 122> 532 61<240 276>
VStem: 152 69<85 205> 403 71<228 430>
Fore
592 81 m 0
 592 81 l 0
 581 18 540 -3 497 -3 c 0
 440 -3 408 34 408 80 c 2
 408 152 l 1
 408 152 392 149 351 84 c 0
 314 26 277 -9 227 -3 c 0
 172 3 152 40 152 89 c 2
 152 205 l 1
 152 205 113 190 75 207 c 0
 37 222 14 261 21 313 c 0
 29 360 69 391 120 391 c 0
 193 391 221 340 221 288 c 2
 221 116 l 2
 221 95 219 61 242 61 c 0
 273 61 300 112 330 158 c 0
 365 213 400 227 403 228 c 1
 403 418 l 2
 403 490 339 533 256 532 c 0
 179 532 120 504 86 437 c 1
 34 466 l 1
 78 550 155 592 248 593 c 4
 379 595 474 533 474 428 c 2
 474 238 l 1
 474 238 515 239 550 215 c 0
 589 185 599 135 592 81 c 0
523 155 m 0
 523 155 l 0
 506 189 474 181 472 181 c 1
 472 95 l 2
 472 66 483 55 500 57 c 0
 535 57 543 118 523 155 c 0
120 248 m 0
 181 248 181 340 120 340 c 0
 57 340 57 248 120 248 c 0
EndSplineSet
EndChar
StartChar: uni0E0A
Encoding: 170 3594 138
OldEncoding: 3594
Width: 602
Flags: W
HStem: 0 66<147 389> 490 25<320 397>
VStem: 221 70<66 305> 426 69<111 373>
Fore
555 569 m 1
 555 569 l 0
 552 567 530 543 486 524 c 0
 451 509 402 490 397 490 c 0
 399 490 437 478 463 451 c 0
 490 422 495 394 495 371 c 2
 495 118 l 2
 495 98 495 69 480 46 c 0
 460 15 428 0 389 0 c 2
 147 0 l 1
 147 66 l 1
 221 66 l 1
 221 284 l 2
 221 305 221 319 227 340 c 0
 241 383 276 415 264 475 c 0
 254 527 189 543 144 533 c 1
 172 521 187 507 195 468 c 0
 202 428 184 360 106 354 c 0
 38 348 -2 392 -5 452 c 0
 -8 527 54 587 136 592 c 0
 248 598 305 556 328 497 c 0
 345 451 333 405 311 366 c 0
 299 343 291 313 291 297 c 2
 291 66 l 1
 374 66 l 2
 391 66 406 71 415 83 c 0
 423 92 426 106 426 120 c 2
 426 353 l 2
 426 383 423 406 400 429 c 0
 372 455 334 463 334 463 c 1
 320 515 l 1
 326 515 392 536 441 564 c 0
 492 592 529 636 529 638 c 1
 555 569 l 1
97 500 m 0
 35 500 34 406 97 406 c 0
 158 406 159 500 97 500 c 0
EndSplineSet
EndChar
StartChar: uni0E0B
Encoding: 171 3595 139
OldEncoding: 3595
Width: 648
Flags: W
HStem: 0 66<202 445> 490 20<377 452>
VStem: 276 70<66 412> 481 69<111 375>
Fore
610 569 m 1
 610 569 l 0
 607 567 586 543 541 524 c 0
 506 509 457 490 452 490 c 0
 454 490 492 478 518 451 c 0
 546 422 550 394 550 371 c 2
 550 118 l 2
 550 98 550 69 535 46 c 0
 517 15 483 0 445 0 c 2
 202 0 l 1
 202 66 l 1
 276 66 l 1
 276 428 l 1
 322 475 l 1
 322 475 316 495 305 507 c 0
 287 529 274 532 274 532 c 1
 208 498 l 1
 143 532 l 1
 129 529 124 526 110 509 c 0
 95 492 89 471 89 468 c 1
 89 468 195 494 212 388 c 0
 218 348 201 279 123 274 c 0
 54 271 18 313 12 372 c 0
 -6 536 123 595 126 595 c 2
 207 561 l 1
 287 593 l 2
 290 593 328 578 348 553 c 0
 359 538 374 523 379 507 c 2
 391 463 l 1
 346 412 l 1
 346 66 l 1
 431 66 l 2
 446 66 463 71 472 83 c 0
 478 92 481 106 481 120 c 2
 481 353 l 2
 481 383 478 406 455 429 c 0
 429 455 391 463 391 463 c 1
 377 510 l 1
 380 510 448 536 497 564 c 0
 549 592 584 636 584 638 c 1
 610 569 l 1
115 420 m 0
 52 420 51 326 113 326 c 0
 175 326 176 420 115 420 c 0
EndSplineSet
EndChar
StartChar: uni0E0C
Encoding: 172 3596 140
OldEncoding: 3596
Width: 792
Flags: W
HStem: -2 51<172 178> 532 61<242 270.344>
VStem: 71 68<101 324> 383 71<73 149 238 451> 605 69<92 590>
Fore
454 449 m 0
 455 228 l 0
 455 227 487 224 521 167 c 0
 544 129 570 71 592 75 c 0
 607 77 605 98 605 113 c 2
 605 590 l 1
 674 590 l 1
 674 95 l 2
 674 41 651 5 618 0 c 0
 579 -5 550 9 524 52 c 0
 490 107 454 149 454 149 c 1
 454 69 l 2
 454 35 420 -6 372 -3 c 0
 311 0 276 61 282 130 c 0
 288 207 328 230 385 239 c 1
 385 446 l 2
 385 503 334 532 242 532 c 0
 158 532 129 498 129 498 c 2
 132 498 161 483 185 466 c 0
 210 451 242 423 242 423 c 1
 238 423 196 415 170 386 c 0
 150 366 139 339 139 308 c 2
 139 184 l 1
 139 184 178 199 216 182 c 0
 254 167 277 129 270 77 c 0
 262 29 222 -2 172 -2 c 0
 98 -2 71 49 71 101 c 2
 71 322 l 2
 71 340 77 365 92 389 c 0
 104 412 129 426 129 426 c 1
 129 426 103 451 69 463 c 0
 38 475 21 483 -6 487 c 1
 14 513 104 587 245 593 c 1
 382 593 454 535 454 449 c 0
383 78 m 0
 383 184 l 0
 382 184 345 190 337 138 c 0
 333 106 334 58 365 58 c 0
 374 58 383 69 383 78 c 0
172 49 m 0
 235 49 235 141 172 141 c 0
 110 141 110 49 172 49 c 0
EndSplineSet
EndChar
StartChar: uni0E0D
Encoding: 173 3597 141
OldEncoding: 3597
Width: 833
Flags: W
HStem: -110 47<440 458> 0 66<388 635>
VStem: 118 69<101 324> 431 69<66 453> 648 69<93 590>
Fore
717 110 m 1
 717 110 l 0
 717 86 719 64 707 43 c 0
 693 15 665 0 635 0 c 2
 388 0 l 1
 388 66 l 1
 431 66 l 1
 431 445 l 2
 431 503 383 532 296 532 c 0
 210 532 176 498 176 498 c 2
 179 498 208 483 233 466 c 0
 258 451 290 423 290 423 c 1
 285 423 244 415 218 386 c 0
 198 366 187 339 187 308 c 2
 187 184 l 1
 187 184 225 199 264 182 c 0
 302 167 325 129 317 77 c 0
 310 29 270 -2 219 -2 c 0
 146 -2 118 49 118 101 c 2
 118 322 l 2
 118 340 124 365 139 389 c 0
 152 412 176 426 176 426 c 1
 176 426 150 451 116 463 c 0
 86 475 69 483 41 487 c 1
 61 513 152 587 293 593 c 0
 434 599 500 527 500 448 c 2
 500 66 l 1
 612 66 l 2
 622 66 632 69 641 80 c 0
 650 90 648 101 648 113 c 2
 648 590 l 1
 717 590 l 1
 717 110 l 1
711 -61 m 1
 711 -61 l 0
 713 -78 710 -149 679 -198 c 0
 655 -239 604 -279 535 -284 c 0
 449 -288 365 -254 357 -170 c 0
 351 -123 374 -64 446 -63 c 0
 513 -63 549 -118 536 -175 c 0
 529 -212 500 -218 498 -218 c 0
 500 -218 524 -230 559 -218 c 0
 595 -207 616 -185 632 -152 c 0
 644 -121 645 -61 645 -61 c 1
 711 -61 l 1
219 49 m 0
 219 49 l 0
 282 49 282 141 219 141 c 0
 158 141 158 49 219 49 c 0
449 -110 m 0
 394 -110 392 -196 448 -196 c 0
 504 -196 506 -110 449 -110 c 0
EndSplineSet
Substitution: 0 65534 'nds0' uni0E0D.descless
Substitution: 0 65534 'ndsc' uni0E0D.descless
EndChar
StartChar: uni0E0E
Encoding: 174 3598 142
OldEncoding: 3598
Width: 668
Flags: HW
HStem: -28 20G<320 389> -2 51<133 135> 532 61<334 374>
VStem: 166 69<184 324> 487 69<-154 436>
AnchorPoint: "BelowBase" 554 -311 basechar 0
Fore
556 -162 m 1
 405 -317 l 1
 405 -317 386 -294 353 -256 c 0
 337 -241 310 -219 307 -218 c 1
 302 -225 274 -256 251 -271 c 0
 184 -319 100 -305 72 -261 c 0
 44 -216 63 -147 112 -124 c 0
 198 -83 282 -129 285 -132 c 1
 285 -130 300 -104 310 -71 c 0
 319 -40 320 -12 320 -8 c 1
 389 -8 l 1
 389 -11 388 -48 372 -86 c 0
 354 -138 339 -158 336 -164 c 1
 408 -225 l 1
 487 -153 l 1
 487 415 l 2
 487 498 441 533 351 532 c 0
 265 532 222 498 222 498 c 2
 225 498 254 483 281 466 c 0
 305 451 336 423 336 423 c 1
 331 423 291 415 264 386 c 0
 245 366 235 339 235 308 c 2
 235 101 l 2
 235 49 207 -2 133 -2 c 0
 83 -2 43 29 35 77 c 0
 28 129 51 167 89 182 c 0
 127 199 166 184 166 184 c 1
 166 322 l 2
 166 340 170 365 185 389 c 0
 199 412 222 426 222 426 c 1
 222 426 198 451 164 463 c 0
 133 475 116 483 89 487 c 1
 107 513 212 593 348 593 c 0
 486 593 556 524 556 418 c 2
 556 -162 l 1
133 49 m 0
 133 49 l 0
 195 49 195 141 133 141 c 0
 71 141 71 49 133 49 c 0
251 -179 m 0
 251 -178 169 -135 133 -179 c 0
 109 -212 135 -247 170 -244 c 0
 225 -238 251 -187 251 -179 c 0
EndSplineSet
EndChar
StartChar: uni0E0F
Encoding: 175 3599 143
OldEncoding: 3599
Width: 663
Flags: HW
HStem: -29 20G<264 325> -2 51<135 146> 532 61<335 371>
VStem: 167 69<184 324> 486 69<-160 456>
AnchorPoint: "BelowBase" 550 -311 basechar 0
Fore
555 -159 m 1
 555 -159 l 0
 546 -190 533 -212 517 -236 c 0
 494 -268 472 -290 437 -310 c 1
 369 -216 l 1
 299 -311 l 1
 247 -238 l 1
 247 -238 230 -271 215 -282 c 0
 189 -302 173 -317 130 -311 c 0
 72 -303 51 -230 66 -176 c 0
 78 -136 106 -100 150 -98 c 0
 193 -98 230 -133 233 -138 c 1
 233 -138 245 -107 254 -69 c 0
 265 -31 264 -11 264 -9 c 1
 325 -9 l 1
 325 -11 319 -63 305 -110 c 0
 294 -149 277 -176 276 -178 c 1
 296 -213 l 1
 369 -106 l 1
 445 -222 l 1
 455 -216 463 -207 471 -195 c 0
 478 -182 484 -173 486 -159 c 1
 486 440 l 2
 486 500 446 532 353 532 c 0
 267 532 224 498 224 498 c 2
 227 498 256 483 282 466 c 0
 307 451 337 423 337 423 c 1
 333 423 293 415 265 386 c 0
 247 366 236 339 236 308 c 2
 236 101 l 2
 236 49 208 -2 135 -2 c 0
 84 -2 44 29 37 77 c 0
 29 129 52 167 90 182 c 0
 129 199 167 184 167 184 c 1
 167 322 l 2
 167 340 172 365 187 389 c 0
 201 412 224 426 224 426 c 1
 224 426 199 451 166 463 c 0
 135 475 118 483 90 487 c 1
 109 513 213 592 349 593 c 0
 486 593 555 536 555 443 c 2
 555 -159 l 1
135 49 m 0
 135 49 l 0
 196 49 196 141 135 141 c 0
 72 141 72 49 135 49 c 0
207 -184 m 1
 207 -184 176 -149 152 -152 c 0
 110 -156 103 -254 144 -259 c 0
 176 -264 207 -184 207 -184 c 1
EndSplineSet
EndChar
StartChar: uni0E10
Encoding: 176 3600 144
OldEncoding: 3600
Width: 528
Flags: W
HStem: -296 258<158 174> -3 61<313 322> 299 50<175 177> 506 69<425 466> 521 54<466 484>
VStem: 207 69<89 164> 357 69<93 322> 371 54<-199 -127>
Fore
484 521 m 1xee
 484 521 l 0xee
 483 521 452 506 425 506 c 0xf5
 357 506 319 530 251 530 c 0
 178 532 149 497 149 497 c 2
 150 497 282 489 369 429 c 0
 403 405 426 368 426 320 c 2
 426 95 l 2
 426 37 379 -3 313 -3 c 0
 253 -3 207 35 207 89 c 2
 207 164 l 1
 207 164 169 149 130 166 c 0
 92 181 69 219 77 271 c 0
 84 319 124 349 175 349 c 0
 248 349 276 299 276 247 c 2
 276 107 l 2
 276 84 287 60 319 58 c 0
 353 58 357 86 357 109 c 2
 357 313 l 2
 357 379 297 412 233 429 c 0
 144 452 51 457 38 455 c 1
 78 530 118 575 212 587 c 0
 290 598 330 567 405 561 c 0
 437 558 464 575 466 575 c 1xf6
 484 521 l 1xee
425 -225 m 1xe5
 319 -296 l 1
 251 -250 l 1
 173 -296 l 1
 172 -296 l 2
 169 -296 166 -287 166 -285 c 0
 159 -273 155 -262 146 -251 c 2
 143 -247 l 1
 135 -259 107 -290 80 -290 c 0
 28 -290 -3 -248 -2 -204 c 0
 0 -166 17 -141 49 -127 c 0
 78 -113 120 -127 136 -143 c 1
 136 -141 l 1
 141 -130 l 1
 150 -101 155 -69 158 -38 c 1
 216 -38 l 1
 216 -40 l 2
 216 -48 210 -90 202 -124 c 0
 193 -161 179 -184 176 -190 c 1
 193 -221 l 1
 253 -189 l 1
 319 -230 l 1
 371 -198 l 1
 371 -176 l 1
 348 -184 325 -181 305 -169 c 0
 270 -147 261 -98 284 -64 c 0
 302 -37 337 -28 369 -37 c 0
 418 -51 425 -94 425 -127 c 2
 425 -225 l 1xe5
175 207 m 0
 175 207 l 0
 236 207 236 299 175 299 c 0
 112 299 112 207 175 207 c 0
377 -106 m 0
 377 -106 l 0
 376 -66 316 -67 317 -107 c 0
 319 -149 379 -146 377 -106 c 0
107 -195 m 1
 107 -192 81 -170 64 -175 c 0
 41 -184 44 -241 75 -238 c 0
 89 -236 97 -227 101 -216 c 0
 106 -205 107 -195 107 -195 c 1
EndSplineSet
Substitution: 0 65534 'nds0' uni0E10.descless
Substitution: 0 65534 'ndsc' uni0E10.descless
EndChar
StartChar: uni0E11
Encoding: 177 3601 145
OldEncoding: 3601
Width: 815
Flags: W
HStem: 0 21G<296 369 633 702>
VStem: 296 69<0 415> 633 69<0 487>
Fore
702 0 m 1
 633 0 l 1
 633 474 l 2
 633 492 625 510 607 513 c 0
 590 517 573 498 567 489 c 1
 564 487 507 394 477 330 c 0
 432 236 382 144 374 84 c 0
 371 52 369 32 369 0 c 1
 296 0 l 1
 296 425 l 2
 296 428 339 457 337 478 c 0
 336 503 296 529 294 529 c 2
 221 492 l 1
 153 529 l 1
 136 521 123 512 113 495 c 0
 101 477 92 457 92 443 c 1
 120 455 149 454 175 446 c 0
 225 431 245 359 219 310 c 0
 187 250 92 250 51 308 c 0
 18 356 18 437 49 498 c 0
 71 544 97 570 141 593 c 1
 221 547 l 1
 302 593 l 1
 326 579 346 564 365 543 c 1
 389 518 405 494 405 492 c 2
 405 460 l 2
 405 458 392 445 388 438 c 0
 382 431 374 423 365 415 c 1
 365 235 l 1
 379 282 417 359 454 426 c 0
 504 520 552 584 601 590 c 0
 630 593 653 576 671 558 c 0
 690 536 702 517 702 487 c 2
 702 0 l 1
138 310 m 0
 202 310 202 406 138 406 c 0
 75 406 75 310 138 310 c 0
EndSplineSet
EndChar
StartChar: uni0E12
Encoding: 178 3602 146
OldEncoding: 3602
Width: 820
Flags: W
HStem: 0 21G<135 208> 236 45<220 231>
VStem: 428 67<69 144 250 445> 632 70<76 589>
Fore
702 100 m 1
 702 100 l 0
 702 61 697 23 664 6 c 0
 593 -28 559 38 532 89 c 0
 477 187 497 138 495 144 c 1
 495 71 l 2
 495 49 483 14 452 3 c 0
 403 -15 362 6 340 43 c 0
 311 92 311 164 346 210 c 0
 368 239 409 250 428 251 c 1
 428 428 l 2
 428 455 423 478 406 497 c 0
 391 517 377 527 363 530 c 1
 279 468 l 1
 192 530 l 1
 189 530 104 492 86 399 c 0
 74 331 97 271 129 205 c 0
 153 155 170 113 172 110 c 1
 172 112 185 147 201 178 c 0
 216 208 227 230 230 236 c 1
 227 236 193 231 162 258 c 0
 129 288 124 346 152 385 c 0
 182 431 250 435 290 406 c 0
 325 379 336 340 325 299 c 0
 311 242 244 161 219 72 c 0
 210 38 210 32 208 0 c 1
 135 0 l 1
 135 3 130 46 112 100 c 0
 77 201 17 256 20 363 c 0
 23 506 109 556 201 593 c 1
 279 535 l 1
 360 595 l 1
 360 595 402 579 435 550 c 0
 490 501 497 455 497 428 c 2
 497 230 l 2
 497 228 520 216 540 182 c 0
 579 113 592 66 619 66 c 0
 636 66 632 92 632 106 c 2
 632 590 l 1
 702 590 l 1
 702 100 l 1
231 281 m 0
 231 281 l 0
 296 279 296 377 231 379 c 0
 166 380 166 282 231 281 c 0
428 78 m 2
 428 199 l 1
 403 192 388 178 379 155 c 0
 366 123 377 57 408 57 c 0
 425 57 428 67 428 78 c 2
EndSplineSet
EndChar
StartChar: uni0E13
Encoding: 179 3603 147
OldEncoding: 3603
Width: 818
Flags: W
HStem: -3 60<717 730> -2 51<187 193> 193 63<694 712.142> 532 61<248 298>
VStem: 86 69<101 324> 405 69<0 448> 625 69<250 590>
Fore
820 139 m 0x7e
 820 139 l 0
 828 46 779 -3 717 -3 c 0xbe
 650 -2 628 44 628 86 c 2
 628 182 l 1
 592 159 569 138 540 104 c 0
 510 69 474 0 472 0 c 2
 405 0 l 1
 405 443 l 2
 405 497 366 532 271 532 c 0
 185 532 144 498 144 498 c 2
 147 498 176 483 201 466 c 0
 225 451 258 423 258 423 c 1
 253 423 212 415 185 386 c 0
 166 366 155 339 155 308 c 2
 155 184 l 1
 155 184 193 199 231 182 c 0
 270 167 293 129 285 77 c 0
 277 29 238 -2 187 -2 c 0
 113 -2 86 49 86 101 c 2
 86 322 l 2
 86 340 92 365 107 389 c 0
 120 412 144 426 144 426 c 1
 144 426 118 451 84 463 c 0
 54 475 37 483 9 487 c 1
 29 513 132 592 268 593 c 0
 409 593 474 532 474 446 c 2
 474 115 l 1
 475 118 507 169 547 202 c 0
 584 233 622 250 625 250 c 1
 625 590 l 1
 694 590 l 1
 694 256 l 1
 751 256 814 227 820 139 c 0x7e
759 149 m 0
 759 149 l 0
 748 192 717 193 694 193 c 1
 694 92 l 2
 694 74 700 55 728 57 c 0
 766 57 766 120 759 149 c 0
187 49 m 0x7e
 250 49 250 141 187 141 c 0
 126 141 126 49 187 49 c 0x7e
EndSplineSet
EndChar
StartChar: uni0E14
Encoding: 180 3604 148
OldEncoding: 3604
Width: 614
Flags: W
HStem: 0 21G<152 212 432 503> 533 57<255 295>
VStem: 432 71<0 417>
Fore
503 0 m 1
 432 0 l 1
 432 405 l 2
 432 480 369 533 274 533 c 0
 187 532 109 480 98 383 c 0
 90 317 112 273 143 216 c 0
 175 156 192 118 193 123 c 0
 212 159 208 147 221 175 c 1
 230 190 242 213 253 230 c 1
 230 231 205 244 189 258 c 0
 153 290 146 346 175 388 c 0
 208 437 291 440 330 399 c 0
 379 348 351 277 320 225 c 0
 282 162 270 143 238 87 c 0
 222 61 216 34 212 0 c 1
 152 0 l 1
 152 40 164 46 135 107 c 0
 98 184 29 267 38 388 c 0
 46 498 149 590 271 590 c 0
 418 590 503 510 503 411 c 2
 503 0 l 1
258 279 m 0
 325 279 325 380 258 380 c 0
 190 380 190 279 258 279 c 0
EndSplineSet
EndChar
StartChar: uni0E15
Encoding: 181 3605 149
OldEncoding: 3605
Width: 645
Flags: W
HStem: 0 21G<176 250 464 533>
VStem: 464 69<0 433>
Fore
533 0 m 1
 464 0 l 1
 464 409 l 2
 464 446 464 464 448 489 c 0
 432 513 423 523 402 532 c 1
 322 474 l 1
 239 536 l 1
 187 517 127 480 116 383 c 0
 109 317 129 270 162 216 c 0
 196 161 216 104 218 107 c 0
 227 126 233 139 254 176 c 1
 265 199 271 212 284 230 c 1
 259 231 233 236 210 258 c 0
 175 291 167 346 195 388 c 0
 230 438 313 441 353 400 c 0
 400 348 371 281 346 225 c 0
 323 178 300 141 277 84 c 0
 265 57 250 40 250 0 c 1
 176 0 l 1
 172 40 173 54 156 107 c 0
 132 189 46 268 55 389 c 0
 64 501 147 567 253 595 c 1
 320 543 l 1
 395 595 l 1
 431 587 463 570 492 536 c 0
 520 506 533 468 533 415 c 2
 533 0 l 1
285 276 m 0
 353 276 353 377 285 377 c 0
 216 377 216 276 285 276 c 0
EndSplineSet
EndChar
StartChar: uni0E16
Encoding: 182 3606 150
OldEncoding: 3606
Width: 628
Flags: W
HStem: -2 51<202 208> 532 61<271 314>
VStem: 101 69<101 324> 452 69<0 431>
Fore
521 0 m 1
 452 0 l 1
 452 418 l 2
 452 501 386 533 296 532 c 0
 210 532 159 498 159 498 c 2
 162 498 192 483 216 466 c 0
 241 451 273 423 273 423 c 1
 268 423 227 415 201 386 c 0
 181 366 170 339 170 308 c 2
 170 184 l 1
 170 184 208 199 247 182 c 0
 285 167 308 129 300 77 c 0
 293 29 253 -2 202 -2 c 0
 129 -2 101 49 101 101 c 2
 101 322 l 2
 101 340 107 365 123 389 c 0
 135 412 159 426 159 426 c 1
 159 426 133 451 100 463 c 0
 69 475 52 483 25 487 c 1
 44 512 156 593 293 593 c 0
 431 593 521 530 521 422 c 2
 521 0 l 1
202 49 m 0
 265 49 265 141 202 141 c 0
 141 141 141 49 202 49 c 0
EndSplineSet
EndChar
StartChar: uni0E17
Encoding: 183 3607 151
OldEncoding: 3607
Width: 691
Flags: W
HStem: 0 21G<176 245 512 581> 541 51<144 146>
VStem: 176 69<0 65.8948 0 489> 512 69<0 481>
Fore
581 0 m 1
 512 0 l 1
 512 461 l 2
 512 480 512 512 503 524 c 0
 490 540 454 540 432 507 c 0
 405 466 320 348 276 218 c 0
 247 135 245 89 245 0 c 1
 176 0 l 1
 176 406 l 1
 176 406 138 391 100 408 c 0
 61 423 38 461 46 513 c 0
 54 561 94 592 144 592 c 0
 218 592 245 541 245 489 c 2
 245 299 l 1
 245 299 294 400 330 463 c 0
 374 543 422 595 480 592 c 0
 518 590 523 586 546 561 c 0
 581 521 581 480 581 452 c 2
 581 0 l 1
144 449 m 0
 205 449 205 541 144 541 c 0
 81 541 81 449 144 449 c 0
EndSplineSet
EndChar
StartChar: uni0E18
Encoding: 184 3608 152
OldEncoding: 3608
Width: 548
Flags: W
HStem: 0 66<86 349>
VStem: 86 136<0 418> 153 69<65 418> 368 69<94 337>
Fore
346 434 m 0xb0
 346 434 l 0
 399 400 418 379 437 337 c 1
 437 89 l 2
 437 64 429 51 415 32 c 0
 399 12 377 5 349 0 c 1
 87 0 l 1
 86 66 l 1xd0
 153 66 l 1
 153 435 l 1
 100 443 l 1
 40 445 l 2
 11 445 34 498 52 523 c 0
 95 578 141 587 207 589 c 0
 293 590 328 559 418 558 c 0
 452 558 484 569 503 590 c 1
 533 533 l 1
 515 521 501 512 480 506 c 0
 437 495 411 497 362 506 c 1
 302 524 265 527 239 533 c 0
 216 536 193 533 172 533 c 0
 153 533 138 527 124 518 c 0
 110 509 97 495 103 495 c 0
 221 490 314 457 346 434 c 0xb0
368 95 m 1
 368 319 l 1
 354 351 343 366 305 388 c 0
 279 402 250 414 222 418 c 1
 222 64 l 1
 265 63 302 64 339 67 c 0
 354 67 360 83 368 95 c 1
EndSplineSet
EndChar
StartChar: uni0E19
Encoding: 185 3609 153
OldEncoding: 3609
Width: 668
Flags: W
HStem: -3 21G<147 216> 204 63<513 520> 540 49<115 117>
VStem: 147 69<-3 486> 451 62<92.9175 204> 451 69<267 587>
Fore
625 44 m 0xf4
 625 44 l 0
 601 2 541 -17 498 6 c 0
 458 26 451 66 451 112 c 2
 451 204 l 1xf8
 449 204 406 207 313 130 c 0
 244 72 219 5 216 -3 c 1
 147 -3 l 1
 147 403 l 1
 147 403 109 388 71 405 c 0
 32 422 9 460 17 510 c 0
 25 558 64 589 115 589 c 0
 189 589 216 540 216 486 c 2
 216 116 l 1
 216 116 254 170 322 215 c 0
 377 251 446 268 451 268 c 1
 451 587 l 1
 520 587 l 1
 520 267 l 1
 524 267 561 271 609 230 c 0
 653 192 656 95 625 44 c 0xf4
581 138 m 0
 581 138 l 0
 576 212 515 204 513 204 c 1
 513 113 l 2
 513 71 524 54 547 55 c 0
 581 58 584 109 581 138 c 0
115 446 m 0
 176 446 176 540 115 540 c 0
 52 540 52 446 115 446 c 0
EndSplineSet
EndChar
StartChar: uni0E1A
Encoding: 186 3610 154
OldEncoding: 3610
Width: 643
Flags: W
HStem: 0 66<66 438> 541 51<109 111>
VStem: 139 66<66 489> 463 66<95 590>
Fore
529 89 m 1
 529 89 l 0
 529 63 521 44 504 26 c 0
 489 11 464 0 438 0 c 2
 66 0 l 1
 66 66 l 1
 139 66 l 1
 139 406 l 1
 139 406 104 391 67 408 c 0
 31 423 9 461 17 513 c 0
 23 561 61 592 109 592 c 0
 179 592 205 541 205 489 c 2
 205 66 l 1
 418 66 l 2
 432 66 446 71 455 81 c 0
 466 92 463 104 463 118 c 2
 463 590 l 1
 529 590 l 5
 529 89 l 1
109 449 m 0
 169 449 169 541 109 541 c 0
 51 541 51 449 109 449 c 0
EndSplineSet
EndChar
StartChar: uni0E1B
Encoding: 187 3611 155
OldEncoding: 3611
Width: 636
Flags: HW
HStem: 0 66<74 441> 541 51<116 120>
VStem: 147 66<66 489> 466 66<95 886>
AnchorPoint: "AboveBase" 424 659 basechar 0
Fore
532 89 m 1
 532 89 l 0
 532 63 524 44 507 26 c 0
 492 11 468 0 441 0 c 2
 74 0 l 1
 74 66 l 1
 147 66 l 1
 147 406 l 1
 147 406 112 391 75 408 c 0
 38 423 17 461 25 513 c 0
 31 561 69 592 116 592 c 0
 187 592 213 541 213 489 c 2
 213 66 l 1
 422 66 l 2
 435 66 449 71 458 81 c 0
 469 92 466 104 466 118 c 2
 466 886 l 1
 532 886 l 1
 532 89 l 1
116 449 m 0
 176 449 176 541 116 541 c 0
 58 541 58 449 116 449 c 0
EndSplineSet
EndChar
StartChar: uni0E1C
Encoding: 188 3612 156
OldEncoding: 3612
Width: 639
Flags: W
HStem: 0 21G<454 520> 541 51<181 191.08>
VStem: 84 66<2 406> 454 66<130 590>
Fore
520 0 m 1
 454 0 l 0
 445 29 415 90 379 141 c 0
 348 185 322 212 302 227 c 1
 282 212 262 193 224 143 c 0
 187 97 161 35 150 2 c 1
 84 2 l 1
 84 489 l 2
 84 535 113 590 181 592 c 0
 228 592 267 561 273 513 c 0
 281 461 259 423 224 408 c 0
 187 391 150 406 150 406 c 1
 150 130 l 1
 152 135 189 195 222 230 c 0
 251 261 270 281 302 303 c 1
 333 282 353 261 380 231 c 0
 415 195 454 132 454 130 c 2
 454 590 l 1
 520 590 l 1
 520 0 l 1
181 449 m 0
 239 449 239 541 181 541 c 0
 123 541 123 449 181 449 c 0
EndSplineSet
EndChar
StartChar: uni0E1D
Encoding: 189 3613 157
OldEncoding: 3613
Width: 639
Flags: HW
HStem: 0 21G<466 532> 541 51<193 203.08>
VStem: 97 65<2 406> 466 66<130 886>
AnchorPoint: "AboveBase" 427 659 basechar 0
Fore
532 0 m 1
 466 0 l 0
 457 29 428 90 391 141 c 0
 360 185 334 212 314 227 c 1
 294 212 274 193 236 143 c 0
 199 97 173 35 162 2 c 1
 97 2 l 1
 97 489 l 2
 97 535 126 590 193 592 c 0
 241 592 279 561 285 513 c 0
 293 461 271 423 236 408 c 0
 199 391 162 406 162 406 c 1
 162 130 l 1
 164 135 201 195 235 230 c 0
 264 261 282 281 314 303 c 1
 345 282 365 261 392 231 c 0
 428 195 466 132 466 130 c 2
 466 886 l 1
 532 886 l 1
 532 0 l 1
193 449 m 0
 251 449 251 541 193 541 c 0
 135 541 135 449 193 449 c 0
EndSplineSet
EndChar
StartChar: uni0E1E
Encoding: 190 3614 158
OldEncoding: 3614
Width: 698
Flags: W
HStem: 0 21G<143 210 521 586> 541 51<112 114>
VStem: 143 67<0 0 0 489> 520 66<196 590>
Fore
586 0 m 1
 521 0 l 0
 520 6 506 92 429 254 c 0
 377 365 362 463 362 463 c 1
 362 460 353 366 296 247 c 0
 221 90 210 2 210 0 c 1
 143 0 l 1
 143 406 l 1
 143 406 107 391 71 408 c 0
 34 423 12 461 20 513 c 0
 26 561 64 592 112 592 c 0
 182 592 208 541 208 489 c 2
 208 196 l 1
 208 196 236 258 261 317 c 0
 282 368 299 422 310 471 c 0
 328 549 323 587 323 590 c 1
 392 590 l 1
 392 589 394 549 412 472 c 0
 425 420 443 374 464 328 c 0
 494 262 518 202 520 196 c 1
 520 590 l 1
 586 590 l 1
 586 0 l 1
112 449 m 0
 172 449 172 541 112 541 c 0
 54 541 54 449 112 449 c 0
EndSplineSet
EndChar
StartChar: uni0E1F
Encoding: 191 3615 159
OldEncoding: 3615
Width: 698
Flags: HW
HStem: 0 21G<139 207 518 582> 541 51<109 111>
VStem: 139 68<0 0 0 489> 517 65<196 884>
AnchorPoint: "AboveBase" 487 659 basechar 0
Fore
582 0 m 1
 518 0 l 0
 517 6 503 92 426 254 c 0
 374 365 359 463 359 463 c 1
 359 460 349 366 293 247 c 0
 218 90 207 2 207 0 c 1
 139 0 l 1
 139 406 l 1
 139 406 104 391 67 408 c 0
 31 423 9 461 17 513 c 0
 23 561 61 592 109 592 c 0
 179 592 205 541 205 489 c 2
 205 196 l 1
 205 196 233 258 258 317 c 0
 279 368 296 422 307 471 c 0
 325 549 320 587 320 590 c 1
 389 590 l 1
 389 589 391 549 409 472 c 0
 422 420 440 374 461 328 c 0
 490 262 515 202 517 196 c 1
 517 884 l 1
 582 884 l 1
 582 0 l 1
109 449 m 0
 169 449 169 541 109 541 c 0
 51 541 51 449 109 449 c 0
EndSplineSet
EndChar
StartChar: uni0E20
Encoding: 192 3616 160
OldEncoding: 3616
Width: 712
Flags: W
HStem: -2 51<146 148> 532 61<346 399>
VStem: 178 69<184 324> 529 69<0 431>
Fore
598 0 m 1
 529 0 l 1
 529 418 l 2
 529 501 461 533 372 532 c 0
 287 532 235 498 235 498 c 2
 238 498 267 483 293 466 c 0
 317 451 348 423 348 423 c 1
 343 423 303 415 276 386 c 0
 258 366 247 339 247 308 c 2
 247 101 l 2
 247 49 219 -2 146 -2 c 0
 95 -2 55 29 48 77 c 0
 40 129 63 167 101 182 c 0
 139 199 178 184 178 184 c 1
 178 322 l 2
 178 340 182 365 198 389 c 0
 212 412 235 426 235 426 c 1
 235 426 210 451 176 463 c 0
 146 475 129 483 101 487 c 1
 120 512 231 593 369 593 c 0
 506 593 598 530 598 422 c 2
 598 0 l 1
146 49 m 0
 207 49 207 141 146 141 c 0
 83 141 83 49 146 49 c 0
EndSplineSet
EndChar
StartChar: uni0E21
Encoding: 193 3617 161
OldEncoding: 3617
Width: 665
Flags: W
HStem: -3 21G<127.5 198.5> 541 51<161 168>
VStem: 193 69<81 156 250 489> 475 71<108 590>
Fore
546 136 m 1
 546 136 l 0
 546 89 546 41 507 17 c 0
 464 -12 411 -8 372 35 c 2
 262 156 l 1
 262 83 l 2
 262 37 222 -3 175 -3 c 0
 80 -3 41 103 81 187 c 0
 103 230 144 251 193 251 c 1
 193 406 l 1
 193 406 155 391 116 408 c 0
 78 423 55 461 63 513 c 0
 71 561 110 592 161 592 c 0
 235 592 262 541 262 489 c 2
 262 238 l 1
 379 118 l 2
 400 97 422 67 449 67 c 0
 474 69 475 100 475 124 c 2
 475 590 l 1
 546 590 l 1
 546 136 l 1
161 449 m 0
 161 449 l 0
 222 449 222 541 161 541 c 0
 98 541 98 449 161 449 c 0
193 95 m 2
 193 189 l 1
 170 189 149 187 136 164 c 0
 116 126 127 49 166 55 c 0
 185 58 193 63 193 95 c 2
EndSplineSet
EndChar
StartChar: uni0E22
Encoding: 194 3618 162
OldEncoding: 3618
Width: 622
Flags: W
HStem: 0 66<155 394> 540 50<187 195>
VStem: 86 69<0 68 141 161 367 405> 435 69<111 257 116 590>
Fore
155 146 m 0
 155 146 l 0
 153 104 155 66 155 66 c 1
 388 66 l 2
 400 66 409 71 418 77 c 0
 429 86 435 100 435 116 c 2
 435 590 l 1
 504 590 l 1
 504 113 l 2
 504 81 497 55 475 32 c 0
 454 9 426 0 392 0 c 2
 86 0 l 1
 86 141 l 2
 86 173 92 215 109 238 c 0
 124 259 158 274 176 281 c 1
 158 284 124 296 106 317 c 0
 89 340 86 348 86 376 c 2
 86 487 l 2
 86 533 116 589 187 590 c 0
 238 590 277 559 285 512 c 0
 293 460 270 422 231 406 c 0
 193 389 155 405 155 405 c 1
 155 372 l 2
 155 351 159 342 187 320 c 0
 208 303 273 297 273 297 c 1
 273 297 273 265 273 258 c 0
 273 261 207 258 182 230 c 0
 162 205 156 193 155 146 c 0
187 448 m 0
 250 448 250 540 187 540 c 0
 126 540 126 448 187 448 c 0
EndSplineSet
EndChar
StartChar: uni0E23
Encoding: 195 3619 163
OldEncoding: 3619
Width: 501
Flags: W
HStem: -2 51<302 304>
VStem: 334 71<184 321>
Fore
484 529 m 1
 484 529 l 0
 458 518 448 510 414 506 c 0
 339 497 276 553 190 530 c 0
 156 523 136 500 138 500 c 2
 138 500 250 487 331 438 c 0
 399 399 405 365 405 308 c 2
 405 101 l 2
 405 49 376 -2 302 -2 c 0
 251 -2 212 29 205 77 c 0
 198 129 219 167 258 182 c 0
 296 199 334 184 334 184 c 1
 334 319 l 2
 334 374 288 405 207 429 c 0
 133 451 29 464 32 466 c 1
 31 466 71 552 144 576 c 0
 264 618 320 561 391 561 c 0
 425 561 449 581 451 581 c 1
 484 529 l 1
302 49 m 0
 365 49 365 141 302 141 c 0
 241 141 241 49 302 49 c 0
EndSplineSet
EndChar
StartChar: uni0E24
Encoding: 196 3620 164
OldEncoding: 3620
Width: 610
Flags: W
HStem: -2 51<192 198> 532 61<260 303>
VStem: 90 69<101 324> 441 69<-215 428>
Fore
510 -215 m 1
 441 -215 l 1
 441 418 l 2
 441 501 376 533 285 532 c 0
 199 532 149 498 149 498 c 2
 152 498 181 483 205 466 c 0
 230 451 262 423 262 423 c 1
 258 423 216 415 190 386 c 0
 170 366 159 339 159 308 c 2
 159 184 l 1
 159 184 198 199 236 182 c 0
 274 167 297 129 290 77 c 0
 282 29 242 -2 192 -2 c 0
 118 -2 90 49 90 101 c 2
 90 322 l 2
 90 340 97 365 112 389 c 0
 124 412 149 426 149 426 c 1
 149 426 123 451 89 463 c 0
 58 475 41 483 14 487 c 1
 34 512 146 593 282 593 c 0
 420 593 510 530 510 422 c 2
 510 -215 l 1
192 49 m 0
 254 49 254 141 192 141 c 0
 130 141 130 49 192 49 c 0
EndSplineSet
EndChar
StartChar: uni0E25
Encoding: 197 3621 165
OldEncoding: 3621
Width: 593
Flags: W
HStem: -2 51<190 201>
VStem: 87 69<101 319> 412 69<0 421>
Fore
481 0 m 1
 412 0 l 1
 412 63 l 2
 412 81 374 170 330 239 c 0
 288 302 235 377 190 362 c 0
 170 356 156 333 156 308 c 2
 156 184 l 1
 156 184 195 199 233 182 c 0
 271 167 294 129 287 77 c 0
 279 29 239 -2 190 -2 c 0
 115 -2 87 49 87 101 c 2
 87 305 l 2
 87 366 129 411 173 417 c 0
 261 432 307 371 346 319 c 0
 392 259 411 219 412 215 c 1
 412 409 l 2
 412 481 379 530 268 530 c 0
 162 532 116 471 103 437 c 1
 52 472 l 1
 71 503 95 536 149 566 c 0
 208 598 331 601 394 564 c 0
 471 520 481 458 481 412 c 2
 481 0 l 1
190 49 m 0
 251 49 251 141 190 141 c 0
 127 141 127 49 190 49 c 0
EndSplineSet
EndChar
StartChar: uni0E26
Encoding: 198 3622 166
OldEncoding: 3622
Width: 666
Flags: W
HStem: -2 51<104 106> 532 61<306 359>
VStem: 136 71<184 324> 487 71<-215 428>
Fore
558 -215 m 1
 487 -215 l 1
 487 418 l 2
 487 501 422 533 331 532 c 0
 247 532 195 498 195 498 c 2
 198 498 227 483 251 466 c 0
 277 451 308 423 308 423 c 1
 303 423 262 415 236 386 c 0
 216 366 207 339 207 308 c 2
 207 101 l 2
 207 49 178 -2 104 -2 c 0
 54 -2 14 29 8 77 c 0
 0 129 21 167 60 182 c 0
 98 199 136 184 136 184 c 1
 136 322 l 2
 136 340 143 365 158 389 c 0
 170 412 195 426 195 426 c 1
 195 426 170 451 135 463 c 0
 104 475 89 483 60 487 c 1
 80 512 192 593 330 593 c 0
 466 593 558 530 558 422 c 2
 558 -215 l 1
104 49 m 0
 167 49 167 141 104 141 c 0
 43 141 43 49 104 49 c 0
EndSplineSet
EndChar
StartChar: uni0E27
Encoding: 199 3623 167
OldEncoding: 3623
Width: 545
Flags: W
HStem: -2 51<336 338> 533 60<206 240>
VStem: 368 69<184 431>
Fore
437 101 m 1
 437 101 l 0
 437 49 409 -2 336 -2 c 0
 285 -2 245 29 238 77 c 0
 230 129 253 167 291 182 c 0
 330 199 368 184 368 184 c 1
 368 412 l 2
 368 504 310 533 225 533 c 0
 136 535 83 477 69 429 c 1
 15 454 l 1
 40 518 106 592 224 593 c 0
 356 595 437 520 437 425 c 2
 437 101 l 1
336 49 m 0
 397 49 397 141 336 141 c 0
 273 141 273 49 336 49 c 0
EndSplineSet
EndChar
StartChar: uni0E28
Encoding: 200 3624 168
OldEncoding: 3624
Width: 610
Flags: W
HStem: 0 21G<121 190 431 500> 371 49<216 224> 532 61<248 287>
VStem: 121 69<0 235> 431 69<0 397>
Fore
546 598 m 1
 546 598 l 1
 546 598 536 563 515 530 c 0
 497 506 478 487 475 486 c 1
 475 484 489 472 494 446 c 0
 498 426 500 409 500 397 c 2
 500 0 l 1
 431 0 l 1
 431 366 l 2
 431 374 429 385 429 397 c 0
 428 428 417 438 417 440 c 1
 417 440 397 417 366 392 c 0
 343 372 314 354 313 354 c 1
 328 311 314 256 267 236 c 0
 222 216 190 235 190 235 c 1
 190 0 l 1
 121 0 l 1
 121 98 l 2
 121 115 118 130 110 146 c 0
 87 198 21 288 25 383 c 0
 29 497 109 592 268 593 c 0
 394 595 438 533 438 535 c 1
 438 535 452 549 466 576 c 0
 478 602 483 619 483 619 c 1
 546 598 l 1
394 490 m 0
 394 490 l 0
 379 501 368 533 262 532 c 0
 139 532 95 449 89 382 c 0
 84 310 121 256 124 253 c 1
 124 317 l 2
 124 353 147 420 222 420 c 0
 268 422 284 400 285 399 c 1
 308 412 323 425 342 440 c 0
 368 460 377 471 394 490 c 0
224 277 m 0
 285 277 285 371 224 371 c 0
 162 371 162 277 224 277 c 0
EndSplineSet
EndChar
StartChar: uni0E29
Encoding: 201 3625 169
OldEncoding: 3625
Width: 666
Flags: W
HStem: 0 66<81 460> 222 51<414 484> 541 51<124 126>
VStem: 155 66<66 489> 484 66<90 236 281 590>
Fore
667 362 m 1
 667 362 l 1
 667 362 656 319 616 282 c 0
 592 258 578 248 550 236 c 1
 550 89 l 2
 550 63 544 44 527 26 c 0
 512 11 486 0 460 0 c 2
 81 0 l 1
 81 66 l 1
 155 66 l 1
 155 406 l 1
 155 406 120 391 83 408 c 0
 46 423 25 461 32 513 c 0
 38 561 77 592 124 592 c 0
 195 592 221 541 221 489 c 2
 221 66 l 1
 440 66 l 2
 454 66 468 71 478 81 c 0
 487 92 484 104 484 118 c 2
 484 222 l 1
 483 222 443 210 382 222 c 0
 330 233 285 256 274 303 c 0
 262 357 290 415 356 417 c 0
 409 420 440 380 441 336 c 0
 441 296 423 281 414 273 c 1
 417 273 432 271 449 271 c 0
 471 273 483 281 484 281 c 1
 484 590 l 1
 550 590 l 1
 550 299 l 1
 553 300 575 317 589 336 c 0
 610 365 615 392 615 394 c 1
 667 362 l 1
359 288 m 0
 359 288 l 0
 412 290 409 374 356 374 c 0
 302 372 305 287 359 288 c 0
124 449 m 0
 184 449 184 541 124 541 c 0
 66 541 66 449 124 449 c 0
EndSplineSet
EndChar
StartChar: uni0E2A
Encoding: 202 3626 170
OldEncoding: 3626
Width: 579
Flags: W
HStem: -2 51<173 179>
VStem: 71 68<101 319> 395 69<0 412>
Fore
549 555 m 1
 549 555 l 0
 536 530 529 518 506 490 c 0
 484 464 463 451 463 448 c 1
 463 448 464 435 464 429 c 0
 464 423 464 422 464 412 c 2
 464 0 l 1
 395 0 l 1
 395 63 l 2
 395 81 357 170 313 239 c 0
 271 302 218 377 173 362 c 0
 153 356 139 333 139 308 c 2
 139 184 l 1
 139 184 178 199 216 182 c 0
 254 167 277 129 270 77 c 0
 262 29 222 -2 173 -2 c 0
 98 -2 71 49 71 101 c 2
 71 305 l 2
 71 366 113 411 156 417 c 0
 225 429 265 397 270 394 c 1
 291 403 308 412 330 425 c 0
 357 441 383 464 385 464 c 1
 380 471 363 530 251 530 c 0
 146 532 101 469 86 437 c 1
 35 472 l 1
 54 503 77 538 132 566 c 0
 201 599 297 596 357 570 c 0
 412 547 434 512 435 509 c 1
 449 521 454 524 472 550 c 0
 483 564 495 590 498 598 c 1
 549 555 l 1
395 215 m 0
 395 409 l 1
 395 409 368 389 351 380 c 0
 334 371 319 363 300 356 c 1
 311 342 290 371 330 319 c 0
 376 259 392 219 395 215 c 0
173 49 m 0
 235 49 235 141 173 141 c 0
 110 141 110 49 173 49 c 0
EndSplineSet
EndChar
StartChar: uni0E2B
Encoding: 203 3627 171
OldEncoding: 3627
Width: 651
Flags: W
HStem: 0 21G<149 218 469 538> 541 51<116 118> 556 45<431 449>
VStem: 149 69<0 489> 469 69<0 305>
Fore
438 446 m 0xb8
 438 446 l 0
 440 448 441 449 443 449 c 0
 463 460 483 487 486 506 c 0
 489 524 477 556 438 556 c 0
 399 556 389 532 388 513 c 0
 386 495 397 478 412 463 c 0
 418 457 428 452 438 446 c 0xb8
463 348 m 0
 463 348 l 0
 460 359 457 369 438 385 c 1
 431 376 418 365 412 357 c 0
 385 322 356 288 316 225 c 0
 265 147 239 89 218 0 c 1
 149 0 l 1
 149 406 l 1
 149 406 110 391 72 408 c 0
 34 423 11 461 18 513 c 0
 26 561 66 592 116 592 c 0xd8
 190 592 218 541 218 489 c 2
 218 179 l 1
 218 179 258 253 310 317 c 0
 334 348 368 388 399 415 c 1
 392 417 389 423 383 426 c 0
 334 457 336 483 333 512 c 0
 330 543 357 601 437 601 c 0
 515 601 535 547 540 515 c 0
 544 483 527 455 512 440 c 0
 504 432 494 425 481 415 c 1
 492 406 500 397 503 392 c 0
 513 377 526 357 532 339 c 0
 541 307 538 268 538 230 c 2
 538 0 l 1
 469 0 l 1
 469 274 l 2
 469 317 469 323 463 348 c 0
116 449 m 0
 178 449 178 541 116 541 c 0
 54 541 54 449 116 449 c 0
EndSplineSet
EndChar
StartChar: uni0E2C
Encoding: 204 3628 172
OldEncoding: 3628
Width: 706
Flags: W
HStem: 0 21G<139 224 517 607> 530 49<116 120> 589 55<449 458>
VStem: 536 71<103 468>
Fore
546 540 m 0
 546 540 l 0
 546 549 509 587 458 589 c 0
 406 590 362 556 366 550 c 0
 374 540 406 513 455 512 c 0
 500 512 543 520 546 540 c 0
536 107 m 1
 536 103 l 1
 536 103 536 464 536 468 c 1
 536 468 515 458 451 455 c 0
 372 452 296 513 302 549 c 0
 305 567 348 644 452 644 c 0
 536 644 570 601 581 589 c 0
 596 570 586 581 599 566 c 1
 615 579 627 596 635 607 c 0
 644 622 659 639 668 658 c 1
 676 648 711 609 704 616 c 1
 690 592 691 589 661 552 c 0
 642 532 610 498 607 503 c 1
 607 0 l 1
 517 0 l 1
 368 334 l 1
 372 326 224 0 224 0 c 1
 139 0 l 1
 139 394 l 1
 139 394 112 379 75 395 c 0
 38 412 17 451 25 501 c 0
 31 549 69 579 116 579 c 0
 187 579 215 530 215 477 c 1
 215 477 210 127 213 130 c 1
 345 435 l 1
 348 437 377 435 394 435 c 1
 536 107 l 1
116 437 m 0
 176 437 176 530 116 530 c 0
 58 530 58 437 116 437 c 0
EndSplineSet
EndChar
StartChar: uni0E2D
Encoding: 205 3629 173
OldEncoding: 3629
Width: 567
Flags: W
HStem: 0 66<187 380> 359 50<184 190> 536 57<248 267>
VStem: 87 66<98 222> 397 66<95 433>
Fore
463 92 m 1
 463 92 l 0
 463 67 457 49 445 31 c 0
 428 9 400 0 380 0 c 2
 175 0 l 2
 149 0 129 9 110 28 c 0
 95 44 87 69 87 98 c 2
 87 305 l 2
 87 353 116 408 184 409 c 0
 231 409 270 377 276 331 c 0
 284 279 262 241 225 224 c 0
 189 208 153 222 153 222 c 1
 153 120 l 2
 153 104 155 94 164 83 c 0
 172 74 182 66 195 66 c 2
 357 66 l 2
 369 66 383 69 389 78 c 0
 397 87 397 101 397 115 c 2
 397 417 l 2
 397 487 349 536 267 536 c 0
 184 536 129 497 109 445 c 1
 57 477 l 1
 97 558 172 592 265 593 c 0
 380 596 463 527 463 420 c 2
 463 92 l 1
184 265 m 0
 242 265 242 359 184 359 c 0
 124 359 124 265 184 265 c 0
EndSplineSet
EndChar
StartChar: uni0E2E
Encoding: 206 3630 174
OldEncoding: 3630
Width: 547
Flags: W
HStem: 0 66<151 359> 536 57<216 236>
VStem: 25 72<491.116 494> 51 65<98 155> 372 69<438 448>
Fore
500 566 m 1xe8
 500 566 l 0
 490 544 481 530 469 512 c 0
 458 497 446 484 434 474 c 1
 435 469 441 458 441 448 c 0
 441 434 441 431 441 420 c 2
 441 92 l 2
 441 67 437 49 425 31 c 0
 408 9 380 0 359 0 c 2
 139 0 l 2
 113 0 94 9 75 28 c 0
 60 44 51 69 51 98 c 2
 51 238 l 2
 51 285 81 340 147 340 c 0
 196 342 233 310 241 262 c 0
 248 212 227 173 190 156 c 0
 153 139 116 155 116 155 c 1
 116 120 l 2xd8
 116 104 120 94 129 83 c 0
 135 74 147 66 159 66 c 2
 337 66 l 2
 349 66 362 69 369 78 c 0
 376 87 376 101 376 115 c 2
 376 403 l 2
 376 411 377 414 376 423 c 0
 374 429 372 435 372 440 c 1
 362 434 307 397 201 400 c 0
 98 402 23 460 25 495 c 0
 28 530 121 593 235 593 c 0
 354 593 379 549 405 529 c 1
 408 530 423 547 431 561 c 0
 440 573 445 584 451 599 c 1
 500 566 l 1xe8
356 494 m 0
 356 494 l 0
 313 524 287 538 236 536 c 0
 164 536 97 507 97 494 c 0xe8
 97 481 172 448 236 452 c 0
 297 455 314 466 356 494 c 0
147 198 m 0
 207 198 207 291 147 291 c 0
 89 291 89 198 147 198 c 0
EndSplineSet
EndChar
StartChar: uni0E2F
Encoding: 207 3631 175
OldEncoding: 3631
Width: 518
Flags: W
VStem: 377 69<127.491 372>
Fore
446 144 m 1
 446 144 l 0
 446 115 440 66 403 35 c 0
 377 14 356 0 319 -2 c 1
 290 51 l 1
 305 51 333 58 357 83 c 0
 372 98 377 121 377 146 c 2
 377 372 l 1
 353 328 293 281 205 282 c 0
 75 284 26 389 35 481 c 0
 43 563 115 607 184 584 c 0
 253 563 254 468 208 428 c 0
 181 403 139 399 106 415 c 1
 110 400 113 353 173 339 c 0
 254 322 311 374 342 428 c 0
 380 497 379 575 377 590 c 1
 397 593 412 587 428 575 c 0
 441 564 446 549 446 530 c 2
 446 144 l 1
147 452 m 0
 208 452 208 546 147 546 c 0
 84 546 84 452 147 452 c 0
EndSplineSet
EndChar
StartChar: uni0E30
Encoding: 208 3632 176
OldEncoding: 3632
Width: 510
Flags: W
Fore
435 472 m 1
 435 472 l 0
 429 463 376 409 293 380 c 0
 242 363 147 351 90 405 c 0
 48 446 49 556 150 570 c 0
 205 576 254 543 259 494 c 0
 262 463 258 449 247 428 c 1
 264 432 305 445 348 477 c 0
 391 509 418 544 435 572 c 1
 435 472 l 1
435 116 m 1
 435 116 l 0
 429 107 376 54 293 25 c 0
 242 8 147 -5 90 49 c 0
 48 90 49 201 150 215 c 0
 205 221 254 187 259 138 c 0
 262 107 258 94 247 72 c 1
 264 77 305 89 348 121 c 0
 391 153 418 189 435 216 c 1
 435 116 l 1
164 428 m 0
 164 428 l 0
 227 428 227 524 164 524 c 0
 100 524 100 428 164 428 c 0
164 72 m 0
 227 72 227 169 164 169 c 0
 100 169 100 72 164 72 c 0
EndSplineSet
EndChar
StartChar: uni0E31
Encoding: 209 3633 177
OldEncoding: 3633
Width: 0
Flags: HW
HStem: 789 21G<-317.5 -250>
AnchorPoint: "AboveMark" -113 988 basemark 0
AnchorPoint: "AboveBase" -113 659 mark 0
Fore
78 812 m 1
 78 812 l 0
 46 783 -20 745 -87 730 c 0
 -189 704 -330 697 -374 797 c 0
 -394 842 -374 926 -296 935 c 0
 -222 944 -179 886 -187 828 c 0
 -193 789 -204 786 -213 776 c 1
 -172 774 -132 774 -69 802 c 0
 11 835 69 907 78 921 c 1
 78 812 l 1
-284 789 m 0
 -216 789 -216 891 -284 891 c 0
 -351 891 -351 789 -284 789 c 0
EndSplineSet
EndChar
StartChar: uni0E32
Encoding: 210 3634 178
OldEncoding: 3634
Width: 438
Flags: W
HStem: 0 21G<290 359>
VStem: 290 69<0 433>
Fore
359 0 m 1
 290 0 l 1
 290 406 l 2
 290 495 270 532 189 532 c 0
 98 532 74 472 58 441 c 1
 6 477 l 1
 32 532 64 596 190 592 c 0
 336 587 359 503 359 418 c 2
 359 0 l 1
EndSplineSet
EndChar
StartChar: uni0E33
Encoding: 211 3635 179
OldEncoding: 3635
Width: 438
Flags: W
HStem: 0 21G<284 353> 676 52<-182 -175> 837 52<-182 -175>
VStem: 284 69<0 433>
Fore
-182 676 m 0
 -182 676 l 0
 -323 676 -323 889 -182 889 c 0
 -41 889 -41 676 -182 676 c 0
-182 728 m 0
 -182 728 l 0
 -109 728 -109 837 -182 837 c 0
 -254 837 -254 728 -182 728 c 0
353 0 m 1
 284 0 l 1
 284 406 l 2
 284 495 264 532 182 532 c 0
 92 532 67 472 52 441 c 1
 0 477 l 1
 26 532 58 596 184 592 c 0
 330 587 353 503 353 418 c 2
 353 0 l 1
EndSplineSet
MultipleSubs: 0 1 'ccmp' uni0E4D uni0E32
EndChar
StartChar: uni0E34
Encoding: 212 3636 180
OldEncoding: 3636
Width: 0
Flags: HW
HStem: 704 55<-348 -306.171> 829 54<-354 -320>
AnchorPoint: "AboveMark" -147 988 basemark 0
AnchorPoint: "AboveBase" -113 659 mark 0
Fore
-112 656 m 0
 -112 656 l 0
 -198 691 -247 705 -348 704 c 0
 -429 704 -484 691 -561 662 c 1
 -559 788 -472 881 -337 883 c 0
 -208 884 -112 780 -112 656 c 0
-176 730 m 1
 -205 794 -262 829 -333 829 c 0
 -405 829 -452 797 -483 737 c 1
 -448 748 -414 757 -342 759 c 0
 -270 760 -216 743 -176 730 c 1
EndSplineSet
EndChar
StartChar: uni0E35
Encoding: 213 3637 181
OldEncoding: 3637
Width: 0
Flags: HW
HStem: 708 54<-334 -289.958> 834 53<-340 -306> 936 20G<-182 -113>
VStem: -182 69<829 956>
AnchorPoint: "AboveMark" -147 988 basemark 0
AnchorPoint: "AboveBase" -113 659 mark 0
Fore
-98 661 m 0
 -98 661 l 0
 -184 696 -233 708 -334 708 c 0
 -415 707 -471 696 -547 667 c 1
 -549 792 -449 887 -325 887 c 0
 -213 887 -184 829 -182 829 c 1
 -182 956 l 1
 -113 956 l 1
 -113 760 l 1
 -113 760 -106 737 -103 714 c 0
 -100 693 -98 665 -98 661 c 0
-164 734 m 1
 -192 799 -248 834 -320 834 c 0
 -391 834 -440 800 -469 742 c 1
 -434 753 -402 760 -328 762 c 0
 -256 763 -204 748 -164 734 c 1
EndSplineSet
EndChar
StartChar: uni0E36
Encoding: 214 3638 182
OldEncoding: 3638
Width: 0
Flags: HW
HStem: 688 55<-368 -342> 814 54<-333 -285>
AnchorPoint: "AboveMark" -196 988 basemark 0
AnchorPoint: "AboveBase" -113 659 mark 0
Fore
-110 843 m 0
 -110 843 l 0
 -118 820 -135 805 -158 796 c 1
 -141 773 -133 763 -124 730 c 0
 -110 684 -112 664 -112 642 c 1
 -198 677 -245 690 -348 688 c 0
 -429 688 -483 677 -559 648 c 1
 -561 728 -524 797 -464 835 c 0
 -376 891 -291 868 -285 868 c 1
 -287 880 -294 898 -277 927 c 0
 -248 976 -178 975 -147 956 c 0
 -106 932 -95 884 -110 843 c 0
-196 834 m 0
 -196 834 l 0
 -135 834 -135 924 -196 924 c 0
 -256 924 -256 834 -196 834 c 0
-176 716 m 1
 -205 779 -262 814 -333 814 c 0
 -403 814 -452 782 -481 723 c 1
 -446 733 -414 742 -342 743 c 0
 -270 745 -216 728 -176 716 c 1
EndSplineSet
EndChar
StartChar: uni0E37
Encoding: 215 3639 183
OldEncoding: 3639
Width: 0
Flags: HW
HStem: 705 55<-347 -320> 831 46<-311 -231> 938 20G<-299 -231 -179 -112>
VStem: -299 68<889 958> -179 67<842 958>
AnchorPoint: "AboveMark" -205 988 basemark 0
AnchorPoint: "AboveBase" -113 659 mark 0
Fore
-90 658 m 0
 -90 658 l 0
 -176 693 -224 707 -326 705 c 0
 -408 705 -461 693 -538 664 c 1
 -540 697 -536 780 -471 838 c 0
 -412 891 -330 894 -299 889 c 1
 -299 958 l 1
 -231 958 l 1
 -231 877 l 1
 -230 877 -215 869 -204 863 c 0
 -192 855 -179 842 -179 842 c 1
 -179 958 l 1
 -112 958 l 1
 -112 757 l 2
 -112 754 -101 728 -98 710 c 0
 -94 688 -90 664 -90 658 c 0
-155 733 m 1
 -184 796 -241 831 -311 831 c 0
 -382 831 -431 799 -460 739 c 1
 -425 750 -392 759 -320 760 c 0
 -248 762 -195 745 -155 733 c 1
EndSplineSet
EndChar
StartChar: uni0E38
Encoding: 216 3640 184
OldEncoding: 3640
Width: 0
Flags: HW
HStem: -83 48<-216 -201>
VStem: -189 77<-313 -127>
AnchorPoint: "BelowBase" -113 -35 mark 0
Fore
-112 -313 m 1
 -189 -313 l 1
 -189 -198 l 1
 -189 -198 -213 -210 -245 -196 c 0
 -279 -182 -299 -162 -297 -113 c 0
 -297 -74 -267 -34 -201 -35 c 0
 -130 -37 -112 -78 -112 -127 c 2
 -112 -313 l 1
-207 -150 m 0
 -162 -150 -162 -83 -207 -83 c 0
 -253 -83 -253 -150 -207 -150 c 0
EndSplineSet
EndChar
StartChar: uni0E39
Encoding: 217 3641 185
OldEncoding: 3641
Width: 0
Flags: HW
HStem: -308 47<-245 -191> -87 47<-338 -329>
VStem: -307 62<-308 -126> -182 64<-249 -44>
AnchorPoint: "BelowBase" -113 -35 mark 0
Fore
-213 -261 m 1
 -213 -261 l 1
 -213 -261 -210 -261 -199 -261 c 0
 -182 -261 -182 -253 -182 -236 c 0
 -182 -233 -182 -44 -182 -44 c 1
 -118 -44 l 1
 -118 -44 -118 -242 -118 -247 c 0
 -118 -279 -123 -308 -153 -308 c 0
 -176 -308 -218 -308 -218 -308 c 1
 -307 -308 l 1
 -307 -198 l 1
 -307 -198 -336 -210 -368 -196 c 0
 -400 -182 -420 -150 -414 -107 c 0
 -408 -66 -372 -40 -331 -40 c 0
 -268 -40 -244 -81 -244 -126 c 1
 -245 -261 l 1
 -213 -261 l 1
-334 -155 m 0
 -288 -155 -288 -87 -334 -87 c 0
 -379 -87 -379 -155 -334 -155 c 0
EndSplineSet
EndChar
StartChar: uni0E3A
Encoding: 218 3642 186
OldEncoding: 3642
Width: 0
Flags: HW
AnchorPoint: "BelowBase" -113 -35 mark 0
Fore
-164 -196 m 0
 -244 -196 -244 -74 -164 -74 c 0
 -83 -74 -83 -196 -164 -196 c 0
EndSplineSet
EndChar
StartChar: uni0E4D.high
Encoding: 219 63262 65535
OldEncoding: 3643
Width: 0
Flags: HW
TeX: 0 0 0 0
HStem: 963 46<-170 -159> 1121 46<-170 -159>
AnchorPoint: "AboveMark" -170 988 mark 0
Fore
-170 963 m 0
 -170 963 l 0
 -305 963 -305 1167 -170 1167 c 0
 -34 1167 -34 963 -170 963 c 0
-170 1009 m 0
 -95 1009 -95 1121 -170 1121 c 0
 -244 1121 -244 1009 -170 1009 c 0
EndSplineSet
EndChar
StartChar: dottedcircle
Encoding: 221 9676 187
OldEncoding: 63262
Width: 643
Flags: W
HStem: 5 36<325 327> 41 39<176 182> 52 38<454 456> 133 37<77 79> 146 36<536 538> 276 37<572 574> 411 37<536 538> 500 38<441 443> 507 37<185 187> 543 36<323 327>
VStem: 21 37<300 302> 58 37<152 154> 66 37<435 437> 156 39<61 63> 167 38<526 528> 307 36<23 25 561 566> 423 38<518 520> 435 37<71 73> 518 37<164 170 429 435> 553 39<294 300>
Fore
74 452 m 6
175 543 m 6
164 78 m 6
66 169 m 6
443 87 m 6
524 181 m 6
524 446 m 6
431 535 m 6
561 311 m 6
29 317 m 6
313 578 m 6
84 454 m 4,11,12
 95 454 103 445 103 435 c 4,13,14
 103 425 95 415 84 415 c 4,15,16
 74 415 66 425 66 435 c 4,17,18
 66 445 74 454 84 454 c 4,11,12
185 544 m 4,19,20
 196 544 205 536 205 526 c 4,21,22
 205 517 196 507 185 507 c 4,23,24
 176 507 167 517 167 526 c 4,25,26
 167 536 176 544 185 544 c 4,19,20
176 80 m 4,27,28
 185 80 195 71 195 61 c 4,29,30
 195 51 185 41 176 41 c 4,31,32
 166 41 156 51 156 61 c 4,33,34
 156 71 166 80 176 80 c 4,27,28
77 170 m 4,35,36
 87 170 95 162 95 152 c 4,37,38
 95 141 87 133 77 133 c 4,39,40
 66 133 58 141 58 152 c 4,41,42
 58 162 66 170 77 170 c 4,35,36
454 90 m 4,43,44
 464 90 472 81 472 71 c 4,45,46
 472 61 464 52 454 52 c 4,47,48
 445 52 435 61 435 71 c 4,49,50
 435 81 445 90 454 90 c 4,43,44
536 182 m 4,51,52
 547 182 555 175 555 164 c 4,53,54
 555 153 547 146 536 146 c 4,55,56
 526 146 518 153 518 164 c 4,57,58
 518 175 526 182 536 182 c 4,51,52
536 448 m 4,59,60
 547 448 555 440 555 429 c 4,61,62
 555 418 547 411 536 411 c 4,63,64
 526 411 518 418 518 429 c 4,65,66
 518 440 526 448 536 448 c 4,59,60
441 538 m 4,67,68
 452 538 461 529 461 518 c 4,69,70
 461 509 452 500 441 500 c 4,71,72
 432 500 423 509 423 518 c 4,73,74
 423 529 432 538 441 538 c 4,67,68
572 313 m 4,75,76
 582 313 592 305 592 294 c 4,77,78
 592 284 582 276 572 276 c 4,79,80
 563 276 553 284 553 294 c 4,81,82
 553 305 563 313 572 313 c 4,75,76
40 319 m 4,83,84
 51 319 58 311 58 300 c 4,85,86
 58 291 51 282 40 282 c 4,87,88
 29 282 21 291 21 300 c 4,89,90
 21 311 29 319 40 319 c 4,83,84
325 41 m 4,91,92
 336 41 343 34 343 23 c 4,93,94
 343 12 336 5 325 5 c 4,95,96
 316 5 307 12 307 23 c 4,97,98
 307 34 316 41 325 41 c 4,91,92
323 579 m 4,99,100
 334 579 342 570 342 561 c 4,101,102
 342 550 334 543 323 543 c 4,103,104
 314 543 305 550 305 561 c 4,105,106
 305 570 314 579 323 579 c 4,99,100
EndSplineSet
EndChar
StartChar: uni0E3F
Encoding: 223 3647 188
OldEncoding: 3647
Width: 629
Flags: W
HStem: 0 71<155 258 328 414> 322 72<155 258 328 357> 624 70<84 258>
VStem: 84 71<0 322 0 624> 258 70<-94 0 71 322 394 624 694 779> 478 72<501 520> 510 69<193 211>
Fore
258 394 m 1xf8
 258 624 l 1
 155 624 l 1
 155 394 l 1
 258 394 l 1xf8
258 71 m 1
 258 322 l 1
 155 322 l 1
 155 71 l 1
 258 71 l 1
328 322 m 1
 328 71 l 1
 385 71 l 2
 481 71 510 141 510 199 c 0xfa
 510 314 418 322 337 322 c 2
 328 322 l 1
328 624 m 0
 328 394 l 1
 345 394 l 2
 443 394 478 452 478 503 c 0xfc
 478 547 457 618 328 624 c 0
258 779 m 1
 328 779 l 1
 328 694 l 1
 376 694 l 2
 432 694 550 651 550 520 c 0xfc
 550 457 520 400 451 368 c 1
 471 357 481 353 494 346 c 0
 550 316 579 265 579 195 c 0xfa
 579 52 460 0 414 0 c 2
 328 0 l 1
 328 -94 l 1
 258 -94 l 1
 258 0 l 1
 84 0 l 1
 84 694 l 1
 258 694 l 1
 258 779 l 1
EndSplineSet
EndChar
StartChar: uni0E40
Encoding: 224 3648 189
OldEncoding: 3648
Width: 340
Flags: W
HStem: -2 51<195 201>
VStem: 94 68<101 590>
Fore
293 77 m 0
 293 77 l 0
 285 29 245 -2 195 -2 c 0
 121 -2 94 49 94 101 c 2
 94 590 l 1
 162 590 l 1
 162 184 l 1
 162 184 201 199 239 182 c 0
 277 167 300 129 293 77 c 0
195 49 m 0
 258 49 258 141 195 141 c 0
 133 141 133 49 195 49 c 0
EndSplineSet
EndChar
StartChar: uni0E41
Encoding: 225 3649 190
OldEncoding: 3649
Width: 600
Flags: W
HStem: -2 51<195 201 452.062 470>
VStem: 94 68<101 590> 360 71<101 590>
Fore
559 77 m 0
 559 77 l 0
 553 29 512 -2 463 -2 c 0
 389 -2 360 49 360 101 c 2
 360 590 l 1
 431 590 l 1
 431 184 l 1
 431 184 469 199 507 182 c 0
 546 167 567 129 559 77 c 0
293 77 m 0
 293 77 l 0
 285 29 245 -2 195 -2 c 0
 121 -2 94 49 94 101 c 2
 94 590 l 1
 162 590 l 1
 162 184 l 1
 162 184 201 199 239 182 c 0
 277 167 300 129 293 77 c 0
463 49 m 0
 463 49 l 0
 524 49 524 141 463 141 c 0
 400 141 400 49 463 49 c 0
195 49 m 0
 258 49 258 141 195 141 c 0
 133 141 133 49 195 49 c 0
EndSplineSet
EndChar
StartChar: uni0E42
Encoding: 226 3650 191
OldEncoding: 3650
Width: 413
Flags: W
HStem: -2 51<230.282 248> 937 18<-60 43> 963 21G<353 353>
VStem: 139 69<101 815>
Fore
353 963 m 1
 353 963 l 1
 353 963 330 935 276 938 c 0
 208 943 164 992 95 979 c 0
 66 975 48 958 43 955 c 1
 46 955 109 932 146 907 c 0
 185 881 208 857 208 809 c 2
 208 184 l 1
 208 184 247 199 285 182 c 0
 323 167 346 129 339 77 c 0
 331 29 291 -2 241 -2 c 0
 167 -2 139 49 139 101 c 2
 139 799 l 2
 139 848 116 863 57 894 c 0
 6 920 -54 937 -60 937 c 1
 -34 973 6 1004 35 1015 c 0
 155 1061 222 989 281 996 c 0
 326 1001 326 1013 330 1013 c 1
 353 963 l 1
241 49 m 0
 303 49 303 141 241 141 c 0
 179 141 179 49 241 49 c 0
EndSplineSet
EndChar
StartChar: uni0E43
Encoding: 227 3651 192
OldEncoding: 3651
Width: 400
Flags: W
HStem: -2 51<239.441 257> 886 43<34 43> 976 49<85 99>
VStem: 149 69<101 927>
Fore
348 77 m 0
 348 77 l 0
 340 29 300 -2 250 -2 c 0
 176 -2 149 49 149 101 c 2
 149 917 l 2
 149 947 124 976 92 976 c 0
 61 976 38 958 34 929 c 1
 38 929 51 935 77 923 c 0
 115 903 115 817 87 786 c 0
 60 754 -2 757 -26 806 c 0
 -43 838 -43 926 -8 972 c 0
 17 1006 46 1025 97 1025 c 0
 176 1025 218 975 218 912 c 2
 218 184 l 1
 218 184 256 199 294 182 c 0
 333 167 356 129 348 77 c 0
37 808 m 0
 37 808 l 0
 77 808 71 886 37 886 c 0
 2 886 -2 808 37 808 c 0
250 49 m 0
 313 49 313 141 250 141 c 0
 189 141 189 49 250 49 c 0
EndSplineSet
EndChar
StartChar: uni0E44
Encoding: 228 3652 193
OldEncoding: 3652
Width: 449
Flags: W
HStem: -2 51<288 294> 972 58<176 185>
VStem: 187 69<101 959>
Fore
385 77 m 0
 385 77 l 0
 379 29 339 -2 288 -2 c 0
 215 -2 187 49 187 101 c 2
 187 935 l 2
 187 949 189 972 176 972 c 0
 164 972 161 955 158 944 c 1
 112 737 l 2
 106 708 92 681 55 677 c 0
 14 674 -5 707 -8 740 c 1
 -21 906 l 1
 -21 923 -25 937 -31 950 c 0
 -43 975 -69 973 -69 973 c 1
 -69 1030 l 1
 -41 1033 -15 1025 5 1009 c 0
 28 992 35 967 37 938 c 1
 54 728 l 1
 110 973 l 1
 116 998 138 1032 185 1030 c 0
 241 1029 256 992 256 941 c 2
 256 184 l 1
 256 184 294 199 333 182 c 0
 371 167 392 129 385 77 c 0
288 49 m 0
 349 49 349 141 288 141 c 0
 225 141 225 49 288 49 c 0
EndSplineSet
EndChar
StartChar: uni0E45
Encoding: 229 3653 194
OldEncoding: 3653
Width: 220
Flags: W
HStem: 535 55<-7 27>
VStem: 94 68<-218 423>
Fore
162 -218 m 1
 94 -218 l 1
 94 376 l 2
 94 434 100 533 15 535 c 0
 -69 536 -89 503 -103 455 c 1
 -113 461 -158 486 -150 481 c 1
 -138 533 -115 590 12 590 c 0
 166 590 162 486 162 386 c 2
 162 -218 l 1
EndSplineSet
EndChar
StartChar: uni0E46
Encoding: 230 3654 195
OldEncoding: 3654
Width: 565
Flags: W
VStem: 432 71<-58 461>
Fore
503 -58 m 1
 503 -58 l 0
 503 -110 487 -152 449 -185 c 0
 411 -219 354 -242 326 -244 c 1
 294 -193 l 1
 299 -193 363 -175 397 -144 c 0
 423 -123 432 -94 432 -58 c 2
 432 441 l 2
 432 468 428 492 408 507 c 0
 392 521 363 533 351 527 c 2
 281 486 l 1
 216 523 l 2
 205 527 169 510 153 481 c 0
 138 454 136 437 141 412 c 1
 141 412 166 437 218 431 c 0
 277 425 320 349 288 290 c 0
 253 224 166 233 124 268 c 0
 64 320 66 440 87 490 c 0
 112 546 153 575 210 590 c 1
 281 541 l 1
 348 590 l 1
 357 590 411 582 440 563 c 0
 478 535 503 494 503 457 c 2
 503 -58 l 1
201 287 m 0
 268 287 268 386 201 386 c 0
 135 386 135 287 201 287 c 0
EndSplineSet
EndChar
StartChar: uni0E47
Encoding: 231 3655 196
OldEncoding: 3655
Width: 0
Flags: HW
HStem: 955 20G<-64 -64>
VStem: -178 48<737 751> -138 74<975 979>
AnchorPoint: "AboveMark" -323 659 mark 0
AnchorPoint: "AboveBase" -113 659 mark 0
Fore
-64 975 m 1xa0
 -64 975 l 0xa0
 -64 958 -71 940 -78 924 c 0
 -113 861 -193 858 -254 864 c 0
 -281 868 -307 871 -331 874 c 0
 -380 878 -422 875 -443 843 c 0
 -458 823 -457 800 -451 777 c 1
 -449 769 l 1
 -403 832 -325 811 -274 766 c 1
 -259 845 -129 838 -130 739 c 0xc0
 -130 688 -178 659 -227 671 c 0
 -262 679 -285 702 -311 723 c 0
 -334 742 -357 756 -389 745 c 0
 -418 737 -426 705 -426 671 c 2
 -426 664 l 1
 -478 684 -512 719 -518 776 c 0
 -527 849 -486 907 -434 921 c 0
 -351 944 -285 912 -204 917 c 0
 -166 918 -138 937 -138 975 c 2
 -138 979 l 1
 -64 979 l 1
 -64 975 l 1xa0
-178 743 m 0xc0
 -178 757 -185 769 -204 769 c 0
 -221 769 -228 757 -228 743 c 0
 -228 731 -221 717 -204 717 c 0
 -185 717 -178 731 -178 743 c 0xc0
EndSplineSet
EndChar
StartChar: uni0E48
Encoding: 232 3656 197
OldEncoding: 3656
Width: 0
Flags: HW
VStem: -179 66<992 1179>
AnchorPoint: "AboveMark" -147 988 mark 0
Fore
-113 992 m 1
 -179 992 l 1
 -179 1179 l 1
 -113 1179 l 1
 -113 992 l 1
EndSplineSet
Substitution: 0 65534 'loww' uni0E48.low
Substitution: 0 65534 'amni' uni0E4D
EndChar
StartChar: uni0E49
Encoding: 233 3657 198
OldEncoding: 3657
Width: 0
Flags: HW
AnchorPoint: "AboveMark" -150 988 mark 0
Fore
17 1104 m 1
 17 1104 l 0
 -11 1068 -38 1036 -106 1007 c 0
 -173 976 -235 978 -285 984 c 1
 -271 993 -258 1006 -250 1018 c 0
 -242 1029 -236 1047 -235 1052 c 1
 -264 1048 -287 1058 -307 1078 c 0
 -339 1113 -328 1196 -256 1203 c 0
 -187 1211 -164 1171 -159 1133 c 0
 -155 1079 -189 1030 -192 1029 c 0
 -149 1039 -109 1062 -84 1082 c 0
 -35 1119 3 1168 17 1199 c 1
 17 1104 l 1
-239 1090 m 0
 -185 1090 -195 1170 -241 1166 c 0
 -290 1163 -293 1090 -239 1090 c 0
EndSplineSet
Substitution: 0 65534 'loww' uni0E49.low
Substitution: 0 65534 'amni' uni0E4D
EndChar
StartChar: uni0E4A
Encoding: 234 3658 199
OldEncoding: 3658
Width: 0
Flags: HW
HStem: 1065 34<-252 -236>
AnchorPoint: "AboveMark" -154 988 mark 0
Fore
78 1143 m 1
 78 1143 l 0
 72 1105 58 1078 35 1050 c 0
 -8 998 -61 978 -129 983 c 5
 -116 990 -89 1024 -84 1068 c 0
 -80 1101 -89 1142 -123 1145 c 0
 -153 1150 -175 1128 -179 1122 c 1
 -184 1128 -218 1150 -244 1143 c 0
 -271 1136 -284 1111 -282 1084 c 1
 -270 1094 -261 1099 -238 1099 c 0
 -202 1099 -179 1068 -181 1036 c 0
 -182 1002 -210 976 -250 978 c 0
 -308 981 -342 1045 -325 1116 c 0
 -317 1156 -291 1188 -248 1191 c 0
 -219 1194 -196 1180 -181 1156 c 1
 -167 1179 -141 1191 -112 1191 c 0
 -71 1191 -38 1157 -34 1113 c 0
 -29 1062 -54 1025 -57 1021 c 1
 -25 1036 -6 1061 11 1090 c 0
 29 1122 31 1171 31 1185 c 1
 78 1143 l 1
-242 1010 m 0
 -207 1010 -208 1065 -244 1065 c 0
 -277 1065 -279 1010 -242 1010 c 0
EndSplineSet
Substitution: 0 65534 'loww' uni0E4A.low
Substitution: 0 65534 'amni' uni0E4D
EndChar
StartChar: uni0E4B
Encoding: 235 3659 200
OldEncoding: 3659
Width: 0
Flags: HW
HStem: 975 21G<-175 -112> 1052 62<-259 -175 -112 -32>
VStem: -175 63<975 1052 1114 1196>
AnchorPoint: "AboveMark" -145 973 mark 0
Fore
-32 1052 m 1
 -112 1052 l 1
 -112 975 l 1
 -175 975 l 1
 -175 1052 l 1
 -259 1052 l 1
 -259 1114 l 1
 -175 1114 l 1
 -175 1196 l 1
 -112 1196 l 1
 -112 1114 l 1
 -32 1114 l 1
 -32 1052 l 1
EndSplineSet
Substitution: 0 65534 'loww' uni0E4B.low
Substitution: 0 65534 'amni' uni0E4D
EndChar
StartChar: uni0E4C
Encoding: 236 3660 201
OldEncoding: 3660
Width: 0
Flags: HW
HStem: 891 39<-200.03 -190> 1012 36<-201 -183>
AnchorPoint: "AboveMark" -190 889 mark 0
Fore
35 1196 m 1
 35 1196 l 0
 32 1183 35 1140 -15 1113 c 0
 -77 1079 -152 1101 -205 1074 c 0
 -231 1061 -233 1038 -235 1033 c 1
 -221 1044 -213 1048 -185 1048 c 0
 -144 1048 -109 1018 -109 972 c 0
 -109 923 -146 894 -189 891 c 0
 -265 889 -310 967 -291 1036 c 0
 -270 1114 -208 1136 -107 1136 c 0
 -28 1136 -35 1193 -31 1196 c 1
 35 1196 l 1
-190 930 m 0
 -136 930 -138 1012 -192 1012 c 0
 -247 1012 -245 930 -190 930 c 0
EndSplineSet
Substitution: 0 65534 'loww' uni0E4C.low
EndChar
StartChar: uni0E4D
Encoding: 237 3661 202
OldEncoding: 3661
Width: 0
Flags: HW
HStem: 633 46<-170 -159> 791 46<-170 -159>
AnchorPoint: "AboveMark" -170 988 basemark 0
AnchorPoint: "AboveBase" -67 659 mark 0
Fore
-170 633 m 0
 -170 633 l 0
 -305 633 -305 837 -170 837 c 0
 -34 837 -34 633 -170 633 c 0
-170 679 m 0
 -95 679 -95 791 -170 791 c 0
 -244 791 -244 679 -170 679 c 0
EndSplineSet
Substitution: 0 65534 'high' uni0E4D.high
Substitution: 0 65534 'G006' uni0E4B
Substitution: 0 65534 'G005' uni0E4A
Substitution: 0 65534 'G004' uni0E49
Substitution: 0 65534 'G003' uni0E48
EndChar
StartChar: uni0E4E
Encoding: 238 3662 203
OldEncoding: 3662
Width: 0
Flags: HW
HStem: 731 42<-155 -124> 892 35<-48 -32> 1032 33<-32 -15>
VStem: -261 86<806 815> -181 77<973 983>
AnchorPoint: "AboveBase" -32 659 mark 0
Fore
-32 766 m 1xf0
 -60 743 -101 731 -155 731 c 0
 -195 731 -222 739 -239 756 c 0
 -254 769 -261 786 -261 808 c 0xf0
 -262 831 -253 852 -236 871 c 0
 -208 903 -166 918 -110 918 c 1
 -127 920 -143 924 -159 937 c 0
 -173 947 -181 963 -181 983 c 1
 -172 1025 -129 1053 -51 1064 c 0
 -43 1065 -32 1065 -15 1065 c 0
 17 1067 41 1062 58 1053 c 1
 20 1024 l 2
 18 1024 14 1024 5 1027 c 0
 -3 1029 -12 1030 -20 1032 c 0
 -29 1032 -38 1030 -51 1027 c 0
 -83 1018 -101 1001 -104 975 c 0xe8
 -104 960 -98 947 -83 940 c 0
 -67 932 -52 927 -32 927 c 1
 -48 892 l 1
 -92 892 -126 883 -153 861 c 0
 -167 849 -175 834 -175 815 c 0
 -175 805 -172 797 -166 789 c 0
 -156 779 -143 773 -124 773 c 0
 -98 773 -80 779 -64 794 c 1
 -32 766 l 1xf0
EndSplineSet
EndChar
StartChar: uni0E4F
Encoding: 239 3663 204
OldEncoding: 3663
Width: 599
Flags: W
HStem: 0 31<310 320> 100 30<302 320> 326 36<302 320> 429 32<310 320>
Fore
310 0 m 0
 310 0 l 0
 2 0 2 461 310 461 c 0
 616 461 616 0 310 0 c 0
310 31 m 0
 310 31 l 0
 573 31 573 429 310 429 c 0
 44 429 44 31 310 31 c 0
310 100 m 0
 310 100 l 0
 133 100 133 362 310 362 c 0
 484 362 484 100 310 100 c 0
308 130 m 0
 440 130 440 326 308 326 c 0
 176 326 176 130 308 130 c 0
EndSplineSet
EndChar
StartChar: uni0E50
Encoding: 240 3664 205
OldEncoding: 3664
Width: 611
Flags: W
HStem: -2 59<316 338> 362 53<316 338>
VStem: 81 71<208 223> 480 70<208 223>
Fore
550 208 m 0
 550 208 l 0
 550 87 466 -3 316 -2 c 0
 166 0 81 87 81 208 c 0
 81 330 169 415 316 415 c 0
 463 415 550 330 550 208 c 0
480 208 m 0
 480 294 428 362 316 362 c 0
 204 362 152 294 152 208 c 0
 152 123 207 57 316 57 c 0
 425 57 480 123 480 208 c 0
EndSplineSet
EndChar
StartChar: uni0E51
Encoding: 241 3665 206
OldEncoding: 3665
Width: 611
Flags: W
HStem: 359 55<303 337>
Fore
570 198 m 0
 570 198 l 0
 579 6 454 -67 428 -80 c 1
 389 -31 l 1
 448 -3 504 55 500 195 c 0
 498 268 443 362 320 359 c 0
 224 357 153 299 149 212 c 0
 146 143 169 89 228 66 c 0
 282 48 316 78 319 80 c 0
 277 75 239 94 219 129 c 0
 193 178 218 264 296 271 c 0
 382 281 423 210 417 149 c 0
 411 67 353 -2 264 -2 c 0
 127 0 75 100 80 213 c 0
 84 330 175 414 319 414 c 0
 478 414 563 322 570 198 c 0
316 130 m 0
 374 133 369 221 310 218 c 0
 251 216 256 127 316 130 c 0
EndSplineSet
EndChar
StartChar: uni0E52
Encoding: 242 3666 207
OldEncoding: 3666
Width: 611
Flags: W
HStem: 0 58<162 513> 357 58<478 494>
VStem: 57 70<95 516> 529 69<115 312>
Fore
598 115 m 1
 598 115 l 0
 598 83 602 55 584 31 c 0
 566 9 543 0 513 0 c 2
 138 0 l 2
 113 0 94 12 78 23 c 0
 64 35 57 67 57 97 c 2
 57 510 l 2
 57 526 52 535 37 544 c 0
 20 555 -12 555 -17 553 c 1
 -17 613 l 1
 -3 615 40 612 72 598 c 0
 112 578 127 546 127 513 c 2
 127 112 l 2
 127 98 127 87 135 75 c 0
 144 61 158 58 173 58 c 2
 472 58 l 2
 490 58 509 60 520 74 c 0
 529 84 529 100 529 115 c 2
 529 296 l 2
 529 325 520 357 484 357 c 0
 434 357 429 285 429 284 c 1
 380 284 l 1
 380 293 360 359 308 357 c 0
 259 356 254 322 251 310 c 1
 276 314 300 310 320 296 c 0
 371 264 372 166 308 138 c 0
 231 107 162 159 164 256 c 0
 166 334 215 414 293 415 c 0
 383 418 403 363 405 360 c 1
 406 365 422 415 492 415 c 0
 564 415 598 362 598 300 c 2
 598 115 l 1
265 179 m 0
 317 179 317 261 265 261 c 0
 212 261 212 179 265 179 c 0
EndSplineSet
EndChar
StartChar: uni0E53
Encoding: 243 3667 208
OldEncoding: 3667
Width: 611
Flags: W
HStem: 0 21G<331 400 550 618> 354 61<219 227 475 483>
VStem: 60 217<89 196> 331 69<0 270> 550 68<0 279>
Fore
618 0 m 1
 550 0 l 1
 550 264 l 2
 550 307 532 354 483 356 c 0
 432 357 400 308 400 261 c 2
 400 0 l 1
 331 0 l 1
 331 262 l 2
 331 299 300 354 225 354 c 0
 173 354 144 305 138 261 c 0
 132 230 132 196 136 178 c 1
 156 189 173 193 201 189 c 0
 248 181 277 139 277 89 c 0
 277 25 215 -14 158 0 c 0
 75 20 61 107 60 196 c 0
 55 302 104 412 227 415 c 0
 336 420 366 340 366 339 c 0
 368 343 386 415 480 415 c 0
 567 415 618 353 618 277 c 2
 618 0 l 1
181 51 m 0
 239 51 239 138 181 138 c 0
 121 138 121 51 181 51 c 0
EndSplineSet
EndChar
StartChar: uni0E54
Encoding: 244 3668 209
OldEncoding: 3668
Width: 611
Flags: W
Fore
702 621 m 1
 702 621 l 0
 700 563 659 446 596 399 c 0
 494 322 362 380 244 351 c 0
 169 333 124 285 121 204 c 0
 118 103 184 44 265 60 c 0
 337 74 357 67 362 69 c 1
 356 69 245 106 228 189 c 0
 219 238 247 300 313 307 c 0
 391 314 431 254 423 195 c 0
 418 166 400 146 374 133 c 0
 376 133 392 110 434 101 c 0
 478 92 504 94 544 81 c 0
 581 69 590 61 615 48 c 1
 579 -6 l 1
 575 -5 523 25 457 28 c 0
 343 34 205 -54 106 51 c 0
 28 130 26 277 120 360 c 0
 271 495 484 343 579 478 c 0
 618 532 632 586 636 645 c 1
 702 621 l 1
330 172 m 0
 385 175 380 259 323 256 c 0
 267 254 273 169 330 172 c 0
EndSplineSet
EndChar
StartChar: uni0E55
Encoding: 245 3669 210
OldEncoding: 3669
Width: 611
Flags: W
Fore
651 664 m 1
 651 664 l 0
 648 636 641 613 630 589 c 0
 618 556 596 533 595 530 c 1
 595 530 647 461 599 397 c 0
 530 303 359 380 241 351 c 0
 166 333 120 284 115 204 c 0
 112 103 179 44 261 60 c 0
 331 74 351 67 356 69 c 1
 349 69 239 106 224 189 c 0
 215 238 241 300 308 307 c 0
 386 314 426 254 417 195 c 0
 412 166 394 146 368 133 c 0
 369 133 388 110 428 101 c 0
 472 92 500 94 540 81 c 0
 576 69 584 61 609 48 c 1
 573 -6 l 1
 569 -5 517 25 451 28 c 0
 339 34 199 -54 100 51 c 0
 21 130 21 277 113 360 c 0
 216 451 353 406 461 412 c 0
 581 417 536 471 543 475 c 1
 541 471 484 428 412 446 c 0
 317 469 316 582 408 609 c 0
 489 630 550 586 550 584 c 1
 552 587 567 604 576 630 c 0
 582 650 586 665 586 688 c 1
 651 664 l 1
517 533 m 0
 517 533 l 0
 509 543 481 558 457 558 c 0
 432 558 408 552 406 530 c 0
 405 509 431 498 458 501 c 0
 497 506 510 523 517 533 c 0
323 172 m 0
 380 175 374 259 317 256 c 0
 262 254 268 169 323 172 c 0
EndSplineSet
EndChar
StartChar: uni0E56
Encoding: 246 3670 211
OldEncoding: 3670
Width: 611
Flags: W
HStem: 0 95<258 354>
Fore
559 235 m 0
 559 235 l 0
 573 98 486 3 354 0 c 0
 262 -2 162 44 162 133 c 0
 162 181 192 230 253 235 c 0
 319 239 362 189 357 130 c 0
 353 80 325 64 319 61 c 1
 372 54 425 72 455 109 c 0
 500 161 503 248 466 299 c 0
 429 353 368 371 300 356 c 0
 247 343 208 313 187 262 c 1
 167 262 l 1
 169 300 166 406 126 504 c 0
 107 549 87 578 58 615 c 1
 118 651 l 1
 152 609 172 575 190 523 c 0
 207 472 218 437 221 385 c 1
 270 417 326 423 376 420 c 0
 477 414 547 342 559 235 c 0
261 182 m 0
 202 184 199 97 258 95 c 0
 317 94 320 181 261 182 c 0
EndSplineSet
EndChar
StartChar: uni0E57
Encoding: 247 3671 212
OldEncoding: 3671
Width: 611
Flags: W
HStem: 136 53<138 153> 360 57<385 397>
VStem: 258 56<251 265.585>
Fore
713 602 m 1
 713 602 l 0
 710 595 650 543 644 452 c 0
 633 291 653 178 572 83 c 0
 515 17 448 -2 360 -2 c 1
 368 9 411 84 429 153 c 0
 446 212 471 359 386 360 c 0
 316 362 314 256 314 251 c 1
 258 251 l 1
 258 256 256 356 179 360 c 0
 132 363 104 317 89 273 c 0
 75 231 77 184 84 161 c 1
 87 166 100 189 153 189 c 0
 219 189 270 109 228 40 c 0
 185 -31 95 -5 67 26 c 0
 14 86 -11 219 37 319 c 0
 66 376 104 417 179 417 c 0
 227 417 262 391 284 351 c 1
 308 395 346 417 395 417 c 0
 478 417 517 331 510 236 c 0
 506 139 461 72 458 67 c 1
 474 81 532 98 561 205 c 0
 590 311 563 380 586 487 c 0
 601 563 633 590 641 602 c 1
 713 602 l 1
149 51 m 0
 204 52 201 138 146 136 c 0
 89 135 92 49 149 51 c 0
EndSplineSet
EndChar
StartChar: uni0E58
Encoding: 248 3672 213
OldEncoding: 3672
Width: 611
Flags: W
VStem: 501 89<84 150>
Fore
642 610 m 1
 642 610 l 0
 642 609 667 480 622 409 c 0
 559 310 415 356 281 356 c 0
 195 356 138 308 129 233 c 0
 116 133 169 112 169 110 c 0
 169 115 173 193 230 199 c 0
 313 207 391 44 480 58 c 0
 501 61 501 83 501 84 c 1
 490 83 440 80 408 116 c 0
 365 167 388 270 481 273 c 0
 561 276 590 213 590 150 c 0
 590 74 555 3 481 -2 c 0
 366 -9 274 138 244 129 c 0
 224 123 227 86 230 58 c 0
 233 35 247 6 251 -2 c 1
 162 5 94 60 69 143 c 0
 35 262 100 394 247 411 c 0
 363 423 478 382 541 423 c 0
 602 463 573 607 573 610 c 1
 642 610 l 1
487 136 m 0
 543 136 543 219 487 219 c 0
 431 219 431 136 487 136 c 0
EndSplineSet
EndChar
StartChar: uni0E59
Encoding: 249 3673 214
OldEncoding: 3673
Width: 611
Flags: W
VStem: 517 56<0 31>
Fore
590 483 m 0
 590 483 l 0
 590 412 586 319 526 308 c 0
 468 299 440 349 422 342 c 0
 394 333 426 273 471 199 c 0
 523 115 573 32 573 31 c 1
 517 0 l 1
 517 3 469 74 409 176 c 0
 356 270 305 362 230 357 c 0
 161 353 133 256 138 181 c 0
 141 121 169 54 228 52 c 0
 271 49 284 81 285 84 c 1
 285 84 244 67 212 98 c 0
 170 135 176 213 216 245 c 0
 253 274 322 264 343 216 c 0
 380 129 337 0 233 -3 c 0
 115 -6 66 107 67 213 c 0
 67 313 121 415 230 417 c 0
 297 418 340 374 356 349 c 1
 356 379 366 412 394 417 c 0
 434 425 469 368 504 376 c 0
 526 382 523 448 521 495 c 0
 520 544 506 616 506 618 c 1
 578 618 l 1
 578 615 590 532 590 483 c 0
267 129 m 0
 314 127 311 210 265 208 c 0
 225 205 221 130 267 129 c 0
EndSplineSet
EndChar
StartChar: uni0E5A
Encoding: 250 3674 215
OldEncoding: 3674
Width: 625
Flags: W
HStem: 293 56<190 214> 422 47<136 152> 544 66<463 480> 567 46<136 160>
VStem: 31 69<500 518> 196 48<506 526> 349 73<140 386> 503 73<115 510>
Fore
147 567 m 0xdf
 147 567 l 0
 132 567 123 563 112 552 c 0
 106 544 101 532 100 518 c 0
 100 506 104 494 113 483 c 0
 121 475 132 469 147 469 c 0
 162 469 175 474 184 483 c 0
 192 494 196 504 196 518 c 0
 196 532 192 543 184 552 c 0
 175 563 162 567 147 567 c 0xdf
412 578 m 0
 412 578 l 0
 431 590 449 610 480 610 c 0
 570 610 573 544 573 540 c 0
 575 535 576 510 576 510 c 1
 576 143 l 2
 576 98 558 32 483 6 c 0
 457 -3 449 -3 449 -3 c 1
 418 51 l 1
 418 51 443 54 461 66 c 0
 480 80 500 94 503 115 c 1
 503 213 501 533 503 506 c 1
 503 506 507 544 463 544 c 0xef
 445 543 429 536 422 521 c 1
 422 150 l 2
 422 98 408 61 377 37 c 0
 348 12 319 0 290 -2 c 1
 259 52 l 1
 282 52 305 63 328 86 c 0
 342 100 349 121 349 152 c 2
 349 386 l 1
 333 354 314 331 296 316 c 0
 277 300 250 293 208 293 c 0
 150 293 104 313 75 351 c 0
 44 391 31 440 31 500 c 1
 34 533 49 559 71 581 c 0
 94 602 120 613 149 613 c 0
 162 613 175 612 185 607 c 0
 204 602 219 592 228 575 c 0
 239 559 244 543 244 521 c 0
 244 489 233 463 212 445 c 0
 195 429 175 422 150 422 c 0
 133 422 120 425 104 432 c 1
 106 428 107 422 109 414 c 0
 112 406 113 399 118 389 c 0
 123 382 129 372 138 366 c 0
 147 360 159 356 175 353 c 0
 182 351 192 349 205 349 c 0
 231 349 248 357 264 371 c 0
 282 388 296 406 313 440 c 0
 339 486 339 518 340 584 c 1
 345 619 385 615 397 605 c 0
 402 602 411 581 412 578 c 0
359 490 m 1
 357 490 357 490 359 489 c 1
 359 490 l 1
EndSplineSet
EndChar
StartChar: uni0E5B
Encoding: 251 3675 216
OldEncoding: 3675
Width: 1105
Flags: W
HStem: 48 53<235 254> 181 52<238 250> 239 46<887 963> 494 53<212 221>
VStem: 29 52<275 325> 219 49<300 305> 320 52<346 385>
Fore
1048 285 m 0
 1048 285 l 0
 1078 285 1088 285 1090 285 c 1
 1090 291 1090 254 1090 244 c 1
 1090 244 1079 244 1029 242 c 0
 960 241 973 241 963 241 c 0
 949 241 935 239 898 239 c 0
 884 239 871 235 843 251 c 0
 834 258 826 267 826 267 c 1
 819 279 l 1
 808 293 l 1
 756 129 l 1
 708 293 l 1
 651 90 l 1
 596 299 l 1
 558 100 l 1
 532 100 l 1
 474 348 l 1
 458 288 425 169 388 123 c 0
 348 74 297 48 235 48 c 0
 100 48 29 179 29 300 c 0
 29 368 46 426 81 474 c 0
 115 521 159 547 212 547 c 0
 319 547 372 461 372 363 c 0
 372 285 336 181 241 181 c 0
 210 181 182 196 162 222 c 1
 146 250 136 276 136 300 c 0
 136 362 199 412 248 357 c 0
 262 342 268 323 268 300 c 0
 268 276 258 248 238 233 c 1
 242 233 l 2
 261 233 279 244 296 270 c 0
 311 296 320 328 320 365 c 0
 320 434 288 494 212 494 c 0
 182 494 150 477 123 437 c 0
 94 399 81 353 81 299 c 0
 81 242 97 195 127 158 c 0
 159 120 195 101 235 101 c 0
 307 101 346 144 372 205 c 0
 403 282 445 443 463 506 c 1
 487 506 l 1
 541 273 l 1
 579 463 l 1
 605 463 l 1
 653 274 l 1
 705 461 l 1
 757 290 l 1
 796 417 l 1
 814 380 863 285 889 285 c 0
 918 285 935 284 952 284 c 0
 996 285 1027 285 1048 285 c 0
213 323 m 0
 212 330 208 333 202 333 c 0
 192 333 185 307 184 299 c 1
 185 273 193 268 202 268 c 0
 205 268 208 268 213 276 c 0
 218 284 219 291 219 300 c 0
 219 310 218 316 213 323 c 0
EndSplineSet
EndChar
StartChar: uni0E38.low
Encoding: 252 63256 217
OldEncoding: 63256
Width: 0
Flags: W
HStem: -354 43<-199 -197>
VStem: -170 57<-605 -399>
Fore
-113 -605 m 5
 -170 -605 l 1
 -170 -471 l 1
 -170 -471 -205 -481 -238 -468 c 0
 -270 -454 -290 -422 -282 -379 c 0
 -276 -337 -242 -311 -199 -311 c 0
 -136 -311 -113 -354 -113 -399 c 2
 -113 -605 l 5
-199 -434 m 0
 -147 -434 -147 -354 -199 -354 c 0
 -253 -354 -253 -434 -199 -434 c 0
EndSplineSet
EndChar
StartChar: uni0E39.low
Encoding: 253 63257 218
OldEncoding: 63257
Width: 0
Flags: W
HStem: -553 47<-245 -191> -340 47<-338 -329>
VStem: -307 62<-553 -379> -182 64<-494 -297>
Fore
-213 -506 m 1
 -213 -506 l 1
 -213 -506 -210 -506 -199 -506 c 0
 -182 -506 -182 -498 -182 -481 c 0
 -182 -478 -182 -297 -182 -297 c 1
 -118 -297 l 1
 -118 -297 -118 -487 -118 -492 c 0
 -118 -524 -123 -553 -153 -553 c 0
 -176 -553 -218 -553 -218 -553 c 1
 -307 -553 l 1
 -307 -451 l 1
 -307 -451 -336 -463 -368 -449 c 0
 -400 -435 -420 -403 -414 -360 c 0
 -408 -319 -372 -293 -331 -293 c 0
 -268 -293 -244 -334 -244 -379 c 1
 -245 -506 l 1
 -213 -506 l 1
-334 -408 m 0
 -288 -408 -288 -340 -334 -340 c 0
 -379 -340 -379 -408 -334 -408 c 0
EndSplineSet
EndChar
StartChar: uni0E3A.low
Encoding: 254 63258 219
OldEncoding: 63258
Width: 0
Flags: W
Fore
-107 -385 m 0
 -170 -385 -170 -288 -107 -288 c 0
 -43 -288 -43 -385 -107 -385 c 0
EndSplineSet
EndChar
StartChar: DEL
Encoding: 255 63259 220
OldEncoding: 63259
Width: 0
VWidth: 2048
Flags: W
HStem: 0 21G<-460 0>
VStem: -460 460<0 766>
Fore
-460 766 m 1
 0 766 l 1
 0 0 l 1
 -460 0 l 1
 -460 766 l 1
EndSplineSet
EndChar
StartChar: exclamdown
Encoding: 256 161 221
OldEncoding: 161
Width: 332
VWidth: 2048
Flags: W
HStem: 418 100<116 218>
VStem: 112 110<-198 -38>
Fore
218 518 m 1
 218 418 l 1
 116 418 l 1
 116 518 l 1
 218 518 l 1
195 340 m 1
 222 -38 l 1
 222 -198 l 1
 112 -198 l 1
 112 -38 l 1
 138 340 l 1
 195 340 l 1
EndSplineSet
EndChar
StartChar: cent
Encoding: 257 162 222
OldEncoding: 162
Width: 554
VWidth: 2048
Flags: W
HStem: -14 72<275 293> 460 70<288 309.894>
VStem: 52 91<232 282>
Fore
363 437 m 1
 256 63 l 1
 265 60 276 58 285 58 c 0
 360 58 405 103 417 190 c 1
 506 181 l 1
 495 123 471 77 432 41 c 0
 392 5 343 -14 287 -14 c 0
 267 -14 251 -11 236 -6 c 1
 178 -199 l 1
 124 -184 l 1
 179 11 l 1
 95 54 52 136 52 256 c 0
 52 336 71 399 107 448 c 0
 149 503 207 530 282 530 c 0
 297 530 313 529 331 527 c 1
 386 716 l 1
 440 700 l 1
 385 510 l 1
 446 487 481 438 495 366 c 1
 411 353 l 1
 402 389 386 417 363 437 c 1
311 460 m 1
 288 460 l 2
 192 463 143 397 143 261 c 0
 143 175 162 116 202 87 c 1
 311 460 l 1
EndSplineSet
EndChar
StartChar: sterling
Encoding: 258 163 223
OldEncoding: 163
Width: 554
VWidth: 2048
Flags: W
HStem: -12 84<397 415> 32 72<189 209> 322 73<21 118 193 348> 656 72<285 307>
VStem: 72 94<522 547> 126 92<260 281>
Fore
193 395 m 1x78
 348 395 l 1
 348 322 l 1
 208 322 l 1
 215 310 218 294 218 281 c 0
 218 218 189 155 130 94 c 1
 158 101 181 104 201 104 c 0x74
 230 104 259 100 293 92 c 0
 348 78 386 72 406 72 c 0
 431 72 461 81 500 98 c 1
 529 18 l 1
 480 -2 440 -12 411 -12 c 0xb4
 391 -12 377 -11 368 -8 c 2
 305 9 l 1
 241 28 l 1
 222 31 207 32 195 32 c 0
 143 32 94 17 48 -14 c 1
 14 71 l 1
 89 113 126 178 126 262 c 0x74
 126 279 123 299 118 322 c 1
 21 322 l 1
 21 395 l 1
 97 395 l 1
 80 449 72 492 72 524 c 0
 72 587 94 638 136 674 c 0
 178 710 230 728 293 728 c 0
 418 728 490 667 510 543 c 1
 423 530 l 1
 409 615 366 656 291 656 c 0
 258 656 228 645 202 622 c 0
 178 599 166 572 166 536 c 0
 166 503 175 455 193 395 c 1x78
EndSplineSet
EndChar
StartChar: currency
Encoding: 259 164 224
OldEncoding: 164
Width: 554
VWidth: 2048
Flags: W
HStem: 147 80<276 292> 481 80<276 292>
VStem: 69 80<354 372> 402 81<354 372>
Fore
104 469 m 1
 35 536 l 1
 92 595 l 1
 159 526 l 1
 195 550 235 561 276 561 c 0
 319 561 357 550 391 526 c 1
 460 595 l 1
 517 536 l 1
 448 469 l 1
 472 434 483 395 483 354 c 0
 483 313 472 274 448 239 c 1
 517 173 l 1
 460 115 l 1
 391 184 l 1
 357 159 319 147 276 147 c 0
 233 147 195 159 159 184 c 1
 92 115 l 1
 35 173 l 1
 104 239 l 1
 81 274 69 313 69 354 c 0
 69 395 81 434 104 469 c 1
149 354 m 0
 149 319 161 288 185 264 c 0
 210 239 239 227 276 227 c 0
 311 227 342 239 366 264 c 0
 389 288 402 319 402 354 c 0
 402 391 389 420 365 445 c 0
 340 469 310 481 276 481 c 0
 241 481 210 469 185 445 c 0
 161 420 149 391 149 354 c 0
EndSplineSet
EndChar
StartChar: yen
Encoding: 260 165 225
OldEncoding: 165
Width: 554
VWidth: 2048
Flags: W
HStem: 0 21G<233 320> 159 68<31 233 320 523> 296 73<31 233 356 523>
VStem: 233 87<0 159 227 296>
Fore
233 0 m 1
 233 159 l 1
 31 159 l 1
 31 227 l 1
 233 227 l 1
 233 296 l 1
 31 296 l 1
 31 369 l 1
 196 369 l 1
 -2 716 l 1
 97 716 l 1
 238 464 l 2
 250 441 262 417 274 389 c 1
 284 411 297 437 316 469 c 2
 449 716 l 1
 553 716 l 1
 356 369 l 1
 523 369 l 1
 523 296 l 1
 320 296 l 1
 320 227 l 1
 523 227 l 1
 523 159 l 1
 320 159 l 1
 320 0 l 1
 233 0 l 1
EndSplineSet
EndChar
StartChar: brokenbar
Encoding: 261 166 226
OldEncoding: 166
Width: 259
VWidth: 2048
Flags: W
VStem: 92 77<-210 176 343 728>
Fore
169 728 m 1
 169 343 l 1
 92 343 l 1
 92 728 l 1
 169 728 l 1
169 176 m 1
 169 -210 l 1
 92 -210 l 1
 92 176 l 1
 169 176 l 1
EndSplineSet
EndChar
StartChar: section
Encoding: 262 167 227
OldEncoding: 167
Width: 554
VWidth: 2048
Flags: W
HStem: -210 74<284 297> 656 72<263 286>
VStem: 40 80<312 325> 87 85<573 580> 389 89<-64.684 -49> 428 82<209 227>
Fore
69 -34 m 1xc8
 158 -21 l 1
 173 -98 215 -136 284 -136 c 0
 311 -136 334 -129 354 -115 c 0
 377 -100 389 -78 389 -52 c 0
 389 -23 363 9 314 46 c 0
 305 54 268 75 205 115 c 0
 153 147 116 173 95 195 c 0
 58 231 40 271 40 314 c 0xe8
 40 385 77 431 150 452 c 1
 107 492 87 532 87 575 c 0
 87 621 106 659 143 688 c 0
 176 714 216 728 265 728 c 0
 386 728 454 671 469 559 c 1
 379 549 l 1
 366 621 331 656 273 656 c 0
 248 656 225 650 205 638 c 0
 184 621 172 602 172 578 c 0
 172 552 195 521 239 487 c 0
 247 481 281 460 340 425 c 0
 395 389 434 363 454 346 c 0
 492 310 510 270 510 227 c 0xd4
 510 166 474 118 400 87 c 1
 452 48 478 2 478 -51 c 0
 478 -101 457 -141 417 -170 c 0
 380 -198 336 -210 284 -210 c 0
 159 -210 89 -152 69 -34 c 1xc8
356 120 m 1
 403 144 428 175 428 210 c 0xe4
 428 250 382 297 291 351 c 0
 251 376 218 399 192 418 c 1
 144 392 120 360 120 323 c 0
 120 285 159 241 242 192 c 0
 294 161 333 136 356 120 c 1
EndSplineSet
EndChar
StartChar: dieresis
Encoding: 263 168 228
OldEncoding: 168
Width: 332
VWidth: 2048
Flags: W
HStem: 621 99<31 123 212 303>
VStem: 31 92<621 720> 212 91<621 720>
Fore
31 621 m 1
 31 720 l 1
 123 720 l 1
 123 621 l 1
 31 621 l 1
212 621 m 1
 212 720 l 1
 303 720 l 1
 303 621 l 1
 212 621 l 1
EndSplineSet
EndChar
StartChar: copyright
Encoding: 264 169 229
OldEncoding: 169
Width: 735
VWidth: 2048
Flags: W
HStem: -9 61<371 387> 149 56<353 387> 512 55<353 387> 668 60<371 387>
VStem: 2 61<359 376> 178 66<342 376> 677 62<359 376>
Fore
371 728 m 0
 474 728 561 693 633 622 c 0
 704 550 739 463 739 359 c 0
 739 258 704 170 632 98 c 0
 559 26 472 -9 371 -9 c 0
 268 -9 181 26 109 98 c 0
 37 170 2 256 2 359 c 0
 2 463 37 552 107 622 c 0
 179 693 267 728 371 728 c 0
371 668 m 0
 285 668 212 638 152 578 c 0
 92 518 63 445 63 359 c 0
 63 273 92 201 152 141 c 0
 212 81 284 52 371 52 c 0
 457 52 529 81 589 141 c 0
 648 201 677 273 677 359 c 0
 677 445 647 517 587 576 c 0
 527 638 455 668 371 668 c 0
489 300 m 1
 549 282 l 1
 524 193 466 149 371 149 c 0
 310 149 261 169 227 208 c 0
 193 245 178 296 178 359 c 0
 178 422 195 472 230 510 c 0
 264 547 313 567 376 567 c 0
 461 567 517 529 541 451 c 1
 483 437 l 1
 461 487 425 512 372 512 c 0
 330 512 297 497 274 464 c 0
 254 437 244 402 244 357 c 0
 244 256 285 205 368 205 c 0
 431 205 472 238 489 300 c 1
EndSplineSet
EndChar
StartChar: ordfeminine
Encoding: 265 170 230
OldEncoding: 170
Width: 369
VWidth: 2048
Flags: W
HStem: 365 58<141 161> 671 57<166 200>
VStem: 23 72<472 478> 261 70<521 612> 268 63<417 463>
Fore
268 417 m 1xe8
 228 382 187 365 143 365 c 0
 63 365 23 400 23 472 c 0
 23 518 46 549 94 566 c 1
 143 576 l 1
 215 587 l 1
 261 596 l 1
 261 647 236 671 184 671 c 0
 136 671 109 651 103 610 c 1
 35 627 l 1
 48 694 98 728 185 728 c 0
 282 728 331 688 331 610 c 1xf0
 331 463 l 1
 330 420 337 389 351 374 c 1
 279 374 l 1
 271 388 268 402 268 417 c 1xe8
261 540 m 1
 228 533 196 529 162 523 c 1
 118 512 95 495 95 472 c 0
 95 438 116 423 159 423 c 0
 227 423 261 461 261 540 c 1
EndSplineSet
EndChar
StartChar: guillemotleft
Encoding: 266 171 231
OldEncoding: 171
Width: 554
VWidth: 2048
Flags: W
Fore
166 258 m 1
 293 35 l 1
 222 35 l 1
 64 258 l 1
 222 480 l 1
 293 480 l 1
 166 258 l 1
356 258 m 1
 484 35 l 1
 411 35 l 1
 256 258 l 1
 411 480 l 1
 484 480 l 1
 356 258 l 1
EndSplineSet
EndChar
StartChar: logicalnot
Encoding: 267 172 232
OldEncoding: 172
Width: 583
VWidth: 2048
Flags: W
HStem: 422 81<55 446>
VStem: 446 83<207 503>
Fore
529 207 m 1
 446 207 l 1
 446 422 l 1
 55 422 l 1
 55 503 l 1
 529 503 l 1
 529 207 l 1
EndSplineSet
EndChar
StartChar: minus
Encoding: 268 173 233
OldEncoding: 173
Width: 332
VWidth: 2048
Flags: W
HStem: 215 88<32 302>
Fore
32 215 m 1
 32 303 l 1
 302 303 l 1
 302 215 l 1
 32 215 l 1
EndSplineSet
EndChar
StartChar: registered
Encoding: 269 174 234
OldEncoding: 174
Width: 735
VWidth: 2048
Flags: W
HStem: -9 61<371 387> 498 54<208 355> 668 60<371 387>
VStem: 2 61<359 381> 208 65<156 323 156 498> 448 65<438 448> 677 62<359 381>
Fore
371 728 m 0
 474 728 561 693 633 622 c 0
 704 550 739 463 739 359 c 0
 739 258 704 170 632 98 c 0
 559 26 472 -9 371 -9 c 0
 268 -9 181 26 109 98 c 0
 37 170 2 256 2 359 c 0
 2 463 37 552 107 622 c 0
 179 693 267 728 371 728 c 0
371 668 m 0
 285 668 212 638 152 578 c 0
 92 518 63 445 63 359 c 0
 63 273 92 201 152 141 c 0
 212 81 284 52 371 52 c 0
 457 52 529 81 589 141 c 0
 648 201 677 273 677 359 c 0
 677 445 647 517 587 576 c 0
 527 638 455 668 371 668 c 0
208 156 m 1
 208 552 l 1
 345 552 l 2
 458 552 513 517 513 446 c 0
 513 414 503 388 480 366 c 0
 460 348 434 336 402 333 c 1
 426 325 457 293 494 233 c 2
 543 156 l 1
 463 156 l 1
 428 219 l 2
 408 256 392 281 383 290 c 0
 363 313 339 323 310 323 c 2
 273 323 l 1
 273 156 l 1
 208 156 l 1
273 379 m 1
 351 379 l 2
 415 379 448 399 448 440 c 0
 448 478 412 498 345 498 c 2
 273 498 l 1
 273 379 l 1
EndSplineSet
EndChar
StartChar: macron
Encoding: 270 175 235
OldEncoding: 175
Width: 551
VWidth: 2048
Flags: W
HStem: 765 63<-15 567>
Fore
-15 765 m 1
 -15 828 l 1
 567 828 l 1
 567 765 l 1
 -15 765 l 1
EndSplineSet
EndChar
StartChar: degree
Encoding: 271 176 236
OldEncoding: 176
Width: 400
VWidth: 2048
Flags: W
HStem: 457 53<198 208> 676 52<198 208>
VStem: 63 53<593 602> 281 53<593 602>
Fore
63 593 m 0
 63 630 77 662 103 688 c 0
 129 716 159 728 198 728 c 0
 236 728 268 716 294 688 c 0
 320 662 334 630 334 593 c 0
 334 555 320 523 294 497 c 0
 267 471 235 457 198 457 c 0
 159 457 129 471 103 497 c 0
 77 523 63 555 63 593 c 0
116 593 m 0
 116 570 124 550 139 535 c 0
 156 518 175 510 198 510 c 0
 221 510 241 518 256 535 c 0
 273 552 281 570 281 593 c 0
 281 615 273 635 256 651 c 0
 241 668 221 676 198 676 c 0
 175 676 156 668 139 651 c 0
 124 635 116 616 116 593 c 0
EndSplineSet
EndChar
StartChar: plusminus
Encoding: 272 177 237
OldEncoding: 177
Width: 548
VWidth: 2048
Flags: W
HStem: 0 83<38 510> 323 83<38 233 316 510>
VStem: 233 83<127 323 406 601>
Fore
233 127 m 1
 233 323 l 1
 38 323 l 1
 38 406 l 1
 233 406 l 1
 233 601 l 1
 316 601 l 1
 316 406 l 1
 510 406 l 1
 510 323 l 1
 316 323 l 1
 316 127 l 1
 233 127 l 1
510 0 m 1
 38 0 l 1
 38 83 l 1
 510 83 l 1
 510 0 l 1
EndSplineSet
EndChar
StartChar: twosuperior
Encoding: 273 178 238
OldEncoding: 178
Width: 332
VWidth: 2048
Flags: W
HStem: 357 60<127 317> 668 57<155 187>
VStem: 238 76<610 625>
Fore
12 357 m 1
 15 399 57 448 135 506 c 0
 175 535 196 550 198 552 c 0
 224 575 238 596 238 613 c 0
 238 650 216 668 170 668 c 0
 130 668 106 648 97 612 c 1
 23 619 l 1
 40 690 90 725 172 725 c 0
 267 725 314 691 314 625 c 0
 314 593 299 561 270 532 c 0
 258 518 230 497 185 464 c 0
 161 448 141 431 127 417 c 1
 317 417 l 1
 317 357 l 1
 12 357 l 1
EndSplineSet
EndChar
StartChar: threesuperior
Encoding: 274 179 239
OldEncoding: 179
Width: 332
VWidth: 2048
Flags: W
HStem: 349 57<147 178> 526 50<146 165> 671 54<164 178>
VStem: 222 77<621 637> 239 77<459 474>
Fore
17 454 m 1xe8
 87 461 l 1
 98 425 124 406 162 406 c 0
 213 406 239 428 239 472 c 0xe8
 239 507 213 526 161 526 c 1
 146 524 l 1
 135 524 l 1
 146 576 l 1
 196 576 222 593 222 627 c 0
 222 656 202 671 164 671 c 0
 129 671 106 655 95 621 c 1
 25 633 l 1
 46 694 94 725 164 725 c 0
 254 725 299 694 299 635 c 0xf0
 299 596 276 569 231 555 c 1
 288 541 316 510 316 461 c 0
 316 425 299 395 267 376 c 0
 239 359 205 349 167 349 c 0
 80 349 31 385 17 454 c 1xe8
EndSplineSet
EndChar
StartChar: acute
Encoding: 275 180 240
OldEncoding: 180
Width: 332
VWidth: 2048
Flags: W
Fore
109 582 m 1
 173 720 l 1
 288 720 l 1
 181 582 l 1
 109 582 l 1
EndSplineSet
EndChar
StartChar: mu
Encoding: 276 181 241
OldEncoding: 181
Width: 574
VWidth: 2048
Flags: W
HStem: -12 79<269 303>
VStem: 78 88<-199 52 -199 518> 418 79<0 518>
Fore
497 518 m 1
 497 0 l 1
 418 0 l 1
 418 61 l 1
 389 12 346 -12 288 -12 c 0
 239 -12 198 9 166 52 c 1
 166 -199 l 1
 78 -199 l 1
 78 518 l 1
 166 518 l 1
 166 299 l 2
 166 227 170 176 178 149 c 0
 195 95 230 67 285 67 c 0
 340 67 379 94 395 147 c 0
 406 176 411 227 411 297 c 2
 411 518 l 1
 497 518 l 1
EndSplineSet
EndChar
StartChar: paragraph
Encoding: 277 182 242
OldEncoding: 182
Width: 536
VWidth: 2048
Flags: W
HStem: 632 84<231 388 231 541>
VStem: 198 81<-199 632> 388 83<-199 632>
Fore
198 -199 m 1
 198 311 l 1
 139 311 94 330 57 368 c 0
 20 405 0 452 0 510 c 0
 0 578 23 630 66 667 c 0
 106 699 161 716 231 716 c 2
 541 716 l 1
 541 632 l 1
 471 632 l 1
 471 -199 l 1
 388 -199 l 1
 388 632 l 1
 279 632 l 1
 279 -199 l 1
 198 -199 l 1
EndSplineSet
EndChar
StartChar: periodcentered
Encoding: 278 183 243
OldEncoding: 183
Width: 277
VWidth: 2048
Flags: W
HStem: 302 101<90 192>
Fore
90 302 m 1
 90 403 l 1
 192 403 l 1
 192 302 l 1
 90 302 l 1
EndSplineSet
EndChar
StartChar: cedilla
Encoding: 279 184 244
OldEncoding: 184
Width: 332
VWidth: 2048
Flags: W
HStem: -205 61<58 123>
VStem: 182 82<-115 -105>
Fore
106 -75 m 1
 130 11 l 1
 196 11 l 1
 181 -41 l 1
 236 -48 264 -71 264 -113 c 0
 264 -146 247 -170 215 -187 c 0
 189 -199 158 -205 123 -205 c 0
 97 -205 74 -204 52 -199 c 1
 58 -143 l 1
 103 -144 l 2
 156 -146 182 -133 182 -107 c 0
 182 -86 156 -75 106 -75 c 1
EndSplineSet
EndChar
StartChar: onesuperior
Encoding: 280 185 245
OldEncoding: 185
Width: 332
VWidth: 2048
Flags: W
VStem: 161 72<357 725>
Fore
161 357 m 1
 161 628 l 1
 130 604 94 586 52 573 c 1
 52 635 l 1
 101 651 144 681 179 725 c 1
 233 725 l 1
 233 357 l 1
 161 357 l 1
EndSplineSet
EndChar
StartChar: ordmasculine
Encoding: 281 186 246
OldEncoding: 186
Width: 364
VWidth: 2048
Flags: W
HStem: 362 64<166.853 198> 664 64<166.853 198>
VStem: 21 74<521 555> 270 73<537 555>
Fore
182 728 m 0
 235 728 274 710 303 674 c 0
 330 641 343 598 343 544 c 0
 343 492 330 449 303 415 c 0
 274 380 235 362 182 362 c 0
 132 362 92 379 63 415 c 0
 35 448 21 490 21 543 c 0
 21 596 35 639 61 673 c 0
 90 710 130 728 182 728 c 0
182 664 m 0
 124 664 95 624 95 544 c 0
 95 466 124 426 182 426 c 0
 241 426 270 466 270 547 c 0
 270 624 241 664 182 664 c 0
EndSplineSet
EndChar
StartChar: guillemotright
Encoding: 282 187 247
OldEncoding: 187
Width: 554
VWidth: 2048
Flags: W
Fore
386 258 m 1
 259 480 l 1
 331 480 l 1
 487 258 l 1
 331 35 l 1
 259 35 l 1
 386 258 l 1
198 258 m 1
 67 480 l 1
 143 480 l 1
 296 258 l 1
 143 35 l 1
 67 35 l 1
 198 258 l 1
EndSplineSet
EndChar
StartChar: onequarter
Encoding: 283 188 248
OldEncoding: 188
Width: 833
VWidth: 2048
Flags: W
HStem: -15 21G<699 768> 60 53<586 699 768 820>
VStem: 161 72<357 725> 699 69<-15 60 113 351>
Fore
123 -28 m 1
 662 728 l 1
 737 728 l 1
 199 -28 l 1
 123 -28 l 1
161 357 m 1
 161 628 l 1
 130 604 94 586 52 573 c 1
 52 635 l 1
 101 651 144 681 179 725 c 1
 233 725 l 1
 233 357 l 1
 161 357 l 1
699 -15 m 1
 699 60 l 1
 510 60 l 1
 510 121 l 1
 710 351 l 1
 768 351 l 1
 768 113 l 1
 820 113 l 1
 820 60 l 1
 768 60 l 1
 768 -15 l 1
 699 -15 l 1
699 113 m 1
 699 241 l 1
 586 113 l 1
 699 113 l 1
EndSplineSet
EndChar
StartChar: onehalf
Encoding: 284 189 249
OldEncoding: 189
Width: 833
VWidth: 2048
Flags: W
HStem: -15 59<628 817> 293 58<671 689>
VStem: 161 72<357 725> 512 305<-15 -3.96192> 737 78<238 253>
Fore
112 -28 m 1xe0
 648 728 l 1
 727 728 l 1
 189 -28 l 1
 112 -28 l 1xe0
161 357 m 1
 161 628 l 1
 130 604 94 586 52 573 c 1
 52 635 l 1
 101 651 144 681 179 725 c 1
 233 725 l 1
 233 357 l 1
 161 357 l 1
512 -15 m 1xf0
 512 25 553 74 636 133 c 0
 704 182 737 218 737 241 c 0
 737 276 716 293 671 293 c 0
 633 293 609 276 596 239 c 1
 523 245 l 1
 541 316 590 351 671 351 c 0
 768 351 815 319 815 253 c 0xe8
 815 221 800 189 771 158 c 0
 757 144 728 121 687 90 c 0
 661 71 641 55 628 44 c 1
 817 44 l 1
 817 -15 l 1
 512 -15 l 1xf0
EndSplineSet
EndChar
StartChar: threequarters
Encoding: 285 190 250
OldEncoding: 190
Width: 833
VWidth: 2048
Flags: W
HStem: -15 21G<699 768> 60 53<586 699 768 820> 349 57<147 178> 526 50<146 166> 671 54<164 178>
VStem: 222 77<621 637> 239 77<459 474> 699 69<-15 60 113 351>
Fore
123 -28 m 1xf9
 661 728 l 1
 737 728 l 1
 199 -28 l 1
 123 -28 l 1xf9
17 454 m 1
 87 461 l 1
 98 425 124 406 162 406 c 0
 213 406 239 428 239 472 c 0xfb
 239 510 215 527 162 526 c 2
 135 524 l 1
 146 576 l 1
 196 576 222 593 222 627 c 0
 222 656 202 671 164 671 c 0
 129 671 106 655 95 621 c 1
 25 633 l 1
 46 694 94 725 164 725 c 0
 254 725 299 694 299 635 c 0xfd
 299 596 276 569 231 555 c 1
 288 541 316 510 316 461 c 0xfb
 316 425 299 395 267 376 c 0
 239 359 205 349 167 349 c 0
 80 349 31 385 17 454 c 1
699 -15 m 1
 699 60 l 1
 510 60 l 1
 510 121 l 1
 708 351 l 1
 768 351 l 1
 768 113 l 1
 820 113 l 1
 820 60 l 1
 768 60 l 1
 768 -15 l 1
 699 -15 l 1
699 113 m 1
 699 241 l 1
 586 113 l 1
 699 113 l 1
EndSplineSet
EndChar
StartChar: questiondown
Encoding: 286 191 251
OldEncoding: 191
Width: 610
VWidth: 2048
Flags: W
HStem: -210 74<300 327>
VStem: 77 90<-19 -1> 258 99<418 518> 268 85<315 343>
Fore
357 518 m 1xe0
 357 418 l 1
 258 418 l 1
 258 518 l 1
 357 518 l 1xe0
353 343 m 1xd0
 353 317 l 2
 353 268 343 230 325 198 c 0
 311 175 282 146 241 109 c 0
 192 66 167 28 167 -8 c 0
 167 -44 181 -75 208 -100 c 0
 238 -124 270 -136 307 -136 c 0
 386 -136 434 -89 449 8 c 1
 540 -3 l 1
 520 -141 443 -210 308 -210 c 0
 245 -210 192 -193 149 -159 c 0
 101 -124 77 -75 77 -14 c 0
 77 44 113 106 185 169 c 0
 221 199 242 225 253 244 c 0
 262 265 268 297 268 343 c 1
 353 343 l 1xd0
EndSplineSet
EndChar
StartChar: AE
Encoding: 293 198 258
OldEncoding: 198
Width: 999
VWidth: 2048
Flags: W
HStem: 0 84<573 946> 207 83<241 478> 326 86<573 907> 632 84<345 478 345 932>
VStem: 478 95<0 326 290 632>
Fore
0 0 m 1
 345 716 l 1
 932 716 l 1
 932 632 l 1
 573 632 l 1
 573 412 l 1
 907 412 l 1
 907 326 l 1
 573 326 l 1
 573 84 l 1
 946 84 l 1
 946 0 l 1
 478 0 l 1
 478 207 l 1
 201 207 l 1
 103 0 l 1
 0 0 l 1
241 290 m 1
 478 290 l 1
 478 632 l 1
 406 632 l 1
 241 290 l 1
EndSplineSet
EndChar
StartChar: Eth
Encoding: 303 208 268
OldEncoding: 208
Width: 721
VWidth: 2048
Flags: W
HStem: 0 84<172 351> 325 66<-2 77 172 369> 632 84<77 351>
VStem: 77 95<0 325 391 632> 572 98<335 393>
CounterMasks: 1 00
Fore
77 0 m 1
 77 325 l 1
 -2 325 l 1
 -2 391 l 1
 77 391 l 1
 77 716 l 1
 323 716 l 2
 399 716 455 708 497 691 c 0
 547 670 589 632 621 575 c 0
 653 520 670 449 670 362 c 0
 670 121 558 0 336 0 c 2
 77 0 l 1
172 84 m 1
 325 84 l 2
 380 84 423 92 454 104 c 0
 490 121 520 152 541 196 c 0
 561 241 572 296 572 363 c 0
 572 490 536 572 466 607 c 0
 434 624 385 632 322 632 c 2
 172 632 l 1
 172 391 l 1
 369 391 l 1
 369 325 l 1
 172 325 l 1
 172 84 l 1
EndSplineSet
EndChar
StartChar: multiply
Encoding: 310 215 275
OldEncoding: 215
Width: 583
VWidth: 2048
Flags: W
Fore
78 199 m 1
 233 354 l 1
 80 507 l 1
 138 567 l 1
 291 414 l 1
 446 566 l 1
 504 507 l 1
 351 354 l 1
 504 201 l 1
 446 141 l 1
 291 294 l 1
 138 141 l 1
 78 199 l 1
EndSplineSet
EndChar
StartChar: Oslash
Encoding: 311 216 276
OldEncoding: 216
Width: 777
VWidth: 2048
Flags: W
HStem: -12 81<375 409> 647 81<391 409>
VStem: 46 98<338 388> 635 96<338 372>
Fore
610 650 m 1
 693 742 l 1
 740 702 l 1
 655 605 l 1
 705 532 731 451 731 357 c 0
 731 250 702 162 642 95 c 0
 581 23 497 -12 391 -12 c 0
 314 -12 241 12 170 63 c 1
 89 -29 l 1
 40 12 l 1
 127 109 l 1
 74 189 46 270 46 356 c 0
 46 464 77 552 136 621 c 0
 199 693 285 728 391 728 c 0
 472 728 544 702 610 650 c 1
552 584 m 1
 501 627 448 647 391 647 c 0
 308 647 247 619 202 561 c 0
 164 510 144 441 144 357 c 0
 144 291 159 231 189 176 c 1
 552 584 l 1
592 535 m 1
 228 127 l 1
 277 89 330 69 388 69 c 0
 468 69 529 98 573 155 c 0
 613 207 635 274 635 356 c 0
 635 422 619 481 592 535 c 1
EndSplineSet
EndChar
StartChar: Thorn
Encoding: 317 222 282
OldEncoding: 222
Width: 666
VWidth: 2048
Flags: W
HStem: 0 21G<77 172> 146 84<172 382> 486 84<172 382>
VStem: 77 95<0 146 0 486 0 716> 526 98<351 369>
Fore
77 0 m 1
 77 716 l 1
 172 716 l 1
 172 570 l 1
 348 570 l 2
 434 570 498 558 541 532 c 0
 596 500 624 443 624 363 c 0
 624 218 533 146 356 146 c 2
 172 146 l 1
 172 0 l 1
 77 0 l 1
172 230 m 1
 357 230 l 2
 469 230 526 273 526 360 c 0
 526 409 509 445 475 463 c 0
 449 478 409 486 356 486 c 2
 172 486 l 1
 172 230 l 1
EndSplineSet
EndChar
StartChar: germandbls
Encoding: 318 223 283
OldEncoding: 223
Width: 610
VWidth: 2048
Flags: W
HStem: -12 72<389 412> 656 72<266 300>
VStem: 75 87<0 517> 300 91<376 389> 379 85<577 591> 490 89<139 155>
Fore
75 0 m 1xec
 75 487 l 2
 75 648 144 728 284 728 c 0
 330 728 371 717 405 694 c 0
 445 668 464 633 464 589 c 0xec
 464 563 451 523 425 471 c 2
 395 415 l 2
 392 409 391 400 391 389 c 0
 391 371 414 345 458 311 c 0
 515 268 547 244 553 235 c 0
 572 213 579 185 579 153 c 0
 579 104 563 64 526 32 c 0
 492 3 451 -12 402 -12 c 0
 320 -12 262 28 224 106 c 1
 300 141 l 1
 326 87 360 60 400 60 c 0
 425 60 446 67 463 84 c 0
 481 101 490 121 490 146 c 0
 490 173 468 202 420 235 c 0
 380 262 354 281 343 293 c 0
 314 320 300 348 300 376 c 0xf4
 300 399 313 432 339 478 c 0
 366 524 379 558 379 579 c 0
 379 604 368 622 346 638 c 0
 328 650 307 656 282 656 c 0
 233 656 201 639 182 604 c 0
 169 578 162 538 162 484 c 2
 162 0 l 1
 75 0 l 1xec
EndSplineSet
EndChar
StartChar: ae
Encoding: 325 230 290
OldEncoding: 230
Width: 889
VWidth: 2048
Flags: W
HStem: -12 70<207 229> 238 72<474 848> 458 72<255 289 618 624>
VStem: 32 95<131 148> 388 86<223 261 310 329>
Fore
848 159 m 1
 811 44 734 -12 618 -12 c 0
 538 -12 474 20 425 86 c 1
 360 20 290 -12 210 -12 c 0
 161 -12 120 0 87 25 c 0
 51 52 32 89 32 136 c 0
 32 228 109 284 262 303 c 0
 310 310 351 317 386 326 c 1
 386 346 l 2
 386 388 377 417 360 434 c 0
 342 449 313 458 271 458 c 0
 189 458 143 425 133 357 c 1
 48 368 l 1
 69 477 144 530 273 530 c 0
 365 530 425 507 452 460 c 1
 494 507 549 530 618 530 c 0
 691 530 748 506 788 455 c 0
 831 402 851 339 849 267 c 1
 848 238 l 1
 474 238 l 1
 474 120 523 61 622 61 c 0
 693 61 737 97 756 170 c 1
 848 159 l 1
474 310 m 1
 759 310 l 1
 750 408 704 458 618 458 c 0
 576 458 541 445 513 415 c 0
 486 388 474 353 474 310 c 1
388 261 m 1
 333 248 279 238 224 225 c 1
 159 208 127 181 127 139 c 0
 127 86 159 58 227 58 c 0
 259 58 288 64 317 80 c 0
 348 97 368 118 377 146 c 0
 385 167 388 204 388 261 c 1
EndSplineSet
EndChar
StartChar: eth
Encoding: 335 240 300
OldEncoding: 240
Width: 554
VWidth: 2048
Flags: W
HStem: -12 72<255 292> 451 67<254 275>
VStem: 35 91<227 277> 425 92<243 277>
Fore
150 716 m 1
 256 716 l 1
 282 697 302 681 317 667 c 1
 422 716 l 1
 445 667 l 1
 360 625 l 1
 464 506 517 382 517 254 c 0
 517 178 497 115 455 66 c 0
 411 14 351 -12 276 -12 c 0
 198 -12 138 12 95 63 c 0
 55 110 35 173 35 253 c 0
 35 326 54 389 89 437 c 0
 129 492 185 518 256 518 c 0
 290 518 325 509 360 490 c 1
 340 529 317 564 290 595 c 1
 156 532 l 1
 135 582 l 1
 251 636 l 1
 221 665 187 691 150 716 c 1
425 258 m 0
 425 311 414 354 389 389 c 0
 362 431 322 451 273 451 c 0
 221 451 182 429 158 386 c 0
 136 351 126 305 126 250 c 0
 126 196 136 153 159 120 c 0
 185 80 224 60 274 60 c 0
 325 60 365 81 391 124 c 0
 414 159 425 204 425 258 c 0
EndSplineSet
EndChar
StartChar: divide
Encoding: 342 247 307
OldEncoding: 247
Width: 548
VWidth: 2048
Flags: W
HStem: 313 81<38 510> 451 99<224 323>
VStem: 224 99<156 256 451 550>
Fore
224 451 m 1
 224 550 l 1
 323 550 l 1
 323 451 l 1
 224 451 l 1
510 313 m 1
 38 313 l 1
 38 394 l 1
 510 394 l 1
 510 313 l 1
224 156 m 1
 224 256 l 1
 323 256 l 1
 323 156 l 1
 224 156 l 1
EndSplineSet
EndChar
StartChar: oslash
Encoding: 343 248 308
OldEncoding: 248
Width: 610
VWidth: 2048
Flags: W
HStem: -12 73<288.258 321> 458 72<303 321>
VStem: 64 92<233 283> 461 91<259 283>
Fore
451 487 m 1
 500 550 l 1
 546 517 l 1
 495 449 l 1
 532 400 552 337 552 259 c 0
 552 178 532 113 492 64 c 0
 448 14 386 -12 308 -12 c 0
 256 -12 210 2 170 28 c 1
 120 -38 l 1
 74 -3 l 1
 126 64 l 1
 86 110 64 172 64 253 c 0
 64 334 84 400 124 449 c 0
 166 503 227 530 307 530 c 0
 356 530 403 517 451 487 c 1
402 423 m 1
 372 446 340 458 310 458 c 0
 258 458 218 437 192 395 c 0
 167 359 156 314 156 259 c 0
 156 210 164 170 181 136 c 1
 402 423 l 1
438 377 m 1
 219 92 l 1
 245 71 274 61 305 61 c 0
 359 61 399 81 426 123 c 0
 451 158 461 204 461 259 c 0
 461 307 454 346 438 377 c 1
EndSplineSet
EndChar
StartChar: thorn
Encoding: 349 254 314
OldEncoding: 254
Width: 554
VWidth: 2048
Flags: W
HStem: -12 73<273 298> 461 69<283 298>
VStem: 66 80<-199 282> 66 89<-199 54 -199 716> 426 91<264 282>
Fore
66 -199 m 1xe8
 66 716 l 1
 155 716 l 1
 155 464 l 1
 193 509 241 530 296 530 c 0
 369 530 425 503 464 448 c 0
 500 400 517 339 517 264 c 0
 517 189 498 126 461 74 c 0
 420 17 363 -12 290 -12 c 0
 239 -12 193 11 155 54 c 1
 155 -199 l 1xd8
 66 -199 l 1xe8
146 256 m 0xe8
 146 204 156 159 175 126 c 0
 199 83 236 61 285 61 c 0
 334 61 372 83 397 129 c 0
 417 164 426 210 426 264 c 0
 426 316 417 359 397 395 c 0
 372 440 336 461 288 461 c 0
 241 461 204 438 178 391 c 0
 156 353 146 308 146 256 c 0xe8
EndSplineSet
EndChar
StartChar: dotlessi
Encoding: 351 305 316
OldEncoding: 305
Width: 277
VWidth: 2048
Flags: W
HStem: 0 21G<97 185>
VStem: 97 88<0 518>
Fore
97 0 m 1
 97 518 l 1
 185 518 l 1
 185 0 l 1
 97 0 l 1
EndSplineSet
EndChar
StartChar: OE
Encoding: 352 338 317
OldEncoding: 338
Width: 999
VWidth: 2048
Flags: W
HStem: -12 76<334 368> 0 84<636 969> 328 86<636 929> 632 84<547 953> 651 77<334 368>
VStem: 63 98<323 389> 547 89<0 328 619 632>
Fore
969 84 m 1x76
 969 0 l 1
 547 0 l 1x76
 547 103 l 1
 504 26 438 -12 353 -12 c 0
 253 -12 178 26 127 103 c 0
 84 169 63 254 63 359 c 0
 63 464 84 550 127 615 c 0
 176 690 253 728 353 728 c 0xae
 438 728 503 691 547 619 c 1
 547 716 l 1
 953 716 l 1
 953 632 l 1
 636 632 l 1
 636 414 l 1
 929 414 l 1
 929 328 l 1
 636 328 l 1
 636 84 l 1
 969 84 l 1x76
351 651 m 0xae
 224 651 161 552 161 351 c 0
 161 276 173 213 199 162 c 0
 233 97 284 64 351 64 c 0
 423 64 474 100 506 169 c 0
 530 219 543 285 543 363 c 0
 543 438 529 503 504 553 c 0
 471 619 420 651 351 651 c 0xae
EndSplineSet
EndChar
StartChar: oe
Encoding: 353 339 318
OldEncoding: 339
Width: 944
VWidth: 2048
Flags: W
HStem: -12 73<263 297 663 697> 236 72<527 907> 458 72<263 297 663 681>
VStem: 40 90<234 277> 435 89<235 261>
Fore
478 86 m 1
 429 20 365 -12 285 -12 c 0
 207 -12 146 12 103 63 c 0
 61 110 40 173 40 253 c 0
 40 336 60 402 100 451 c 0
 143 504 204 530 285 530 c 0
 371 530 435 498 478 431 c 1
 524 498 587 530 668 530 c 0
 750 530 812 501 854 441 c 0
 889 391 907 322 907 236 c 1
 524 236 l 1
 524 187 538 146 564 113 c 0
 593 78 632 61 679 61 c 0
 746 61 791 97 812 169 c 1
 900 156 l 1
 871 44 796 -12 677 -12 c 0
 590 -12 523 20 478 86 c 1
130 261 m 0
 130 204 141 159 164 124 c 0
 190 81 230 61 282 61 c 0
 333 61 371 83 399 126 c 0
 423 162 435 208 435 261 c 0
 435 314 423 359 400 395 c 0
 372 437 333 458 282 458 c 0
 231 458 192 437 166 394 c 0
 143 359 130 314 130 261 c 0
527 308 m 1
 814 308 l 1
 814 351 802 386 774 415 c 0
 748 443 714 458 673 458 c 0
 632 458 596 443 569 414 c 0
 541 385 527 349 527 308 c 1
EndSplineSet
EndChar
StartChar: florin
Encoding: 357 402 322
OldEncoding: 402
Width: 554
VWidth: 2048
Flags: W
HStem: -210 77<111 132> 451 67<175 262 365 452> 647 83<424 440>
Fore
23 -198 m 1
 40 -123 l 1
 77 -129 101 -133 113 -133 c 0
 147 -133 169 -109 176 -58 c 2
 262 451 l 1
 164 451 l 1
 176 518 l 1
 274 518 l 1
 287 584 l 2
 294 633 308 668 325 690 c 0
 346 716 380 730 425 730 c 0
 452 730 486 723 530 710 c 1
 512 636 l 1
 481 644 455 647 438 647 c 0
 415 647 400 639 389 624 c 0
 383 615 379 596 374 569 c 2
 365 518 l 1
 464 518 l 1
 452 451 l 1
 353 451 l 1
 259 -83 l 2
 244 -169 202 -210 132 -210 c 0
 98 -210 61 -205 23 -198 c 1
EndSplineSet
EndChar
StartChar: circumflex
Encoding: 358 710 323
OldEncoding: 710
Width: 332
VWidth: 2048
Flags: W
Fore
169 667 m 1
 113 582 l 1
 12 582 l 1
 118 720 l 1
 212 720 l 1
 320 582 l 1
 222 582 l 1
 169 667 l 1
EndSplineSet
EndChar
StartChar: caron
Encoding: 359 711 324
OldEncoding: 711
Width: 332
VWidth: 2048
Flags: W
Fore
175 638 m 1
 228 720 l 1
 328 720 l 1
 219 582 l 1
 126 582 l 1
 20 720 l 1
 121 720 l 1
 175 638 l 1
EndSplineSet
EndChar
StartChar: ring
Encoding: 361 730 326
OldEncoding: 730
Width: 332
VWidth: 2048
Flags: W
HStem: 563 36<159 177> 705 35<159 177>
VStem: 80 36<653 660> 221 35<651 660>
Fore
80 653 m 0
 80 677 87 699 104 716 c 0
 121 733 143 740 167 740 c 0
 192 740 213 733 230 714 c 0
 247 697 256 676 256 651 c 0
 256 627 247 607 230 589 c 0
 213 570 192 563 167 563 c 0
 141 563 121 570 104 589 c 0
 87 605 80 627 80 653 c 0
116 653 m 0
 116 618 133 599 169 599 c 0
 182 599 193 604 204 615 c 0
 215 627 221 639 221 651 c 0
 221 687 202 705 169 705 c 0
 133 705 116 688 116 653 c 0
EndSplineSet
EndChar
StartChar: tilde
Encoding: 362 732 327
OldEncoding: 732
Width: 332
VWidth: 2048
Flags: W
HStem: 688 20G<267 330>
VStem: 3 64<596 609.283>
Fore
3 596 m 1
 3 670 37 707 103 707 c 0
 123 707 150 697 185 681 c 0
 204 671 219 667 231 667 c 0
 251 667 264 681 267 708 c 1
 330 708 l 1
 330 635 297 598 235 598 c 0
 213 598 185 607 153 624 c 0
 132 636 115 642 106 642 c 0
 81 642 67 627 67 596 c 1
 3 596 l 1
EndSplineSet
EndChar
StartChar: quotesinglbase
Encoding: 365 8218 330
OldEncoding: 8218
Width: 222
VWidth: 2048
Flags: HW
HStem: -15 15G<61 106>
VStem: 61 95<0 101>
Fore
61 0 m 1
 61 101 l 1
 155 101 l 1
 155 21 l 2
 155 -58 127 -109 74 -132 c 1
 52 -98 l 1
 89 -83 106 -51 106 0 c 1
 61 0 l 1
EndSplineSet
EndChar
StartChar: quotedblbase
Encoding: 366 8222 331
OldEncoding: 8222
Width: 332
VWidth: 2048
Flags: HW
HStem: -15 15G<43 89 193 239>
VStem: 43 95<0 101> 193 95<0 101>
Fore
43 0 m 1
 43 101 l 1
 136 101 l 1
 136 21 l 2
 136 -58 110 -109 57 -132 c 1
 34 -98 l 1
 71 -83 89 -51 89 0 c 1
 43 0 l 1
193 0 m 1
 193 101 l 1
 288 101 l 1
 288 21 l 2
 288 -57 261 -109 207 -132 c 1
 187 -98 l 1
 222 -83 239 -51 239 0 c 1
 193 0 l 1
EndSplineSet
EndChar
StartChar: dagger
Encoding: 367 8224 332
OldEncoding: 8224
Width: 554
VWidth: 2048
Flags: HW
HStem: 423 78<35 230 319 515>
VStem: 230 89<-169 423 501 700>
Fore
230 -169 m 1
 230 423 l 1
 35 423 l 1
 35 501 l 1
 230 501 l 1
 230 700 l 1
 319 700 l 1
 319 501 l 1
 515 501 l 1
 515 423 l 1
 319 423 l 1
 319 -169 l 1
 230 -169 l 1
EndSplineSet
EndChar
StartChar: daggerdbl
Encoding: 368 8225 333
OldEncoding: 8225
Width: 554
VWidth: 2048
Flags: HW
HStem: 12 78<35 231 320 517> 445 78<35 231 320 517>
VStem: 231 89<-169 11 90 445 523 705>
Fore
231 -169 m 1
 231 12 l 1
 35 12 l 1
 35 90 l 1
 231 90 l 1
 231 445 l 1
 35 445 l 1
 35 523 l 1
 231 523 l 1
 231 707 l 1
 320 707 l 1
 320 523 l 1
 517 523 l 1
 517 445 l 1
 320 445 l 1
 320 90 l 1
 517 90 l 1
 517 12 l 1
 320 12 l 1
 320 -169 l 1
 231 -169 l 1
EndSplineSet
EndChar
StartChar: perthousand
Encoding: 369 8240 334
OldEncoding: 8240
Width: 999
VWidth: 2048
Flags: HW
HStem: -26 61<509 521 840 846> 288 61<509 521 832 848> 346 61<155 162> 662 61<149 162> 713 15G<449 513>
VStem: 18 72<512 549> 225 72<512 549> 372 72<141 178> 581 72<141 178> 702 72<141 178> 910 72<141 178>
Fore
156 -26 m 1
 449 728 l 1
 513 728 l 1
 221 -26 l 1
 156 -26 l 1
18 536 m 0
 18 661 64 722 158 722 c 0
 251 722 299 661 299 540 c 0
 299 411 251 346 159 346 c 0
 64 346 18 409 18 536 c 0
90 533 m 0
 90 449 113 408 161 408 c 0
 204 408 225 449 225 533 c 0
 225 619 204 662 159 662 c 0
 113 662 90 619 90 533 c 0
372 164 m 0
 372 288 418 349 512 349 c 0
 607 349 653 288 653 166 c 0
 653 38 607 -26 513 -26 c 0
 420 -26 372 37 372 164 c 0
446 159 m 0
 446 77 469 34 515 34 c 0
 559 34 581 77 581 161 c 0
 581 247 558 288 513 288 c 0
 468 288 446 245 446 159 c 0
702 164 m 0
 702 288 748 349 842 349 c 0
 937 349 983 288 983 166 c 0
 983 38 937 -26 843 -26 c 0
 750 -26 702 37 702 164 c 0
774 159 m 0
 774 77 799 34 845 34 c 0
 889 34 910 77 910 161 c 0
 910 247 887 288 843 288 c 0
 797 288 774 245 774 159 c 0
EndSplineSet
EndChar
StartChar: guilsinglleft
Encoding: 370 8249 335
OldEncoding: 8249
Width: 332
VWidth: 2048
Flags: HW
Fore
143 258 m 1
 271 35 l 1
 199 35 l 1
 44 258 l 1
 199 480 l 1
 271 480 l 1
 143 258 l 1
EndSplineSet
EndChar
StartChar: guilsinglright
Encoding: 371 8250 336
OldEncoding: 8250
Width: 332
VWidth: 2048
Flags: HW
Fore
192 259 m 1
 63 480 l 1
 135 480 l 1
 284 262 l 1
 135 35 l 1
 63 35 l 1
 192 259 l 1
EndSplineSet
EndChar
StartChar: trademark
Encoding: 372 8482 337
OldEncoding: 8482
Width: 999
VWidth: 2048
Flags: HW
HStem: 658 60<110 239 305 435>
VStem: 239 66<319 658> 480 61<319 658> 811 61<319 651>
Fore
239 319 m 1
 239 658 l 1
 110 658 l 1
 110 716 l 1
 435 716 l 1
 435 658 l 1
 305 658 l 1
 305 319 l 1
 239 319 l 1
480 319 m 1
 480 716 l 1
 576 716 l 1
 677 399 l 1
 776 716 l 1
 871 716 l 1
 871 319 l 1
 811 319 l 1
 811 651 l 1
 708 319 l 1
 647 319 l 1
 541 658 l 1
 541 319 l 1
 480 319 l 1
EndSplineSet
EndChar
StartChar: uniF71D
Encoding: 376 63261 341
OldEncoding: 63261
Width: 340
VWidth: 2048
Flags: HW
HStem: -87 84<87 248>
Fore
18 -138 m 1
 18 -3 l 1
 322 -3 l 1
 322 -138 l 1
 248 -138 l 1
 248 -87 l 1
 87 -87 l 1
 87 -138 l 1
 18 -138 l 1
EndSplineSet
EndChar
